<svg width="20" height="20" viewBox="0 0 20 20" fill="none" xmlns="http://www.w3.org/2000/svg">
<path d="M10.0125 4.87657C8.99809 4.87509 8.00607 5.17453 7.16192 5.73701C6.31778 6.29949 5.65944 7.09972 5.27023 8.03646C4.88102 8.9732 4.77841 10.0043 4.9754 10.9994C5.17238 11.9945 5.66011 12.9088 6.37685 13.6266C7.0936 14.3444 8.00717 14.8334 9.00195 15.0319C9.99673 15.2303 11.028 15.1292 11.9653 14.7414C12.9026 14.3535 13.7038 13.6964 14.2675 12.853C14.8313 12.0097 15.1321 11.0181 15.1321 10.0038C15.1331 9.33079 15.0014 8.66424 14.7446 8.04223C14.4877 7.42022 14.1108 6.85494 13.6353 6.37874C13.1598 5.90254 12.5951 5.52476 11.9734 5.267C11.3518 5.00924 10.6854 4.87657 10.0125 4.87657ZM10.0125 13.336C9.35309 13.3375 8.70809 13.1434 8.15911 12.7781C7.61013 12.4128 7.18186 11.8929 6.92849 11.2842C6.67513 10.6754 6.60807 10.0052 6.7358 9.35826C6.86353 8.71137 7.1803 8.11691 7.64603 7.65013C8.11176 7.18335 8.7055 6.86523 9.35211 6.73605C9.99871 6.60686 10.6691 6.67241 11.2784 6.9244C11.8878 7.17639 12.4087 7.6035 12.7751 8.15165C13.1416 8.69981 13.3373 9.34437 13.3373 10.0038C13.3353 10.8856 12.9846 11.7309 12.3617 12.3552C11.7388 12.9795 10.8943 13.3321 10.0125 13.336ZM16.5371 4.65908C16.5371 4.89542 16.467 5.12644 16.3357 5.32295C16.2044 5.51945 16.0178 5.67261 15.7994 5.76305C15.5811 5.85349 15.3408 5.87716 15.109 5.83105C14.8772 5.78494 14.6643 5.67114 14.4972 5.50402C14.3301 5.33691 14.2163 5.124 14.1702 4.8922C14.1241 4.66041 14.1477 4.42015 14.2382 4.20181C14.3286 3.98346 14.4818 3.79684 14.6783 3.66554C14.8748 3.53424 15.1058 3.46416 15.3421 3.46416C15.4991 3.46383 15.6547 3.49451 15.7998 3.55445C15.9449 3.61438 16.0768 3.70238 16.1878 3.81341C16.2988 3.92443 16.3868 4.05629 16.4468 4.20142C16.5067 4.34654 16.5374 4.50207 16.5371 4.65908ZM19.9318 5.87401C19.9647 4.31954 19.3846 2.81458 18.317 1.68427C17.1845 0.620092 15.681 0.0405804 14.1272 0.0693707C12.4773 -0.0231236 7.52763 -0.0231236 5.87773 0.0693707C4.32297 0.0391236 2.81816 0.618794 1.68549 1.68427C0.619474 2.8156 0.0396628 4.31987 0.0705914 5.87401C-0.0219029 7.52391 -0.0219029 12.4736 0.0705914 14.1235C0.037117 15.6788 0.617241 17.1848 1.68549 18.3157C2.8184 19.3792 4.32161 19.9586 5.87523 19.9306C7.52513 20.0231 12.4748 20.0231 14.1247 19.9306C15.6792 19.9634 17.1841 19.3834 18.3145 18.3157C19.3786 17.1832 19.9581 15.6797 19.9294 14.126C20.0218 12.4761 20.0218 7.5314 19.9294 5.87651L19.9318 5.87401ZM17.7995 15.9084C17.6298 16.3383 17.3736 16.7287 17.0468 17.0555C16.72 17.3824 16.3295 17.6386 15.8996 17.8083C13.9637 18.2023 11.9836 18.3343 10.0125 18.2007C8.03844 18.3297 6.05602 18.1943 4.11784 17.7983C3.68794 17.6286 3.29749 17.3724 2.97067 17.0455C2.64386 16.7187 2.38766 16.3283 2.21796 15.8984C1.81651 13.9609 1.67777 11.9782 1.80548 10.0038C1.67654 8.02972 1.81189 6.04731 2.20796 4.10912C2.37766 3.67922 2.63386 3.28877 2.96067 2.96195C3.28749 2.63514 3.67794 2.37894 4.10784 2.20924C6.04889 1.8094 8.035 1.67319 10.0125 1.80426C11.9865 1.67532 13.9689 1.81067 15.9071 2.20674C16.337 2.37644 16.7275 2.63264 17.0543 2.95945C17.3811 3.28627 17.6373 3.67672 17.807 4.10662C18.2051 6.04453 18.3405 8.02721 18.2095 10.0013C18.3393 11.9798 18.2014 13.9668 17.7995 15.9084Z" fill="#446381"/>
</svg>
