<svg width="20" height="18" viewBox="0 0 20 18" fill="none" xmlns="http://www.w3.org/2000/svg">
<path d="M17.9468 4.92565C17.9597 5.10354 17.9597 5.28142 17.9597 5.4593C17.9703 6.99386 17.6758 8.51523 17.0934 9.93502C16.511 11.3548 15.6523 12.6447 14.5672 13.7299C13.482 14.815 12.1921 15.6737 10.7723 16.2561C9.35254 16.8385 7.83118 17.1329 6.29661 17.1224C4.06378 17.1269 1.87721 16.4861 0 15.2771C0.328762 15.3136 0.659374 15.3307 0.990142 15.3286C2.83537 15.3335 4.62844 14.7166 6.08015 13.5776C5.22492 13.5626 4.39572 13.2808 3.70835 12.7717C3.02098 12.2627 2.50975 11.5516 2.24604 10.7379C2.50195 10.7787 2.76058 10.8002 3.01972 10.8022C3.38132 10.8006 3.74131 10.7538 4.0913 10.6629C3.16423 10.4735 2.33123 9.96918 1.73357 9.23559C1.13592 8.502 0.810413 7.58427 0.812259 6.63804V6.58875C1.3805 6.90607 2.01573 7.08452 2.6661 7.10954C1.79543 6.52935 1.17908 5.63869 0.942882 4.61943C0.706688 3.60017 0.868473 2.52919 1.3952 1.62518C2.4252 2.89194 3.70992 3.92811 5.16606 4.66651C6.6222 5.40492 8.21726 5.82908 9.84784 5.91151C9.78234 5.60286 9.74859 5.28832 9.74711 4.9728C9.74877 4.1508 9.99723 3.34823 10.4603 2.66906C10.9234 1.9899 11.5797 1.46544 12.3443 1.16362C13.1089 0.861799 13.9465 0.796529 14.7486 0.976264C15.5508 1.156 16.2804 1.57246 16.8431 2.17169C17.7612 1.99483 18.6415 1.6598 19.4449 1.18155C19.1391 2.12879 18.4982 2.93195 17.6425 3.44044C18.456 3.34479 19.2506 3.12808 20 2.79749C19.4404 3.61746 18.7462 4.33697 17.9468 4.92565Z" fill="#446381"/>
</svg>
