<svg width="557" height="588" viewBox="0 0 557 588" fill="none" xmlns="http://www.w3.org/2000/svg">
<path d="M320.61 581.59C396.11 580.253 512.909 551.659 546.528 478.159C558.272 452.49 557.474 414.752 555.88 339.276C555.413 317.094 554.636 284.761 549.191 244.64C537.895 161.299 530.195 104.575 501.068 71.5256C428.095 -11.254 164.477 -8.85181 51.897 140.163C-9.50653 221.451 -18.9562 337.106 37.1974 432.672C99.0287 537.923 219.541 583.372 320.61 581.59Z" fill="url(#paint0_linear_42_3521)" fill-opacity="0.17"/>
<path opacity="0.5" d="M193.794 575.207C236.944 552.828 308.762 512.781 361.96 478.622C415.159 444.464 440.576 417.668 409.839 399.706C374.669 379.388 308.466 402.945 249.357 441.814C184.632 484.512 155.964 508.069 125.523 531.037C106.017 545.761 116.361 558.128 135.276 569.907C154.487 581.98 169.855 587.575 193.794 575.207Z" fill="url(#paint1_linear_42_3521)"/>
<path d="M232.216 4.72803L514.641 167.124V389.484L232.216 227.089V4.72803Z" fill="#826F8C" fill-opacity="0.9"/>
<path d="M520.964 163.39L514.641 167.123V389.484L520.964 385.751V163.39Z" fill="#446381"/>
<path d="M508.786 171.09V303.153L237.602 147.058V15.2278L508.786 171.09Z" fill="#506898"/>
<path d="M341.345 206.789L408.321 245.288L429.632 333.252L293.572 254.854L341.345 206.789Z" fill="#786D8A"/>
<path d="M260.552 69.8263C260.552 63.9931 264.299 61.1932 268.748 63.7598C269.685 64.4597 270.856 65.1597 271.793 66.093C273.666 63.2931 276.945 62.5931 280.692 64.6931C285.141 67.2597 288.654 72.8595 290.293 78.6927C291.698 77.7594 293.572 77.7594 295.679 79.1594C298.724 81.026 301.534 84.7592 302.939 88.7258C303.876 88.7258 304.813 88.9591 305.983 89.4257C309.028 91.059 311.604 95.2589 312.306 99.2255L260.552 69.8263Z" fill="white"/>
<path d="M491.691 203.056C491.457 195.823 487.241 187.423 481.855 184.39C480.684 183.69 479.513 183.223 478.342 183.223C476.001 177.39 472.254 172.024 467.804 169.457C462.652 166.424 458.203 168.057 456.095 172.957C454.456 169.924 452.114 167.357 449.538 165.957C445.791 163.857 442.747 164.557 440.873 167.59C439.702 166.19 438.531 165.024 437.126 164.324C433.613 162.224 430.569 163.624 429.632 167.357L491.691 203.056Z" fill="white"/>
<path d="M314.414 113.459C314.882 109.959 317.224 108.325 320.269 110.192C321.674 110.892 322.845 112.292 324.015 113.925C325.186 111.592 327.762 110.892 330.338 112.525C333.617 114.392 336.427 118.825 337.364 123.258C338.066 123.025 339.237 123.258 340.174 123.725C342.282 124.892 344.155 127.925 344.858 130.958L314.414 113.459Z" fill="white"/>
<path d="M410.898 186.723C411.366 183.457 413.474 182.057 416.284 183.69C417.455 184.39 418.626 185.79 419.562 187.19C420.733 185.09 422.841 184.39 425.417 185.79C428.461 187.423 431.037 191.623 431.74 195.59C432.443 195.356 433.379 195.59 434.316 196.056C436.424 197.223 438.063 200.023 438.766 202.589L410.898 186.723Z" fill="white"/>
<path d="M248.609 98.2924C249.077 95.0258 251.185 93.6259 253.995 95.2592C255.166 95.9592 256.337 97.3591 257.273 98.7591C258.444 96.6591 260.552 95.9592 263.128 97.3591C266.172 98.9924 268.748 103.192 269.451 107.159C270.153 106.926 271.09 107.159 272.027 107.626C274.135 108.792 275.774 111.592 276.476 114.159L248.609 98.2924Z" fill="white"/>
<path d="M392.631 162.924C393.1 159.657 395.207 158.257 398.018 159.891C399.189 160.591 400.359 161.99 401.296 163.39C402.467 161.29 404.575 160.59 407.151 161.99C410.195 163.624 412.771 167.824 413.474 171.79C414.176 171.557 415.113 171.79 416.05 172.257C418.157 173.423 419.797 176.223 420.499 178.79L392.631 162.924Z" fill="white"/>
<path d="M430.569 224.522C431.506 220.789 434.784 223.589 437.595 225.222C435.955 220.089 437.126 214.956 441.107 217.756C441.107 215.422 441.81 213.089 443.683 213.789C444.152 213.789 444.386 214.022 444.854 214.489C444.386 212.389 444.62 210.523 445.557 209.356C448.133 206.789 452.114 210.989 453.285 215.889C456.329 215.422 460.545 216.589 462.418 222.189C467.57 221.256 472.722 232.922 470.38 236.655C473.659 239.222 475.532 245.988 472.722 246.922C478.108 254.388 477.874 264.654 472.02 265.121C472.722 272.354 467.336 275.154 462.652 267.921C461.95 268.154 461.481 268.388 460.779 268.388C460.076 272.121 459.374 276.787 459.374 280.521C459.14 287.287 459.374 295.687 459.374 303.62C459.374 310.387 460.31 319.72 460.545 322.286L449.304 315.753C450.006 314.12 451.646 308.987 452.114 303.853C452.582 297.787 452.817 281.221 450.943 276.787C449.07 272.588 443.683 264.421 442.044 258.355C441.342 256.021 440.873 253.688 440.639 251.821C436.19 248.788 431.74 241.322 434.784 235.955C432.208 232.922 429.867 228.022 430.569 224.522ZM444.152 260.221C446.962 265.354 452.348 273.988 452.348 273.988C452.348 273.988 452.348 267.921 452.817 262.788C452.582 262.321 452.582 261.855 452.348 261.621C450.475 261.855 448.367 259.988 446.494 256.955C445.791 256.021 445.089 254.855 444.62 253.688C443.918 253.921 442.981 253.921 442.278 253.455C442.513 255.321 442.981 257.888 444.152 260.221Z" fill="#EFC8C5"/>
<path d="M322.845 151.957C321.908 147.057 318.629 146.124 315.819 144.724C317.458 141.457 316.288 134.924 312.306 133.291C312.306 130.958 311.604 127.924 309.73 126.291C309.262 126.058 309.028 125.825 308.559 125.825C309.028 124.425 308.794 122.091 307.857 119.758C305.281 114.391 301.3 113.925 300.129 117.425C297.084 113.458 292.869 109.725 290.996 113.225C285.844 106.225 280.692 112.058 283.034 118.591C279.755 117.191 277.881 122.091 280.692 126.291C275.305 127.458 275.54 137.958 281.394 145.424C280.692 151.957 286.078 160.824 290.762 159.19C291.464 160.124 291.932 161.057 292.635 161.99C293.338 166.423 294.04 172.023 294.04 175.756C294.274 182.756 294.04 190.923 294.04 198.856C294.04 205.622 293.103 213.789 292.869 216.122L304.11 222.655C303.407 220.322 301.768 213.089 301.3 207.489C300.831 200.722 300.597 183.923 302.471 182.056C304.344 180.19 309.73 177.856 311.37 173.89C312.072 172.257 312.541 170.623 312.775 169.223C317.224 171.323 321.674 168.757 318.629 160.357C321.205 158.724 323.781 156.624 322.845 151.957ZM309.262 172.257C306.452 174.357 301.066 176.456 301.066 176.456C301.066 176.456 301.066 170.39 300.597 164.79C300.831 164.557 300.831 164.323 301.066 164.09C302.939 166.657 305.047 167.123 306.92 166.19C307.623 165.957 308.325 165.723 308.794 165.023C309.496 165.957 310.433 166.89 311.136 167.59C310.901 169.457 310.433 171.323 309.262 172.257Z" fill="#EFC8C5"/>
<path d="M436.189 301.053C435.955 299.887 436.189 298.72 436.892 298.02C438.063 296.853 439.702 297.553 441.107 298.953C441.341 297.32 441.81 295.92 442.98 296.153C443.917 296.387 444.854 297.32 445.791 298.487C445.557 297.087 445.791 295.92 446.493 295.22C447.43 293.82 449.303 294.287 450.943 295.453C452.582 296.62 453.753 298.953 454.455 301.287C454.924 301.52 455.392 301.987 456.095 302.453C457.266 303.153 458.202 303.853 459.139 305.02C460.544 306.887 461.013 308.986 460.778 310.853C462.652 312.02 464.76 313.886 465.696 316.92C466.633 320.42 465.228 321.586 463.354 321.819C463.823 323.219 464.057 324.619 463.589 325.786C462.886 328.586 460.31 327.653 458.202 326.253C456.563 328.353 453.05 326.486 450.709 323.219C448.835 324.153 444.854 321.819 443.215 317.853C441.81 319.253 439.702 318.786 437.594 316.22C435.252 313.42 435.252 310.386 436.189 308.52C435.252 307.587 434.55 305.953 434.316 304.553C433.379 301.753 434.55 300.587 436.189 301.053Z" fill="#F5E2E1"/>
<path d="M286.078 204.923C285.844 203.756 286.078 202.589 286.781 201.889C287.952 200.723 289.591 201.423 290.996 202.823C291.23 201.189 291.698 199.79 292.869 200.023C293.806 200.256 294.743 201.189 295.68 202.356C295.445 200.956 295.679 199.79 296.382 199.09C297.319 197.69 299.192 198.156 300.832 199.323C302.471 200.49 303.642 202.823 304.344 205.156C304.813 205.389 305.281 205.856 305.984 206.323C307.154 207.023 308.091 207.723 309.028 208.889C310.433 210.756 310.901 212.856 310.667 214.722C312.541 215.889 314.648 217.756 315.585 220.789C316.522 224.289 315.117 225.456 313.243 225.689C313.712 227.089 313.946 228.489 313.477 229.655C312.775 232.455 310.199 231.522 308.091 230.122C306.452 232.222 302.939 230.355 300.597 227.089C298.724 228.022 294.743 225.689 293.103 221.722C291.698 223.122 289.591 222.656 287.483 220.089C285.141 217.289 285.141 214.256 286.078 212.389C285.141 211.456 284.439 209.823 284.205 208.423C283.268 205.623 284.673 204.223 286.078 204.923Z" fill="#F5E2E1"/>
<path d="M259.147 203.289C258.912 202.589 259.147 201.656 259.615 201.422C260.318 200.723 261.254 201.189 262.191 202.122C262.191 201.189 262.659 200.256 263.362 200.489C263.83 200.489 264.533 201.189 265.001 201.889C264.767 200.956 265.001 200.256 265.47 199.789C266.172 198.856 267.109 199.089 268.28 200.023C269.217 200.723 270.153 202.122 270.622 203.522C270.856 203.756 271.324 203.989 271.793 204.222C272.495 204.689 272.964 204.922 273.666 205.856C274.603 207.022 274.837 208.422 274.603 209.589C275.774 210.289 277.179 211.456 277.647 213.322C278.35 215.655 277.413 216.355 276.242 216.355C276.476 217.055 276.71 217.989 276.476 218.689C276.008 220.322 274.369 219.855 272.963 218.922C272.027 220.089 269.685 218.922 268.28 217.055C267.109 217.522 264.533 216.122 263.596 213.556C262.659 214.489 261.254 214.255 260.083 212.622C258.678 210.989 258.678 209.122 259.147 207.722C258.678 207.022 258.21 206.089 257.976 205.389C257.507 203.756 258.21 202.822 259.147 203.289Z" fill="#F5E2E1"/>
<path d="M425.417 274.221C425.183 273.521 425.417 272.587 425.886 272.354C426.588 271.654 427.525 272.121 428.462 273.054C428.462 272.121 428.93 271.187 429.633 271.421C430.101 271.421 430.803 272.121 431.272 272.821C431.038 271.887 431.272 271.187 431.74 270.721C432.443 269.787 433.379 270.021 434.55 270.954C435.487 271.654 436.424 273.054 436.892 274.454C437.126 274.687 437.595 274.921 438.063 275.154C438.766 275.621 439.234 275.854 439.937 276.787C440.873 277.954 441.107 279.354 440.873 280.52C442.044 281.22 443.449 282.387 443.918 284.254C444.62 286.587 443.684 287.287 442.513 287.287C442.747 287.987 442.981 288.92 442.747 289.62C442.278 291.254 440.639 290.787 439.234 289.854C438.297 291.02 435.955 289.854 434.55 287.987C433.379 288.454 430.803 287.054 429.867 284.487C428.93 285.42 427.525 285.187 426.354 283.554C424.949 281.92 424.949 280.054 425.417 278.654C424.949 277.954 424.48 277.021 424.246 276.321C423.544 274.454 424.246 273.754 425.417 274.221Z" fill="#F5E2E1"/>
<path d="M249.545 173.424C249.311 172.49 249.545 171.557 250.014 171.09C250.95 170.157 252.121 170.857 253.292 172.024C253.526 170.857 253.761 169.69 254.932 169.69C255.634 169.69 256.571 170.624 257.039 171.557C256.805 170.39 257.039 169.457 257.508 168.757C258.21 167.824 259.615 167.824 261.02 168.99C262.191 169.924 263.362 171.79 263.831 173.657C264.299 173.89 264.533 174.124 265.236 174.59C266.172 175.057 266.875 175.523 267.577 176.69C268.514 178.323 268.983 179.957 268.983 181.357C270.622 182.29 272.261 183.69 272.964 186.257C273.666 189.056 272.495 189.99 271.09 190.223C271.559 191.156 271.559 192.323 271.324 193.256C270.622 195.356 268.748 194.89 266.875 193.49C265.47 195.123 262.66 193.723 261.02 191.156C259.615 191.856 256.337 189.99 255.166 186.723C253.995 187.89 252.356 187.423 250.482 185.557C248.609 183.223 248.609 180.89 249.311 179.257C248.609 178.557 247.906 177.157 247.672 176.223C247.438 173.89 248.374 172.957 249.545 173.424Z" fill="#F5E2E1"/>
<path d="M472.956 303.153C472.722 302.22 472.956 301.287 473.425 300.82C474.361 299.887 475.532 300.587 476.703 301.753C476.937 300.587 477.172 299.42 478.342 299.42C479.045 299.42 479.982 300.353 480.45 301.287C480.216 300.12 480.45 299.187 480.918 298.487C481.621 297.553 483.026 297.553 484.431 298.72C485.602 299.653 486.773 301.52 487.241 303.387C487.71 303.62 487.944 303.853 488.647 304.32C489.583 304.787 490.286 305.253 490.988 306.42C491.925 308.053 492.393 309.686 492.393 311.086C494.033 312.02 495.672 313.42 496.375 315.986C497.077 318.786 495.906 319.719 494.501 319.953C494.969 320.886 494.969 322.053 494.735 322.986C494.033 325.086 492.159 324.619 490.286 323.219C488.881 324.853 486.071 323.453 484.431 320.886C483.026 321.586 479.748 319.719 478.577 316.453C477.406 317.62 475.766 317.153 473.893 315.286C472.02 312.953 472.02 310.62 472.722 308.986C472.02 308.286 471.317 306.886 471.083 305.953C470.849 303.62 471.785 302.687 472.956 303.153Z" fill="#F5E2E1"/>
<path d="M370.618 238.522L375.536 226.156L377.644 227.322L375.302 241.089C373.897 240.389 372.257 239.455 370.618 238.522Z" fill="white"/>
<path d="M364.295 253.922L369.447 241.089C371.087 242.022 372.96 242.955 374.833 243.889L372.257 258.355C369.681 256.955 367.105 255.322 364.295 253.922Z" fill="white"/>
<path d="M357.27 270.954L363.358 256.255C366.169 257.888 368.979 259.521 371.789 261.155L368.276 277.721C364.764 275.388 361.017 273.054 357.27 270.954Z" fill="white"/>
<path d="M367.808 281.687L364.764 295.92L350.244 287.52L355.865 274.221C359.846 276.554 363.827 279.121 367.808 281.687Z" fill="white"/>
<path d="M520.964 163.391L514.641 167.124L232.216 4.7281L238.539 0.994873L520.964 163.391Z" fill="#826F8C"/>
<path d="M230.103 241.379C236.186 241.379 240.916 244.41 240.916 247.776C240.916 251.48 236.186 254.173 230.103 254.173C224.021 254.173 219.29 251.143 219.29 247.776C219.29 244.41 224.359 241.379 230.103 241.379Z" fill="#002F68"/>
<path d="M230.441 241.379C234.834 241.379 238.551 243.399 238.551 245.756C238.551 248.113 234.834 250.133 230.441 250.133C226.048 250.133 222.331 248.113 222.331 245.756C222.331 243.399 226.048 241.379 230.441 241.379Z" fill="#DF8083"/>
<path d="M230.103 252.49C230.103 252.49 228.076 258.214 228.076 265.284C227.738 272.354 228.414 283.801 224.021 288.851C219.628 294.238 215.573 287.505 215.573 280.098C215.235 272.691 219.628 248.113 219.628 248.113L230.103 252.49Z" fill="#002F68"/>
<path d="M229.09 265.284C229.09 265.284 227.738 263.601 225.711 264.274C224.359 264.611 221.656 266.294 220.642 266.294C219.628 266.294 217.263 264.274 217.263 264.274L218.277 258.214C218.277 258.214 212.194 260.571 211.18 265.958C209.829 271.344 207.463 272.354 202.057 274.375C196.65 276.395 190.906 280.098 190.906 280.098L199.353 293.565C199.353 293.565 212.87 281.445 214.222 280.098C215.573 278.751 220.304 274.038 221.318 273.028C221.994 272.018 224.697 269.324 225.711 268.651C226.387 267.304 229.09 265.284 229.09 265.284Z" fill="#FFC5B3"/>
<path d="M227.738 474.362C227.738 474.362 211.18 505.336 207.463 518.467C205.436 525.537 200.705 551.798 200.705 551.798C200.705 551.798 203.746 547.758 208.477 546.411C211.518 545.738 215.911 545.065 218.614 548.768C223.345 554.828 224.021 559.205 216.587 565.939C213.546 568.969 207.801 573.683 203.07 578.059C197.326 583.11 190.567 588.16 184.823 587.823C178.74 587.486 174.685 584.456 175.023 577.386C175.361 573.346 178.402 566.949 178.402 564.592C179.078 558.195 180.43 518.467 183.133 493.889C184.485 481.432 187.864 474.362 187.864 474.362H227.738Z" fill="#FFC5B3"/>
<path d="M158.466 435.307C158.466 435.307 141.908 466.282 138.191 479.412C136.163 486.483 129.067 516.11 129.067 516.11C129.067 516.11 138.528 508.367 147.652 511.734C156.1 514.764 151.707 520.824 144.611 527.221C141.57 530.251 137.177 533.281 132.446 537.321C126.701 542.372 125.012 544.055 121.633 545.065C115.888 546.748 108.792 546.075 109.13 539.005C109.468 534.965 109.806 527.894 110.144 525.538C110.819 519.141 112.171 479.412 114.874 454.835C116.226 442.378 119.605 435.307 119.605 435.307H158.466Z" fill="#FFC5B3"/>
<path d="M188.202 399.956C188.202 399.956 212.87 434.297 220.304 448.774C222.669 453.488 229.09 463.925 229.09 468.975C229.09 474.699 227.062 481.432 227.062 481.432C227.062 481.432 212.194 493.553 200.029 491.533C185.836 489.176 181.443 481.096 181.443 481.096C181.443 481.096 161.506 456.855 153.059 448.774C144.611 440.694 130.418 423.86 125.687 411.74C121.97 402.649 119.267 379.418 125.687 372.011C132.108 364.604 188.202 399.956 188.202 399.956Z" fill="url(#paint2_linear_42_3521)"/>
<path d="M157.451 383.459L155.762 432.951C155.762 432.951 154.072 450.795 153.059 457.528C147.314 463.252 140.894 465.945 134.811 465.272C121.632 463.252 112.171 454.498 112.171 454.498C112.171 454.498 98.6541 402.986 101.357 391.539C104.061 380.092 113.185 367.298 113.185 367.298L157.451 383.459Z" fill="url(#paint3_linear_42_3521)"/>
<path d="M184.485 272.354C184.485 272.354 196.988 275.721 201.043 283.464C205.773 292.218 210.504 307.032 206.111 321.846C201.718 336.66 191.243 361.574 189.215 366.288C187.526 371.001 195.298 379.082 193.608 382.448C191.581 385.815 187.526 390.192 189.891 391.539C192.257 392.886 193.608 400.293 193.608 400.293C193.608 400.293 161.506 414.77 140.893 406.689C120.619 398.609 103.723 382.112 103.723 382.112C103.723 382.112 106.088 372.348 110.143 366.961C114.198 361.574 110.819 352.147 114.536 349.454C118.253 346.76 125.349 345.414 124.674 341.037C123.998 336.66 120.956 294.238 131.094 280.771C141.231 267.304 159.817 265.62 159.817 265.62L184.485 272.354Z" fill="#446381"/>
<path d="M167.927 206.364C156.438 208.048 147.652 214.108 147.652 221.178C147.652 221.515 147.652 221.515 147.652 221.852C147.652 223.198 148.328 224.545 149.004 225.892C150.017 224.208 151.369 222.525 153.397 221.178C157.114 218.485 162.182 216.465 167.927 215.455V206.364Z" fill="#0E58C4"/>
<path d="M167.927 206.701C156.438 208.385 147.99 214.445 147.99 221.515C147.99 221.852 147.99 221.852 147.99 222.189C147.99 223.535 148.666 224.882 149.341 226.229C150.355 224.545 151.707 222.862 153.734 221.515C157.114 218.822 162.182 216.802 167.927 216.128V206.701Z" fill="#37A0F5"/>
<path d="M186.174 211.415L216.587 228.922C218.276 229.932 219.966 228.922 219.966 226.566V214.445C219.966 212.088 218.614 209.395 216.587 208.385L186.174 190.878C184.485 189.868 182.795 190.878 182.795 193.234V205.355C183.133 207.712 184.485 210.405 186.174 211.415Z" fill="#786D8A"/>
<path d="M215.235 230.942L218.614 228.922L217.6 226.566L213.545 228.249C213.545 228.586 215.235 230.942 215.235 230.942Z" fill="#7A6D8B"/>
<path d="M180.768 192.561L184.147 190.541L185.498 191.888L182.457 194.918L180.768 192.561Z" fill="#806E8B"/>
<path d="M182.795 213.435L213.208 230.942C214.897 231.952 216.587 230.942 216.587 228.586V216.465C216.587 214.108 215.235 211.415 213.208 210.405L182.795 192.897C181.106 191.887 179.416 192.897 179.416 195.254V207.375C179.754 209.731 181.106 212.425 182.795 213.435Z" fill="url(#paint4_linear_42_3521)"/>
<path d="M180.768 192.561L168.941 199.294L203.408 237.676L215.235 230.942L180.768 192.561Z" fill="#A676D4"/>
<path d="M213.208 229.933L208.477 232.626C207.463 232.963 206.787 232.626 206.787 231.28V225.219C206.787 224.209 207.463 222.526 208.477 222.189L213.208 219.496C214.221 219.159 214.897 219.496 214.897 220.843V226.903C214.897 228.25 214.221 229.596 213.208 229.933Z" fill="#41A0E2"/>
<path d="M214.221 219.496L213.883 219.159L213.545 219.496L214.221 219.834V219.496Z" fill="#41A0E2"/>
<path d="M207.125 232.627H207.801L207.125 232.289V232.627Z" fill="#41A0E2"/>
<path d="M212.869 229.933L208.139 232.626C207.125 232.963 206.449 232.626 206.449 231.28V225.219C206.449 224.209 207.125 222.526 208.139 222.189L212.869 219.496C213.883 219.159 214.559 219.496 214.559 220.843V226.903C214.559 227.913 213.883 229.26 212.869 229.933Z" fill="white"/>
<path d="M212.532 224.883C212.532 226.229 211.518 227.913 210.504 228.586C209.491 229.259 208.477 228.586 208.477 227.239C208.477 225.893 209.491 224.209 210.504 223.536C211.856 222.526 212.532 223.199 212.532 224.883Z" fill="#786D8A"/>
<path d="M171.306 220.169L201.719 237.676C203.408 238.686 205.098 237.676 205.098 235.319V223.199C205.098 220.842 203.746 218.149 201.719 217.138L171.306 199.631C169.617 198.621 167.927 199.631 167.927 201.988V214.108C167.927 216.465 169.279 219.159 171.306 220.169Z" fill="#002F68"/>
<path d="M198.339 240.706L203.746 237.676C203.746 237.676 201.718 234.309 201.381 234.309L196.988 235.319L198.339 240.706Z" fill="#002F68"/>
<path d="M163.872 201.988L168.941 199.295L170.968 201.315L168.603 204.682L163.872 201.988Z" fill="#002F68"/>
<path d="M167.927 214.108V203.671C166.913 203.335 165.899 203.335 165.224 203.335C164.21 203.335 163.534 204.345 163.534 206.028V217.475C163.534 219.495 164.21 221.515 165.9 222.862C166.237 222.862 166.913 223.535 167.589 223.535C169.954 224.545 176.375 226.902 181.444 229.932C184.823 231.952 191.919 237.339 195.636 240.033C196.988 241.043 198.339 240.033 198.339 238.013V236.666L170.968 220.842C169.279 219.159 167.927 216.465 167.927 214.108Z" fill="#002F68"/>
<path d="M196.312 221.179C194.285 218.485 189.216 213.098 181.782 209.058C177.051 206.365 171.307 204.681 167.927 203.671V214.108C167.927 216.465 169.279 219.158 171.307 220.169L198.678 235.992V226.229C198.678 223.872 197.326 222.525 196.312 221.179Z" fill="#002F68"/>
<path d="M176.375 209.732C176.375 209.059 176.375 208.385 176.713 208.049C174.347 207.038 172.658 208.722 172.658 211.752C172.658 215.119 174.685 219.159 177.388 220.506C179.416 221.852 181.105 220.842 181.781 218.822C181.443 218.822 181.443 218.486 181.105 218.486C178.402 217.139 176.375 213.099 176.375 209.732Z" fill="#002F68"/>
<path d="M177.05 208.048C176.712 208.048 176.712 207.711 176.374 207.711C176.374 208.385 176.037 208.721 176.037 209.395C176.037 212.762 178.064 216.802 180.767 218.149C181.105 218.149 181.105 218.485 181.443 218.485C181.443 217.812 181.781 217.475 181.781 216.802C181.781 213.435 179.754 209.395 177.05 208.048Z" fill="#41A0E2"/>
<path d="M190.567 217.812C190.567 217.139 190.567 216.466 190.905 216.129C188.54 215.119 186.85 216.802 186.85 219.833C186.85 223.199 188.878 227.24 191.581 228.586C193.609 229.933 195.298 228.923 195.974 226.903C195.636 226.903 195.636 226.566 195.298 226.566C192.595 225.219 190.567 221.179 190.567 217.812Z" fill="#002F68"/>
<path d="M191.243 216.129C190.905 216.129 190.905 215.792 190.567 215.792C190.567 216.465 190.229 216.802 190.229 217.476C190.229 220.842 192.257 224.882 194.96 226.229C195.298 226.229 195.298 226.566 195.636 226.566C195.636 225.893 195.974 225.556 195.974 224.882C195.974 221.852 193.947 217.812 191.243 216.129Z" fill="#41A0E2"/>
<path d="M193.271 211.078L182.12 204.345L183.471 203.671L194.622 210.068L193.271 211.078Z" fill="#002F68"/>
<path d="M184.485 209.394C178.064 204.681 165.224 206.364 159.817 217.811C156.776 224.208 161.169 241.379 161.844 253.5C162.52 263.263 159.141 268.987 159.141 268.987C159.141 268.987 159.141 268.987 167.589 272.354C176.037 275.721 184.823 272.354 184.823 272.354L184.485 257.54C184.485 257.54 193.609 256.193 194.96 254.846C198.677 251.479 200.705 241.042 199.015 227.575C196.312 207.711 186.85 211.078 184.485 209.394Z" fill="#FFC5B3"/>
<path d="M228.752 258.55C228.752 258.55 229.428 259.223 230.103 260.233C230.779 261.243 230.441 262.253 229.765 262.253C229.428 262.59 229.09 262.59 229.09 262.59C229.09 262.59 229.765 263.937 230.441 264.947C230.779 265.957 229.427 266.63 229.09 266.63C228.752 266.63 230.103 267.64 230.103 268.65C230.103 269.66 228.076 269.324 228.076 269.324C228.076 269.324 227.4 261.243 228.752 258.55Z" fill="#FFC5B3"/>
<path d="M267.612 261.917C273.694 261.917 278.425 264.947 278.425 268.314C278.425 272.017 273.694 274.711 267.612 274.711C261.529 274.711 256.799 271.681 256.799 268.314C256.799 264.61 261.529 261.917 267.612 261.917Z" fill="#002F68"/>
<path d="M267.949 261.917C272.342 261.917 276.059 263.937 276.059 266.294C276.059 268.65 272.342 270.671 267.949 270.671C263.557 270.671 259.839 268.65 259.839 266.294C259.839 263.6 263.557 261.917 267.949 261.917Z" fill="#DD8084"/>
<path d="M267.611 272.691C267.611 272.691 265.584 278.414 265.584 285.485C265.246 292.555 265.922 304.002 261.529 309.052C257.136 314.439 253.081 307.706 253.081 300.299C252.743 292.892 257.136 268.314 257.136 268.314L267.611 272.691Z" fill="#002F68"/>
<path d="M195.298 279.761C202.394 280.434 216.249 307.705 222.669 321.173C227.4 316.796 236.862 308.715 247.675 301.645C250.716 299.625 248.351 286.495 254.433 282.791C254.771 286.495 258.15 286.495 260.178 286.158C264.233 285.821 265.585 284.811 265.585 282.118C266.598 281.781 267.95 281.781 269.302 283.128C270.653 282.791 273.357 284.811 272.681 286.831C275.384 288.851 274.708 293.902 273.019 296.258C269.302 301.308 261.867 306.695 257.475 312.419C253.42 317.806 232.469 345.75 217.938 350.127C216.925 349.79 212.87 349.79 210.166 347.097C200.705 337.67 186.512 313.766 185.836 299.625C185.161 288.178 190.229 279.088 195.298 279.761Z" fill="#FFC5B3"/>
<path d="M192.595 232.963C193.608 229.596 195.974 221.852 196.312 218.822C196.987 215.119 197.325 209.732 192.257 204.682C187.188 199.631 169.954 197.948 163.872 201.315C157.789 205.018 144.273 211.415 149.003 232.963C152.721 250.133 156.438 252.153 161.506 256.194C166.237 259.897 174.009 260.57 174.009 260.57C174.009 260.57 178.402 257.204 179.416 250.807C179.754 248.787 179.416 242.39 179.416 242.39C179.416 242.39 174.685 233.299 178.402 230.269C182.119 226.902 186.174 232.289 186.85 234.646C189.891 242.39 188.54 256.867 188.54 256.867C188.54 256.867 193.27 259.897 197.663 258.55C200.029 257.877 198.001 248.113 198.001 248.113C198.001 248.113 193.27 245.756 192.595 232.963Z" fill="#002F68"/>
<path d="M202.732 224.882L200.704 225.892V238.013L202.732 237.003V224.882Z" fill="#EB8382"/>
<path d="M200.705 225.892L200.367 225.556V237.34L200.705 238.013V225.892Z" fill="#C37A87"/>
<path d="M200.367 225.556L200.705 225.893L202.732 224.883L202.056 224.546L200.367 225.556Z" fill="white"/>
<path d="M201.719 226.229C200.705 226.902 198.678 228.922 198.002 229.596C193.271 233.636 184.823 236.329 175.699 236.329C166.238 236.329 158.128 233.636 153.397 229.596C152.045 228.249 150.694 226.902 150.018 225.555C149.342 224.209 149.004 221.852 148.666 220.505L148.328 222.862L148.666 229.596C148.666 229.932 148.666 229.932 148.666 230.269C148.666 238.686 160.831 245.42 175.699 245.42C186.513 245.42 195.974 241.716 200.367 236.666L202.395 226.229H201.719Z" fill="#C37A87"/>
<path d="M202.056 226.229C201.381 226.902 199.015 229.259 198.001 229.932C192.933 233.972 184.823 236.666 175.023 236.666C165.562 236.666 157.114 233.972 152.045 229.932C150.355 228.585 149.342 227.239 148.328 225.892C147.652 224.545 147.314 223.199 146.976 221.852V229.932C146.976 230.269 146.976 230.269 146.976 230.605C146.976 239.022 159.479 246.093 174.685 246.093C184.147 246.093 192.595 243.399 197.664 239.359C198.339 238.686 200.705 236.666 201.381 235.992V226.229H202.056Z" fill="url(#paint5_linear_42_3521)"/>
<path d="M179.078 197.275C175.699 194.918 171.306 194.918 166.575 197.949C158.803 202.325 150.693 214.109 149.003 226.566C150.693 231.28 156.775 233.3 157.789 232.627C159.141 220.506 166.237 209.059 175.023 203.672C175.023 203.672 175.361 203.672 175.361 203.335C177.726 201.989 180.092 201.315 182.119 201.315C183.133 201.315 184.147 201.315 184.822 201.315C185.836 201.315 186.512 201.652 186.512 201.652L179.078 197.275Z" fill="#C37A87"/>
<path d="M179.416 196.937C175.361 194.917 171.306 194.581 166.237 197.274C158.465 201.651 150.355 213.435 148.666 225.892C150.017 230.942 155.762 232.626 157.114 233.299C158.803 220.168 166.237 208.385 175.023 202.998C175.023 202.998 175.361 202.998 175.361 202.661C177.726 201.314 180.092 200.641 182.119 200.641C183.809 200.641 185.499 200.978 186.85 201.651L179.416 196.937Z" fill="url(#paint6_linear_42_3521)"/>
<path d="M162.52 415.443C163.872 418.81 166.237 425.88 168.603 428.91C171.982 433.287 163.872 434.297 158.465 435.307C152.721 435.98 143.259 429.247 139.88 423.523C136.838 417.8 135.825 409.383 135.825 409.046C144.273 414.433 152.721 417.8 162.52 415.443Z" fill="url(#paint7_linear_42_3521)"/>
<path d="M121.97 407.026C122.308 409.046 122.984 412.749 123.998 416.453C125.687 422.176 122.308 426.553 117.239 422.513C112.171 418.81 107.102 412.413 105.75 407.026C104.736 403.322 104.061 396.252 103.723 393.559C108.454 399.282 114.536 403.659 121.97 407.026Z" fill="url(#paint8_linear_42_3521)"/>
<defs>
<linearGradient id="paint0_linear_42_3521" x1="278.392" y1="581.64" x2="278.392" y2="16.8518" gradientUnits="userSpaceOnUse">
<stop stop-color="#EB8382"/>
<stop offset="1" stop-color="#EB8382" stop-opacity="0"/>
</linearGradient>
<linearGradient id="paint1_linear_42_3521" x1="340.602" y1="359.811" x2="198.641" y2="606.599" gradientUnits="userSpaceOnUse">
<stop stop-color="#DFB8BF"/>
<stop offset="0.9617" stop-color="#EB8382"/>
</linearGradient>
<linearGradient id="paint2_linear_42_3521" x1="133.739" y1="397.561" x2="205.365" y2="400.68" gradientUnits="userSpaceOnUse">
<stop stop-color="#4499D9"/>
<stop offset="1" stop-color="#6E6CC1"/>
</linearGradient>
<linearGradient id="paint3_linear_42_3521" x1="107.272" y1="388.875" x2="145.008" y2="389.94" gradientUnits="userSpaceOnUse">
<stop stop-color="#4499D9"/>
<stop offset="1" stop-color="#6E6CC1"/>
</linearGradient>
<linearGradient id="paint4_linear_42_3521" x1="198.002" y1="192.507" x2="198.002" y2="231.332" gradientUnits="userSpaceOnUse">
<stop stop-color="#6379E3"/>
<stop offset="1" stop-color="#D574C9"/>
</linearGradient>
<linearGradient id="paint5_linear_42_3521" x1="174.516" y1="221.852" x2="174.516" y2="246.093" gradientUnits="userSpaceOnUse">
<stop stop-color="#EB8382"/>
<stop offset="1" stop-color="#EB8382" stop-opacity="0"/>
</linearGradient>
<linearGradient id="paint6_linear_42_3521" x1="167.758" y1="195.338" x2="167.758" y2="233.299" gradientUnits="userSpaceOnUse">
<stop stop-color="#EB8382"/>
<stop offset="1" stop-color="#EB8382" stop-opacity="0"/>
</linearGradient>
<linearGradient id="paint7_linear_42_3521" x1="139.555" y1="414.834" x2="161.93" y2="416.234" gradientUnits="userSpaceOnUse">
<stop stop-color="#4499D9"/>
<stop offset="1" stop-color="#6E6CC1"/>
</linearGradient>
<linearGradient id="paint8_linear_42_3521" x1="106.024" y1="400.274" x2="119.867" y2="400.735" gradientUnits="userSpaceOnUse">
<stop stop-color="#4499D9"/>
<stop offset="1" stop-color="#6E6CC1"/>
</linearGradient>
</defs>
</svg>
