<svg width="252" height="135" viewBox="0 0 252 135" fill="none" xmlns="http://www.w3.org/2000/svg">
<g filter="url(#filter0_d_39_2328)">
<rect opacity="0.4" x="19.9998" y="10" width="211.488" height="95" rx="10" fill="white"/>
<path d="M168.184 42.7387L152.67 41.6035C179.86 34.8463 199.375 32.4138 205.916 33.1165C212.457 33.8193 219.7 37.8735 220.241 45.4415C220.782 53.0095 220.619 57.8747 220.619 57.8747C219.214 63.5507 204.673 70.0916 204.673 70.0916C204.673 70.0916 200.564 63.1723 200.456 58.9558C200.348 54.7394 201.159 51.7662 201.159 51.7662C204.186 50.5229 210.457 48.7931 212.078 45.3875C216.511 36.0897 194.402 38.7385 190.834 39.1169C183.266 39.9277 175.644 41.0629 168.184 42.7387Z" fill="url(#paint0_linear_39_2328)"/>
<path d="M136.669 52.1452C137.642 49.2802 139.318 46.5773 142.021 45.4421C142.021 45.4421 142.075 45.4421 142.075 45.3881L155.157 39.6039C155.967 39.1715 156.886 38.9012 157.859 38.7931C164.4 38.1985 171.536 39.8202 178.293 40.9013C178.509 40.9554 178.726 40.9554 178.942 41.0094C179.158 41.0635 179.374 41.1176 179.59 41.1716C186.402 42.6852 193.483 43.8204 200.132 46.9557C204.132 48.8477 206.619 53.1182 207.97 57.1185C210.187 63.8756 209.106 71.4436 204.295 74.4708H204.24C203.592 74.8492 202.943 75.1735 202.186 75.3898L189.969 81.0117C188.294 81.8766 186.294 82.2009 183.861 81.8766C176.185 80.8495 165.914 78.7413 165.914 78.7413C165.914 78.7413 155.697 76.9033 147.967 75.0113C137.588 72.3625 133.966 60.2538 136.669 52.1452Z" fill="url(#paint1_linear_39_2328)"/>
<path d="M136.669 52.1444C137.858 48.6307 140.182 45.2791 144.183 44.9008C150.724 44.3061 157.859 45.9278 164.616 47.009C164.833 47.063 165.049 47.063 165.265 47.1171C165.481 47.1712 165.697 47.2252 165.914 47.2793C172.725 48.7929 179.806 49.9281 186.455 53.0634C190.456 54.9554 192.942 59.2259 194.294 63.2261C197.321 72.4158 194.186 83.2272 183.807 81.8218C176.13 80.7947 165.86 78.6864 165.86 78.6864C165.86 78.6864 155.643 76.8485 147.913 74.9565C137.588 72.3618 133.966 60.253 136.669 52.1444Z" fill="url(#paint2_linear_39_2328)"/>
<path d="M139.101 53.4422C140.182 50.3069 142.29 47.3337 145.912 47.0094C151.858 46.5229 158.345 47.9283 164.508 48.9014C164.724 48.9554 164.886 48.9554 165.102 49.0095C165.319 49.0636 165.481 49.1176 165.697 49.1176C171.86 50.469 178.346 51.4961 184.347 54.253C188.023 55.9288 190.239 59.7128 191.482 63.2806C194.239 71.4432 191.374 81.0113 181.968 79.822C174.995 78.9031 165.697 77.0111 165.697 77.0111C165.697 77.0111 156.399 75.3893 149.372 73.6595C139.912 71.3351 136.668 60.6318 139.101 53.4422Z" fill="url(#paint3_linear_39_2328)"/>
<path d="M166.346 44.3067L171.968 42.4147C172.184 42.3607 172.454 42.3066 172.724 42.4147L183.049 44.6851C183.428 44.7392 183.59 45.2257 183.266 45.3338L177.644 47.2258C177.427 47.2799 177.157 47.3339 176.887 47.2258L166.562 44.9554C166.238 44.9013 166.021 44.4148 166.346 44.3067Z" fill="url(#paint4_linear_39_2328)"/>
<path d="M164.508 48.9009C164.725 48.9549 164.887 48.9549 165.103 49.009C165.319 49.063 165.481 49.1171 165.698 49.1171L177.915 79.2269C172.617 78.4161 167.211 77.3349 165.914 77.0646L153.751 47.2251C157.373 47.6576 160.995 48.3603 164.508 48.9009Z" fill="url(#paint5_linear_39_2328)"/>
<path d="M177.104 51.6581L188.131 78.6866C186.51 79.6596 184.509 80.1462 181.969 79.8218C181.807 79.8218 181.59 79.7678 181.374 79.7678L169.211 49.9282C171.86 50.4147 174.509 50.9553 177.104 51.6581Z" fill="url(#paint6_linear_39_2328)"/>
<path d="M40.9307 31.7013C40.6774 31.568 40.4041 31.4546 40.1107 31.3613C39.8174 31.268 39.5341 31.2213 39.2607 31.2213C38.8874 31.2213 38.5907 31.308 38.3707 31.4813C38.1507 31.648 38.0407 31.878 38.0407 32.1713C38.0407 32.378 38.1141 32.558 38.2607 32.7113C38.4074 32.8646 38.5974 32.998 38.8307 33.1113C39.0641 33.2246 39.3107 33.3313 39.5707 33.4313C39.7907 33.5113 40.0074 33.608 40.2207 33.7213C40.4407 33.828 40.6374 33.9613 40.8107 34.1213C40.9907 34.2813 41.1307 34.4813 41.2307 34.7213C41.3374 34.9546 41.3907 35.2413 41.3907 35.5813C41.3907 35.968 41.2941 36.318 41.1007 36.6313C40.9141 36.9446 40.6407 37.1946 40.2807 37.3813C39.9274 37.5613 39.4974 37.6513 38.9907 37.6513C38.6841 37.6513 38.3841 37.618 38.0907 37.5513C37.8041 37.478 37.5307 37.3846 37.2707 37.2713C37.0174 37.1513 36.7874 37.0213 36.5807 36.8813L37.0607 36.0513C37.2207 36.1646 37.4041 36.2746 37.6107 36.3813C37.8174 36.4813 38.0307 36.5613 38.2507 36.6213C38.4774 36.6813 38.6907 36.7113 38.8907 36.7113C39.1107 36.7113 39.3274 36.6746 39.5407 36.6013C39.7541 36.5213 39.9307 36.4013 40.0707 36.2413C40.2107 36.0746 40.2807 35.858 40.2807 35.5913C40.2807 35.3646 40.2174 35.1746 40.0907 35.0213C39.9707 34.8613 39.8074 34.7246 39.6007 34.6113C39.4007 34.498 39.1841 34.398 38.9507 34.3113C38.7241 34.2246 38.4941 34.128 38.2607 34.0213C38.0274 33.9146 37.8107 33.788 37.6107 33.6413C37.4107 33.488 37.2474 33.3013 37.1207 33.0813C37.0007 32.8546 36.9407 32.578 36.9407 32.2513C36.9407 31.8646 37.0307 31.528 37.2107 31.2413C37.3974 30.948 37.6541 30.718 37.9807 30.5513C38.3074 30.3846 38.6841 30.2913 39.1107 30.2713C39.5974 30.2713 40.0207 30.3313 40.3807 30.4513C40.7407 30.5713 41.0607 30.7146 41.3407 30.8813L40.9307 31.7013ZM42.381 35.4313C42.381 35.0113 42.481 34.6346 42.681 34.3013C42.881 33.9613 43.1577 33.6946 43.511 33.5013C43.8644 33.308 44.2677 33.2113 44.721 33.2113C45.181 33.2113 45.5844 33.308 45.9311 33.5013C46.2777 33.6946 46.5444 33.9613 46.731 34.3013C46.9244 34.6346 47.0211 35.0113 47.0211 35.4313C47.0211 35.8513 46.9244 36.2313 46.731 36.5713C46.5444 36.9113 46.2777 37.1813 45.9311 37.3813C45.5844 37.5746 45.1777 37.6713 44.7111 37.6713C44.2644 37.6713 43.8644 37.5813 43.511 37.4013C43.1644 37.2213 42.8877 36.9646 42.681 36.6313C42.481 36.2913 42.381 35.8913 42.381 35.4313ZM43.421 35.4413C43.421 35.7013 43.4777 35.938 43.591 36.1513C43.7044 36.358 43.8577 36.5246 44.051 36.6513C44.2444 36.7713 44.461 36.8313 44.701 36.8313C44.9477 36.8313 45.1677 36.7713 45.3611 36.6513C45.5544 36.5246 45.7044 36.358 45.811 36.1513C45.9244 35.938 45.9811 35.7013 45.9811 35.4413C45.9811 35.1813 45.9244 34.948 45.811 34.7413C45.7044 34.5346 45.5544 34.368 45.3611 34.2413C45.1677 34.1146 44.9477 34.0513 44.701 34.0513C44.4544 34.0513 44.2344 34.1146 44.041 34.2413C43.8477 34.368 43.6944 34.538 43.581 34.7513C43.4744 34.958 43.421 35.188 43.421 35.4413ZM49.1591 33.3813L49.2491 34.3413L49.2091 34.2113C49.3491 33.9113 49.5658 33.6713 49.8591 33.4913C50.1524 33.3046 50.4991 33.2113 50.8991 33.2113C51.2924 33.2113 51.6158 33.328 51.8691 33.5613C52.1291 33.7946 52.2624 34.098 52.2691 34.4713V37.5713H51.2391V34.8313C51.2324 34.618 51.1691 34.4446 51.0491 34.3113C50.9291 34.1713 50.7424 34.098 50.4891 34.0913C50.2624 34.0913 50.0558 34.1613 49.8691 34.3013C49.6824 34.4346 49.5358 34.618 49.4291 34.8513C49.3224 35.0846 49.2691 35.3546 49.2691 35.6613V37.5713H48.2391V33.3813H49.1591ZM54.0383 39.5813L56.8083 33.3813H57.7483L55.0483 39.5813H54.0383ZM55.0983 37.6013L53.0683 33.3813H54.2283L55.8883 37.0813L55.0983 37.6013ZM62.1214 37.5713V30.3113H64.1414C64.8614 30.3113 65.4748 30.4213 65.9814 30.6413C66.4881 30.8613 66.8948 31.1513 67.2014 31.5113C67.5148 31.8713 67.7414 32.2713 67.8814 32.7113C68.0281 33.1513 68.1014 33.5946 68.1014 34.0413C68.1014 34.5813 68.0048 35.068 67.8114 35.5013C67.6181 35.9346 67.3548 36.308 67.0214 36.6213C66.6881 36.928 66.3048 37.1646 65.8714 37.3313C65.4381 37.4913 64.9781 37.5713 64.4914 37.5713H62.1214ZM63.1914 36.5413H64.2914C64.6848 36.5413 65.0448 36.4846 65.3714 36.3713C65.7048 36.258 65.9914 36.0913 66.2314 35.8713C66.4781 35.6513 66.6681 35.3813 66.8014 35.0613C66.9348 34.7413 67.0014 34.3746 67.0014 33.9613C67.0014 33.5146 66.9248 33.128 66.7714 32.8013C66.6248 32.468 66.4281 32.1946 66.1814 31.9813C65.9348 31.7613 65.6581 31.6013 65.3514 31.5013C65.0514 31.3946 64.7448 31.3413 64.4314 31.3413H63.1914V36.5413ZM70.7998 37.7413C70.4131 37.7413 70.0965 37.6246 69.8498 37.3913C69.6031 37.158 69.4731 36.858 69.4598 36.4913V33.3813H70.4898V36.1213C70.5031 36.3346 70.5631 36.5113 70.6698 36.6513C70.7831 36.7846 70.9631 36.8546 71.2098 36.8613C71.4365 36.8613 71.6365 36.7946 71.8098 36.6613C71.9898 36.5213 72.1298 36.3346 72.2298 36.1013C72.3365 35.8613 72.3898 35.588 72.3898 35.2813V33.3813H73.4198V37.5713H72.4898L72.4098 36.6013L72.4498 36.7613C72.3631 36.948 72.2398 37.118 72.0798 37.2713C71.9198 37.418 71.7298 37.5313 71.5098 37.6113C71.2898 37.698 71.0531 37.7413 70.7998 37.7413ZM76.7469 37.6713C76.3536 37.6713 75.9969 37.5913 75.6769 37.4313C75.3569 37.2646 75.1036 37.018 74.9169 36.6913C74.7302 36.3646 74.6369 35.9613 74.6369 35.4813C74.6369 35.008 74.7336 34.6013 74.9269 34.2613C75.1269 33.9213 75.3869 33.6613 75.7069 33.4813C76.0336 33.2946 76.3869 33.2013 76.7669 33.2013C77.1669 33.2013 77.4936 33.288 77.7469 33.4613C78.0069 33.628 78.2102 33.8246 78.3569 34.0513L78.2869 34.2113L78.3869 33.3813H79.3369V37.5713H78.3069V36.5213L78.4169 36.7713C78.3902 36.8246 78.3336 36.9013 78.2469 37.0013C78.1602 37.0946 78.0436 37.1946 77.8969 37.3013C77.7569 37.408 77.5902 37.498 77.3969 37.5713C77.2102 37.638 76.9936 37.6713 76.7469 37.6713ZM77.0269 36.8313C77.2469 36.8313 77.4436 36.7913 77.6169 36.7113C77.7902 36.6313 77.9369 36.518 78.0569 36.3713C78.1769 36.2246 78.2602 36.0513 78.3069 35.8513V34.9813C78.2536 34.7946 78.1636 34.6346 78.0369 34.5013C77.9102 34.3613 77.7569 34.2513 77.5769 34.1713C77.4036 34.0913 77.2102 34.0513 76.9969 34.0513C76.7569 34.0513 76.5369 34.1113 76.3369 34.2313C76.1369 34.3446 75.9769 34.5046 75.8569 34.7113C75.7369 34.918 75.6769 35.158 75.6769 35.4313C75.6769 35.6913 75.7369 35.928 75.8569 36.1413C75.9836 36.3546 76.1502 36.5246 76.3569 36.6513C76.5636 36.7713 76.7869 36.8313 77.0269 36.8313ZM80.9149 29.8013H81.9449V37.5713H80.9149V29.8013ZM84.7325 37.6613C84.4259 37.6613 84.1292 37.608 83.8425 37.5013C83.5559 37.388 83.3192 37.2246 83.1325 37.0113L83.5725 36.4313C83.7525 36.598 83.9325 36.7246 84.1125 36.8113C84.2992 36.8913 84.4759 36.9313 84.6425 36.9313C84.7759 36.9313 84.8959 36.918 85.0025 36.8913C85.1092 36.858 85.1959 36.8046 85.2625 36.7313C85.3292 36.658 85.3625 36.5613 85.3625 36.4413C85.3625 36.3013 85.3159 36.1913 85.2225 36.1113C85.1292 36.0313 85.0092 35.9646 84.8625 35.9113C84.7159 35.858 84.5592 35.808 84.3925 35.7613C84.0392 35.648 83.7725 35.488 83.5925 35.2813C83.4125 35.068 83.3225 34.818 83.3225 34.5313C83.3225 34.3113 83.3759 34.1046 83.4825 33.9113C83.5959 33.7113 83.7659 33.548 83.9925 33.4213C84.2192 33.2946 84.4992 33.2313 84.8325 33.2313C85.1392 33.2313 85.4092 33.268 85.6425 33.3413C85.8759 33.408 86.0925 33.5246 86.2925 33.6913L85.8925 34.3113C85.7725 34.1913 85.6292 34.1013 85.4625 34.0413C85.3025 33.9746 85.1559 33.938 85.0225 33.9313C84.9025 33.9313 84.7925 33.9513 84.6925 33.9913C84.5925 34.0246 84.5125 34.078 84.4525 34.1513C84.3925 34.218 84.3625 34.298 84.3625 34.3913C84.3559 34.5246 84.3992 34.6346 84.4925 34.7213C84.5925 34.8013 84.7192 34.868 84.8725 34.9213C85.0259 34.968 85.1759 35.018 85.3225 35.0713C85.5292 35.1313 85.7125 35.2146 85.8725 35.3213C86.0325 35.4213 86.1592 35.5446 86.2525 35.6913C86.3459 35.838 86.3925 36.0246 86.3925 36.2513C86.3925 36.498 86.3325 36.7313 86.2125 36.9513C86.0925 37.1646 85.9092 37.338 85.6625 37.4713C85.4159 37.598 85.1059 37.6613 84.7325 37.6613ZM87.6629 37.5713V29.8013H88.6629V34.3313L88.6529 34.1613C88.7929 33.888 89.0063 33.6613 89.2929 33.4813C89.5796 33.3013 89.9229 33.2113 90.3229 33.2113C90.7163 33.2113 91.0396 33.328 91.2929 33.5613C91.5529 33.7946 91.6863 34.098 91.6929 34.4713V37.5713H90.6629V34.8313C90.6563 34.618 90.5929 34.4446 90.4729 34.3113C90.3529 34.1713 90.1663 34.098 89.9129 34.0913C89.6863 34.0913 89.4796 34.1613 89.2929 34.3013C89.1063 34.4346 88.9596 34.6213 88.8529 34.8613C88.7463 35.0946 88.6929 35.3613 88.6929 35.6613V37.5713H87.6629ZM92.9084 35.4313C92.9084 35.0113 93.0084 34.6346 93.2084 34.3013C93.4084 33.9613 93.6851 33.6946 94.0384 33.5013C94.3917 33.308 94.7951 33.2113 95.2484 33.2113C95.7084 33.2113 96.1117 33.308 96.4584 33.5013C96.8051 33.6946 97.0717 33.9613 97.2584 34.3013C97.4517 34.6346 97.5484 35.0113 97.5484 35.4313C97.5484 35.8513 97.4517 36.2313 97.2584 36.5713C97.0717 36.9113 96.8051 37.1813 96.4584 37.3813C96.1117 37.5746 95.7051 37.6713 95.2384 37.6713C94.7917 37.6713 94.3917 37.5813 94.0384 37.4013C93.6917 37.2213 93.4151 36.9646 93.2084 36.6313C93.0084 36.2913 92.9084 35.8913 92.9084 35.4313ZM93.9484 35.4413C93.9484 35.7013 94.0051 35.938 94.1184 36.1513C94.2317 36.358 94.3851 36.5246 94.5784 36.6513C94.7717 36.7713 94.9884 36.8313 95.2284 36.8313C95.4751 36.8313 95.6951 36.7713 95.8884 36.6513C96.0817 36.5246 96.2317 36.358 96.3384 36.1513C96.4517 35.938 96.5084 35.7013 96.5084 35.4413C96.5084 35.1813 96.4517 34.948 96.3384 34.7413C96.2317 34.5346 96.0817 34.368 95.8884 34.2413C95.6951 34.1146 95.4751 34.0513 95.2284 34.0513C94.9817 34.0513 94.7617 34.1146 94.5684 34.2413C94.3751 34.368 94.2217 34.538 94.1084 34.7513C94.0017 34.958 93.9484 35.188 93.9484 35.4413ZM102.196 37.1813C102.01 37.3346 101.783 37.4546 101.516 37.5413C101.256 37.628 100.993 37.6713 100.726 37.6713C100.266 37.6713 99.8598 37.5813 99.5064 37.4013C99.1598 37.2213 98.8898 36.968 98.6964 36.6413C98.5031 36.3146 98.4064 35.9246 98.4064 35.4713C98.4064 35.0246 98.5098 34.638 98.7164 34.3113C98.9231 33.978 99.1964 33.7246 99.5364 33.5513C99.8764 33.3713 100.236 33.2813 100.616 33.2813C100.963 33.2813 101.27 33.328 101.536 33.4213C101.803 33.5146 102.033 33.6446 102.226 33.8113L101.716 34.4813C101.603 34.388 101.46 34.3046 101.286 34.2313C101.12 34.158 100.926 34.1213 100.706 34.1213C100.473 34.1213 100.26 34.1813 100.066 34.3013C99.8731 34.4146 99.7198 34.5746 99.6064 34.7813C99.4931 34.9813 99.4364 35.2113 99.4364 35.4713C99.4364 35.718 99.4931 35.948 99.6064 36.1613C99.7264 36.368 99.8898 36.5313 100.096 36.6513C100.303 36.7713 100.54 36.8313 100.806 36.8313C100.98 36.8313 101.14 36.808 101.286 36.7613C101.433 36.708 101.563 36.6346 101.676 36.5413L102.196 37.1813ZM103.376 37.5713V29.8013H104.406V37.5713H103.376ZM105.426 34.7713L107.346 37.5713H106.146L104.746 35.3613L105.426 34.7713ZM104.086 36.2813L103.986 35.2913L106.526 33.2913L107.156 33.8413L104.086 36.2813ZM110.968 36.0113V36.0013L115.028 30.9013H115.038V35.1913H115.878V36.0113H115.038V37.5713H113.968V36.0113H110.968ZM114.028 33.2913L112.528 35.2413L112.378 35.1913H113.968V33.1313L114.028 33.2913ZM36.5207 42.3513H37.7607L39.6407 47.6913L39.4607 47.6213L40.8807 43.9713L41.3707 45.4213L39.4107 49.9113L36.5207 42.3513ZM40.0407 42.3513H41.1007L43.1607 47.6013L42.9507 47.5613L44.7107 42.3513H45.8507L43.0107 49.8913L40.0407 42.3513ZM46.911 45.3813H47.941V49.5713H46.911V45.3813ZM46.851 43.8813C46.851 43.7213 46.9143 43.588 47.041 43.4813C47.1676 43.3746 47.3043 43.3213 47.451 43.3213C47.6043 43.3213 47.741 43.3746 47.861 43.4813C47.981 43.588 48.041 43.7213 48.041 43.8813C48.041 44.0413 47.981 44.1746 47.861 44.2813C47.741 44.3813 47.6043 44.4313 47.451 44.4313C47.3043 44.4313 47.1676 44.3813 47.041 44.2813C46.9143 44.1746 46.851 44.0413 46.851 43.8813ZM50.4286 45.3813L50.5286 46.5813L50.4786 46.4213C50.592 46.168 50.752 45.9513 50.9586 45.7713C51.1653 45.5913 51.3786 45.4546 51.5986 45.3613C51.8253 45.2613 52.0153 45.2113 52.1686 45.2113L52.1186 46.2313C51.7986 46.2113 51.5186 46.2713 51.2786 46.4113C51.0453 46.5513 50.862 46.738 50.7286 46.9713C50.5953 47.2046 50.5286 47.4546 50.5286 47.7213V49.5713H49.5086V45.3813H50.4286ZM55.131 49.6713C54.6443 49.6713 54.2276 49.578 53.881 49.3913C53.5343 49.198 53.2676 48.9346 53.081 48.6013C52.8943 48.2613 52.801 47.8746 52.801 47.4413C52.801 47.028 52.9043 46.6546 53.111 46.3213C53.3243 45.9813 53.6076 45.7113 53.961 45.5113C54.321 45.3113 54.7176 45.2113 55.151 45.2113C55.711 45.2113 56.1743 45.3746 56.541 45.7013C56.9143 46.028 57.1643 46.4846 57.291 47.0713L53.881 48.2513L53.641 47.6513L56.371 46.6713L56.161 46.8013C56.081 46.5946 55.9543 46.4146 55.781 46.2613C55.6076 46.1013 55.371 46.0213 55.071 46.0213C54.831 46.0213 54.6143 46.0813 54.421 46.2013C54.2343 46.3146 54.0843 46.4746 53.971 46.6813C53.8643 46.8813 53.811 47.118 53.811 47.3913C53.811 47.6713 53.8676 47.918 53.981 48.1313C54.101 48.338 54.261 48.5013 54.461 48.6213C54.6676 48.7413 54.8976 48.8013 55.151 48.8013C55.331 48.8013 55.501 48.768 55.661 48.7013C55.8276 48.6346 55.9843 48.5513 56.131 48.4513L56.601 49.2113C56.381 49.3513 56.141 49.4646 55.881 49.5513C55.6276 49.6313 55.3776 49.6713 55.131 49.6713ZM58.4344 41.8013H59.4644V49.5713H58.4344V41.8013ZM63.0021 49.6713C62.5154 49.6713 62.0987 49.578 61.7521 49.3913C61.4054 49.198 61.1387 48.9346 60.9521 48.6013C60.7654 48.2613 60.6721 47.8746 60.6721 47.4413C60.6721 47.028 60.7754 46.6546 60.9821 46.3213C61.1954 45.9813 61.4787 45.7113 61.8321 45.5113C62.1921 45.3113 62.5887 45.2113 63.0221 45.2113C63.5821 45.2113 64.0454 45.3746 64.4121 45.7013C64.7854 46.028 65.0354 46.4846 65.1621 47.0713L61.7521 48.2513L61.5121 47.6513L64.2421 46.6713L64.0321 46.8013C63.9521 46.5946 63.8254 46.4146 63.6521 46.2613C63.4787 46.1013 63.2421 46.0213 62.9421 46.0213C62.7021 46.0213 62.4854 46.0813 62.2921 46.2013C62.1054 46.3146 61.9554 46.4746 61.8421 46.6813C61.7354 46.8813 61.6821 47.118 61.6821 47.3913C61.6821 47.6713 61.7387 47.918 61.8521 48.1313C61.9721 48.338 62.1321 48.5013 62.3321 48.6213C62.5387 48.7413 62.7687 48.8013 63.0221 48.8013C63.2021 48.8013 63.3721 48.768 63.5321 48.7013C63.6987 48.6346 63.8554 48.5513 64.0021 48.4513L64.4721 49.2113C64.2521 49.3513 64.0121 49.4646 63.7521 49.5513C63.4987 49.6313 63.2487 49.6713 63.0021 49.6713ZM67.5255 49.6613C67.2188 49.6613 66.9222 49.608 66.6355 49.5013C66.3488 49.388 66.1122 49.2246 65.9255 49.0113L66.3655 48.4313C66.5455 48.598 66.7255 48.7246 66.9055 48.8113C67.0922 48.8913 67.2688 48.9313 67.4355 48.9313C67.5688 48.9313 67.6888 48.918 67.7955 48.8913C67.9022 48.858 67.9888 48.8046 68.0555 48.7313C68.1222 48.658 68.1555 48.5613 68.1555 48.4413C68.1555 48.3013 68.1088 48.1913 68.0155 48.1113C67.9222 48.0313 67.8022 47.9646 67.6555 47.9113C67.5088 47.858 67.3522 47.808 67.1855 47.7613C66.8322 47.648 66.5655 47.488 66.3855 47.2813C66.2055 47.068 66.1155 46.818 66.1155 46.5313C66.1155 46.3113 66.1688 46.1046 66.2755 45.9113C66.3888 45.7113 66.5588 45.548 66.7855 45.4213C67.0122 45.2946 67.2922 45.2313 67.6255 45.2313C67.9322 45.2313 68.2022 45.268 68.4355 45.3413C68.6688 45.408 68.8855 45.5246 69.0855 45.6913L68.6855 46.3113C68.5655 46.1913 68.4222 46.1013 68.2555 46.0413C68.0955 45.9746 67.9488 45.938 67.8155 45.9313C67.6955 45.9313 67.5855 45.9513 67.4855 45.9913C67.3855 46.0246 67.3055 46.078 67.2455 46.1513C67.1855 46.218 67.1555 46.298 67.1555 46.3913C67.1488 46.5246 67.1922 46.6346 67.2855 46.7213C67.3855 46.8013 67.5122 46.868 67.6655 46.9213C67.8188 46.968 67.9688 47.018 68.1155 47.0713C68.3222 47.1313 68.5055 47.2146 68.6655 47.3213C68.8255 47.4213 68.9522 47.5446 69.0455 47.6913C69.1388 47.838 69.1855 48.0246 69.1855 48.2513C69.1855 48.498 69.1255 48.7313 69.0055 48.9513C68.8855 49.1646 68.7022 49.338 68.4555 49.4713C68.2088 49.598 67.8988 49.6613 67.5255 49.6613ZM71.6759 49.6613C71.3692 49.6613 71.0726 49.608 70.7859 49.5013C70.4992 49.388 70.2626 49.2246 70.0759 49.0113L70.5159 48.4313C70.6959 48.598 70.8759 48.7246 71.0559 48.8113C71.2426 48.8913 71.4192 48.9313 71.5859 48.9313C71.7192 48.9313 71.8392 48.918 71.9459 48.8913C72.0526 48.858 72.1392 48.8046 72.2059 48.7313C72.2726 48.658 72.3059 48.5613 72.3059 48.4413C72.3059 48.3013 72.2592 48.1913 72.1659 48.1113C72.0726 48.0313 71.9526 47.9646 71.8059 47.9113C71.6592 47.858 71.5026 47.808 71.3359 47.7613C70.9826 47.648 70.7159 47.488 70.5359 47.2813C70.3559 47.068 70.2659 46.818 70.2659 46.5313C70.2659 46.3113 70.3192 46.1046 70.4259 45.9113C70.5392 45.7113 70.7092 45.548 70.9359 45.4213C71.1626 45.2946 71.4426 45.2313 71.7759 45.2313C72.0826 45.2313 72.3526 45.268 72.5859 45.3413C72.8192 45.408 73.0359 45.5246 73.2359 45.6913L72.8359 46.3113C72.7159 46.1913 72.5726 46.1013 72.4059 46.0413C72.2459 45.9746 72.0992 45.938 71.9659 45.9313C71.8459 45.9313 71.7359 45.9513 71.6359 45.9913C71.5359 46.0246 71.4559 46.078 71.3959 46.1513C71.3359 46.218 71.3059 46.298 71.3059 46.3913C71.2992 46.5246 71.3426 46.6346 71.4359 46.7213C71.5359 46.8013 71.6626 46.868 71.8159 46.9213C71.9692 46.968 72.1192 47.018 72.2659 47.0713C72.4726 47.1313 72.6559 47.2146 72.8159 47.3213C72.9759 47.4213 73.1026 47.5446 73.1959 47.6913C73.2892 47.838 73.3359 48.0246 73.3359 48.2513C73.3359 48.498 73.2759 48.7313 73.1559 48.9513C73.0359 49.1646 72.8526 49.338 72.6059 49.4713C72.3592 49.598 72.0492 49.6613 71.6759 49.6613ZM83.3699 49.0213C83.2632 49.0946 83.1032 49.1846 82.8899 49.2913C82.6832 49.3913 82.4365 49.478 82.1499 49.5513C81.8699 49.6246 81.5599 49.658 81.2199 49.6513C80.6532 49.6446 80.1432 49.5446 79.6899 49.3513C79.2432 49.158 78.8632 48.8946 78.5499 48.5613C78.2365 48.2213 77.9932 47.8346 77.8199 47.4013C77.6532 46.9613 77.5699 46.4946 77.5699 46.0013C77.5699 45.4546 77.6565 44.9546 77.8299 44.5013C78.0032 44.0413 78.2499 43.6413 78.5699 43.3013C78.8965 42.9613 79.2765 42.698 79.7099 42.5113C80.1499 42.3246 80.6299 42.2313 81.1499 42.2313C81.5965 42.2313 81.9999 42.2913 82.3599 42.4113C82.7199 42.5313 83.0232 42.6713 83.2699 42.8313L82.8499 43.8313C82.6565 43.698 82.4165 43.5713 82.1299 43.4513C81.8499 43.3246 81.5365 43.2613 81.1899 43.2613C80.8499 43.2613 80.5265 43.3313 80.2199 43.4713C79.9199 43.6046 79.6532 43.7946 79.4199 44.0413C79.1932 44.2813 79.0132 44.5646 78.8799 44.8913C78.7465 45.2113 78.6799 45.5613 78.6799 45.9413C78.6799 46.328 78.7399 46.6846 78.8599 47.0113C78.9799 47.338 79.1499 47.6213 79.3699 47.8613C79.5965 48.1013 79.8665 48.288 80.1799 48.4213C80.4932 48.5546 80.8465 48.6213 81.2399 48.6213C81.6132 48.6213 81.9399 48.5646 82.2199 48.4513C82.5065 48.338 82.7399 48.208 82.9199 48.0613L83.3699 49.0213ZM84.383 47.4313C84.383 47.0113 84.483 46.6346 84.683 46.3013C84.883 45.9613 85.1597 45.6946 85.513 45.5013C85.8663 45.308 86.2697 45.2113 86.723 45.2113C87.183 45.2113 87.5863 45.308 87.933 45.5013C88.2797 45.6946 88.5463 45.9613 88.733 46.3013C88.9263 46.6346 89.023 47.0113 89.023 47.4313C89.023 47.8513 88.9263 48.2313 88.733 48.5713C88.5463 48.9113 88.2797 49.1813 87.933 49.3813C87.5863 49.5746 87.1797 49.6713 86.713 49.6713C86.2663 49.6713 85.8663 49.5813 85.513 49.4013C85.1663 49.2213 84.8897 48.9646 84.683 48.6313C84.483 48.2913 84.383 47.8913 84.383 47.4313ZM85.423 47.4413C85.423 47.7013 85.4797 47.938 85.593 48.1513C85.7063 48.358 85.8597 48.5246 86.053 48.6513C86.2463 48.7713 86.463 48.8313 86.703 48.8313C86.9497 48.8313 87.1697 48.7713 87.363 48.6513C87.5563 48.5246 87.7063 48.358 87.813 48.1513C87.9263 47.938 87.983 47.7013 87.983 47.4413C87.983 47.1813 87.9263 46.948 87.813 46.7413C87.7063 46.5346 87.5563 46.368 87.363 46.2413C87.1697 46.1146 86.9497 46.0513 86.703 46.0513C86.4563 46.0513 86.2363 46.1146 86.043 46.2413C85.8497 46.368 85.6963 46.538 85.583 46.7513C85.4763 46.958 85.423 47.188 85.423 47.4413ZM91.161 45.3813L91.251 46.3413L91.211 46.2113C91.351 45.9113 91.5677 45.6713 91.861 45.4913C92.1544 45.3046 92.5011 45.2113 92.9011 45.2113C93.2944 45.2113 93.6177 45.328 93.8711 45.5613C94.1311 45.7946 94.2644 46.098 94.2711 46.4713V49.5713H93.241V46.8313C93.2344 46.618 93.171 46.4446 93.051 46.3113C92.931 46.1713 92.7444 46.098 92.4911 46.0913C92.2644 46.0913 92.0577 46.1613 91.871 46.3013C91.6844 46.4346 91.5377 46.618 91.431 46.8513C91.3244 47.0846 91.271 47.3546 91.271 47.6613V49.5713H90.241V45.3813H91.161ZM96.2465 43.5413H97.2765V45.3913H98.3965V46.2013H97.2765V49.5713H96.2465V46.2013H95.5065V45.3913H96.2465V43.5413ZM100.429 45.3813L100.529 46.5813L100.479 46.4213C100.592 46.168 100.752 45.9513 100.959 45.7713C101.165 45.5913 101.379 45.4546 101.599 45.3613C101.825 45.2613 102.015 45.2113 102.169 45.2113L102.119 46.2313C101.799 46.2113 101.519 46.2713 101.279 46.4113C101.045 46.5513 100.862 46.738 100.729 46.9713C100.595 47.2046 100.529 47.4546 100.529 47.7213V49.5713H99.5086V45.3813H100.429ZM102.801 47.4313C102.801 47.0113 102.901 46.6346 103.101 46.3013C103.301 45.9613 103.578 45.6946 103.931 45.5013C104.284 45.308 104.688 45.2113 105.141 45.2113C105.601 45.2113 106.004 45.308 106.351 45.5013C106.698 45.6946 106.964 45.9613 107.151 46.3013C107.344 46.6346 107.441 47.0113 107.441 47.4313C107.441 47.8513 107.344 48.2313 107.151 48.5713C106.964 48.9113 106.698 49.1813 106.351 49.3813C106.004 49.5746 105.598 49.6713 105.131 49.6713C104.684 49.6713 104.284 49.5813 103.931 49.4013C103.584 49.2213 103.308 48.9646 103.101 48.6313C102.901 48.2913 102.801 47.8913 102.801 47.4313ZM103.841 47.4413C103.841 47.7013 103.898 47.938 104.011 48.1513C104.124 48.358 104.278 48.5246 104.471 48.6513C104.664 48.7713 104.881 48.8313 105.121 48.8313C105.368 48.8313 105.588 48.7713 105.781 48.6513C105.974 48.5246 106.124 48.358 106.231 48.1513C106.344 47.938 106.401 47.7013 106.401 47.4413C106.401 47.1813 106.344 46.948 106.231 46.7413C106.124 46.5346 105.974 46.368 105.781 46.2413C105.588 46.1146 105.368 46.0513 105.121 46.0513C104.874 46.0513 104.654 46.1146 104.461 46.2413C104.268 46.368 104.114 46.538 104.001 46.7513C103.894 46.958 103.841 47.188 103.841 47.4413ZM108.659 41.8013H109.689V49.5713H108.659V41.8013ZM111.257 41.8013H112.287V49.5713H111.257V41.8013ZM115.824 49.6713C115.338 49.6713 114.921 49.578 114.574 49.3913C114.228 49.198 113.961 48.9346 113.774 48.6013C113.588 48.2613 113.494 47.8746 113.494 47.4413C113.494 47.028 113.598 46.6546 113.804 46.3213C114.018 45.9813 114.301 45.7113 114.654 45.5113C115.014 45.3113 115.411 45.2113 115.844 45.2113C116.404 45.2113 116.868 45.3746 117.234 45.7013C117.608 46.028 117.858 46.4846 117.984 47.0713L114.574 48.2513L114.334 47.6513L117.064 46.6713L116.854 46.8013C116.774 46.5946 116.648 46.4146 116.474 46.2613C116.301 46.1013 116.064 46.0213 115.764 46.0213C115.524 46.0213 115.308 46.0813 115.114 46.2013C114.928 46.3146 114.778 46.4746 114.664 46.6813C114.558 46.8813 114.504 47.118 114.504 47.3913C114.504 47.6713 114.561 47.918 114.674 48.1313C114.794 48.338 114.954 48.5013 115.154 48.6213C115.361 48.7413 115.591 48.8013 115.844 48.8013C116.024 48.8013 116.194 48.768 116.354 48.7013C116.521 48.6346 116.678 48.5513 116.824 48.4513L117.294 49.2113C117.074 49.3513 116.834 49.4646 116.574 49.5513C116.321 49.6313 116.071 49.6713 115.824 49.6713ZM120.048 45.3813L120.148 46.5813L120.098 46.4213C120.211 46.168 120.371 45.9513 120.578 45.7713C120.784 45.5913 120.998 45.4546 121.218 45.3613C121.444 45.2613 121.634 45.2113 121.788 45.2113L121.738 46.2313C121.418 46.2113 121.138 46.2713 120.898 46.4113C120.664 46.5513 120.481 46.738 120.348 46.9713C120.214 47.2046 120.148 47.4546 120.148 47.7213V49.5713H119.128V45.3813H120.048Z" fill="#446381"/>
<path d="M39.3198 69.68V65.34L39.7198 64.87V60.96H40.5598V65.15L40.1598 65.76V69.68H39.3198ZM41.8798 63.42C41.5998 63.2667 41.3131 63.14 41.0198 63.04C40.7331 62.94 40.4631 62.89 40.2098 62.89C39.8964 62.89 39.6498 62.9533 39.4698 63.08C39.2898 63.2067 39.1998 63.3967 39.1998 63.65C39.1998 63.8233 39.2664 63.98 39.3998 64.12C39.5398 64.2533 39.7164 64.3733 39.9298 64.48C40.1498 64.5867 40.3764 64.6833 40.6098 64.77C40.8231 64.85 41.0331 64.9467 41.2398 65.06C41.4531 65.1667 41.6431 65.3033 41.8098 65.47C41.9764 65.63 42.1098 65.8333 42.2098 66.08C42.3098 66.32 42.3598 66.6167 42.3598 66.97C42.3598 67.3433 42.2631 67.69 42.0698 68.01C41.8764 68.33 41.5931 68.59 41.2198 68.79C40.8464 68.9833 40.3864 69.08 39.8398 69.08C39.5598 69.08 39.2731 69.0533 38.9798 69C38.6931 68.94 38.4098 68.8533 38.1298 68.74C37.8498 68.62 37.5798 68.47 37.3198 68.29L37.9598 67.16C38.1331 67.2867 38.3198 67.4 38.5198 67.5C38.7264 67.5933 38.9331 67.6667 39.1398 67.72C39.3464 67.7733 39.5364 67.8 39.7098 67.8C39.8831 67.8 40.0564 67.7767 40.2298 67.73C40.4098 67.6767 40.5564 67.59 40.6698 67.47C40.7898 67.35 40.8498 67.1833 40.8498 66.97C40.8498 66.8233 40.7998 66.69 40.6998 66.57C40.6064 66.45 40.4764 66.34 40.3098 66.24C40.1498 66.14 39.9731 66.0533 39.7798 65.98C39.5531 65.8933 39.3198 65.7933 39.0798 65.68C38.8398 65.5667 38.6131 65.43 38.3998 65.27C38.1931 65.1033 38.0231 64.9 37.8898 64.66C37.7631 64.4133 37.6998 64.1133 37.6998 63.76C37.6998 63.3333 37.7931 62.9633 37.9798 62.65C38.1731 62.3367 38.4431 62.09 38.7898 61.91C39.1364 61.7233 39.5364 61.62 39.9898 61.6C40.5831 61.6 41.0631 61.67 41.4298 61.81C41.8031 61.95 42.1364 62.1167 42.4298 62.31L41.8798 63.42ZM45.0936 69.08C44.7003 69.08 44.3169 69.0067 43.9436 68.86C43.5703 68.7133 43.2803 68.5367 43.0736 68.33L43.8236 67.17C43.9436 67.3167 44.1136 67.44 44.3336 67.54C44.5603 67.6333 44.7769 67.68 44.9836 67.68C45.1369 67.68 45.2803 67.6467 45.4136 67.58C45.5469 67.5133 45.6536 67.4133 45.7336 67.28C45.8136 67.1467 45.8536 66.9833 45.8536 66.79C45.8536 66.5767 45.8103 66.39 45.7236 66.23C45.6436 66.07 45.5236 65.9467 45.3636 65.86C45.2103 65.7667 45.0269 65.72 44.8136 65.72C44.6069 65.72 44.4103 65.75 44.2236 65.81C44.0369 65.8633 43.8169 65.9567 43.5636 66.09H43.5536V62.37H46.8636V63.77H44.8036V64.84L44.6336 64.54C44.7269 64.5267 44.8169 64.5167 44.9036 64.51C44.9903 64.5033 45.0769 64.5 45.1636 64.5C45.6303 64.5 46.0236 64.6033 46.3436 64.81C46.6703 65.0167 46.9203 65.29 47.0936 65.63C47.2669 65.97 47.3536 66.34 47.3536 66.74C47.3536 67.18 47.2536 67.5767 47.0536 67.93C46.8536 68.2833 46.5803 68.5633 46.2336 68.77C45.8936 68.9767 45.5136 69.08 45.0936 69.08ZM50.9894 69.01C50.6094 69.01 50.2494 68.9433 49.9094 68.81C49.576 68.6767 49.2794 68.4733 49.0194 68.2C48.766 67.92 48.566 67.57 48.4194 67.15C48.2727 66.7233 48.1994 66.2233 48.1994 65.65C48.1994 65.01 48.2694 64.4767 48.4094 64.05C48.5494 63.6167 48.7427 63.27 48.9894 63.01C49.2427 62.75 49.5394 62.5667 49.8794 62.46C50.2194 62.3467 50.5894 62.29 50.9894 62.29C51.3694 62.29 51.726 62.3567 52.0594 62.49C52.3994 62.6233 52.696 62.83 52.9494 63.11C53.2094 63.3833 53.4127 63.7333 53.5594 64.16C53.706 64.58 53.7794 65.0767 53.7794 65.65C53.7794 66.2433 53.706 66.7533 53.5594 67.18C53.4127 67.6067 53.2094 67.9567 52.9494 68.23C52.6894 68.4967 52.3927 68.6933 52.0594 68.82C51.726 68.9467 51.3694 69.01 50.9894 69.01ZM50.9794 67.62C51.3127 67.62 51.5727 67.5333 51.7594 67.36C51.946 67.18 52.076 66.9367 52.1494 66.63C52.2294 66.3233 52.2694 65.9833 52.2694 65.61C52.2694 65.2433 52.2294 64.9167 52.1494 64.63C52.076 64.3433 51.946 64.1167 51.7594 63.95C51.5727 63.7767 51.3127 63.69 50.9794 63.69C50.6527 63.69 50.396 63.7767 50.2094 63.95C50.0227 64.1233 49.8927 64.3567 49.8194 64.65C49.746 64.9433 49.7094 65.2733 49.7094 65.64C49.7094 66.0067 49.746 66.34 49.8194 66.64C49.8927 66.94 50.0227 67.18 50.2094 67.36C50.396 67.5333 50.6527 67.62 50.9794 67.62ZM60.5606 61.64C61.1673 61.64 61.6806 61.7433 62.1006 61.95C62.5206 62.15 62.8406 62.4367 63.0606 62.81C63.2806 63.1767 63.3906 63.6133 63.3906 64.12C63.3906 64.42 63.3439 64.7233 63.2506 65.03C63.1639 65.33 63.0206 65.6033 62.8206 65.85C62.6273 66.0967 62.3639 66.2967 62.0306 66.45C61.7039 66.5967 61.3006 66.67 60.8206 66.67H59.7806V69H58.3306V61.64H60.5606ZM60.8106 65.26C61.0306 65.26 61.2139 65.2233 61.3606 65.15C61.5073 65.07 61.6206 64.9733 61.7006 64.86C61.7873 64.74 61.8473 64.6167 61.8806 64.49C61.9206 64.3633 61.9406 64.2533 61.9406 64.16C61.9406 64.0867 61.9273 63.99 61.9006 63.87C61.8806 63.7433 61.8339 63.6167 61.7606 63.49C61.6873 63.3633 61.5739 63.2567 61.4206 63.17C61.2739 63.0833 61.0739 63.04 60.8206 63.04H59.7806V65.26H60.8106ZM66.608 69.12C66.0747 69.12 65.6214 69.02 65.248 68.82C64.8814 68.62 64.6014 68.3433 64.408 67.99C64.2147 67.6367 64.118 67.23 64.118 66.77C64.118 66.33 64.2314 65.9333 64.458 65.58C64.6847 65.2267 64.988 64.9467 65.368 64.74C65.748 64.5267 66.1714 64.42 66.638 64.42C67.2647 64.42 67.778 64.6033 68.178 64.97C68.5847 65.33 68.848 65.8533 68.968 66.54L65.568 67.62L65.258 66.86L67.718 66.03L67.428 66.16C67.3747 65.9867 67.278 65.8367 67.138 65.71C67.0047 65.5767 66.8014 65.51 66.528 65.51C66.3214 65.51 66.138 65.56 65.978 65.66C65.8247 65.7533 65.7047 65.89 65.618 66.07C65.538 66.2433 65.498 66.45 65.498 66.69C65.498 66.9633 65.548 67.1933 65.648 67.38C65.748 67.56 65.8847 67.6967 66.058 67.79C66.2314 67.8833 66.4247 67.93 66.638 67.93C66.7914 67.93 66.938 67.9033 67.078 67.85C67.2247 67.7967 67.368 67.7267 67.508 67.64L68.128 68.68C67.8947 68.8133 67.6414 68.92 67.368 69C67.1014 69.08 66.848 69.12 66.608 69.12ZM71.2454 64.63L71.3754 65.83L71.3454 65.65C71.472 65.39 71.6454 65.17 71.8654 64.99C72.0854 64.8033 72.302 64.66 72.5154 64.56C72.7354 64.46 72.902 64.41 73.0154 64.41L72.9454 65.81C72.6187 65.77 72.3387 65.8233 72.1054 65.97C71.872 66.1167 71.692 66.31 71.5654 66.55C71.4387 66.79 71.3754 67.0367 71.3754 67.29V69H69.9854V64.63H71.2454ZM83.7589 61.64V69H82.3089V66.01H79.0189V69H77.5689V61.64H79.0189V64.61H82.3089V61.64H83.7589ZM85.0848 66.76C85.0848 66.3133 85.1882 65.9133 85.3948 65.56C85.6082 65.2067 85.9048 64.93 86.2848 64.73C86.6648 64.5233 87.1015 64.42 87.5948 64.42C88.0948 64.42 88.5282 64.5233 88.8948 64.73C89.2615 64.93 89.5415 65.2067 89.7348 65.56C89.9348 65.9133 90.0348 66.3133 90.0348 66.76C90.0348 67.2067 89.9348 67.61 89.7348 67.97C89.5415 68.3233 89.2615 68.6033 88.8948 68.81C88.5282 69.0167 88.0882 69.12 87.5748 69.12C87.0948 69.12 86.6648 69.0267 86.2848 68.84C85.9115 68.6533 85.6182 68.3833 85.4048 68.03C85.1915 67.6767 85.0848 67.2533 85.0848 66.76ZM86.4948 66.77C86.4948 66.9967 86.5415 67.2033 86.6348 67.39C86.7282 67.57 86.8548 67.7133 87.0148 67.82C87.1748 67.9267 87.3548 67.98 87.5548 67.98C87.7748 67.98 87.9648 67.9267 88.1248 67.82C88.2848 67.7133 88.4082 67.57 88.4948 67.39C88.5815 67.2033 88.6248 66.9967 88.6248 66.77C88.6248 66.5367 88.5815 66.33 88.4948 66.15C88.4082 65.97 88.2848 65.8267 88.1248 65.72C87.9648 65.6133 87.7748 65.56 87.5548 65.56C87.3548 65.56 87.1748 65.6133 87.0148 65.72C86.8548 65.8267 86.7282 65.97 86.6348 66.15C86.5415 66.33 86.4948 66.5367 86.4948 66.77ZM92.5477 69.21C92.1544 69.21 91.8244 69.09 91.5577 68.85C91.2911 68.6033 91.1511 68.2867 91.1377 67.9V64.63H92.5377V67.38C92.5511 67.5733 92.6011 67.73 92.6877 67.85C92.7744 67.9633 92.9211 68.02 93.1277 68.02C93.3344 68.02 93.5111 67.95 93.6577 67.81C93.8111 67.67 93.9277 67.48 94.0077 67.24C94.0944 66.9933 94.1377 66.7167 94.1377 66.41V64.63H95.5377V69H94.2677L94.1577 68.2L94.1777 68.29C94.0777 68.47 93.9511 68.63 93.7977 68.77C93.6444 68.91 93.4611 69.0167 93.2477 69.09C93.0411 69.17 92.8077 69.21 92.5477 69.21ZM98.2376 64.63L98.3676 65.83L98.3376 65.65C98.4642 65.39 98.6376 65.17 98.8576 64.99C99.0776 64.8033 99.2942 64.66 99.5076 64.56C99.7276 64.46 99.8942 64.41 100.008 64.41L99.9376 65.81C99.6109 65.77 99.3309 65.8233 99.0976 65.97C98.8642 66.1167 98.6842 66.31 98.5576 66.55C98.4309 66.79 98.3676 67.0367 98.3676 67.29V69H96.9776V64.63H98.2376Z" fill="#EB8382"/>
<path d="M91.9634 79.9301H93.3874V85.2021H92.5314V80.7541H91.9634V79.9301ZM94.6356 85.2021C94.9663 84.8661 95.2863 84.5408 95.5956 84.2261C95.9049 83.9115 96.1823 83.6048 96.4276 83.3061C96.6783 83.0075 96.8729 82.7195 97.0116 82.4421C97.1556 82.1648 97.2276 81.8955 97.2276 81.6341C97.2276 81.4741 97.2009 81.3355 97.1476 81.2181C97.0996 81.0955 97.0303 80.9968 96.9396 80.9221C96.8489 80.8421 96.7476 80.7835 96.6356 80.7461C96.5236 80.7035 96.4036 80.6821 96.2756 80.6821C96.1103 80.6821 95.9689 80.7088 95.8516 80.7621C95.7343 80.8155 95.6383 80.8848 95.5636 80.9701C95.4943 81.0501 95.4409 81.1381 95.4036 81.2341C95.3663 81.3301 95.3476 81.4261 95.3476 81.5221C95.3476 81.6981 95.3743 81.8555 95.4276 81.9941C95.4863 82.1328 95.5636 82.2528 95.6596 82.3541L95.1396 82.8341C95.0063 82.7541 94.8916 82.6395 94.7956 82.4901C94.7049 82.3355 94.6356 82.1728 94.5876 82.0021C94.5396 81.8315 94.5156 81.6795 94.5156 81.5461C94.5156 81.2528 94.5876 80.9808 94.7316 80.7301C94.8809 80.4741 95.0969 80.2661 95.3796 80.1061C95.6676 79.9461 96.0143 79.8661 96.4196 79.8661C96.7609 79.8661 97.0569 79.9435 97.3076 80.0981C97.5636 80.2528 97.7609 80.4608 97.8996 80.7221C98.0436 80.9781 98.1156 81.2581 98.1156 81.5621C98.1156 81.8235 98.0649 82.0795 97.9636 82.3301C97.8623 82.5808 97.7263 82.8288 97.5556 83.0741C97.3903 83.3141 97.2036 83.5541 96.9956 83.7941C96.7929 84.0288 96.5903 84.2661 96.3876 84.5061L96.0036 84.3781H98.2676V85.2021H94.6356ZM100.577 85.2661C100.289 85.2661 100.012 85.2128 99.7455 85.1061C99.4788 84.9995 99.2655 84.8688 99.1055 84.7141L99.5535 84.0421C99.6602 84.1648 99.8015 84.2635 99.9775 84.3381C100.159 84.4128 100.335 84.4501 100.505 84.4501C100.692 84.4501 100.855 84.4101 100.993 84.3301C101.137 84.2501 101.249 84.1381 101.329 83.9941C101.415 83.8501 101.457 83.6848 101.457 83.4981C101.457 83.2955 101.42 83.1168 101.345 82.9621C101.271 82.8021 101.159 82.6768 101.009 82.5861C100.86 82.4955 100.679 82.4501 100.465 82.4501C100.284 82.4501 100.113 82.4768 99.9535 82.5301C99.7988 82.5781 99.6308 82.6528 99.4495 82.7541H99.4415V79.9301H101.985V80.7461H100.185V81.9941L100.073 81.8181C100.164 81.7915 100.26 81.7701 100.361 81.7541C100.463 81.7381 100.564 81.7301 100.665 81.7301C101.028 81.7301 101.332 81.8101 101.577 81.9701C101.828 82.1301 102.017 82.3408 102.145 82.6021C102.273 82.8635 102.337 83.1515 102.337 83.4661C102.337 83.8021 102.26 84.1061 102.105 84.3781C101.956 84.6501 101.748 84.8661 101.481 85.0261C101.215 85.1861 100.913 85.2661 100.577 85.2661ZM104.589 81.8661H105.341V82.9701H106.421V83.6901H105.341V84.7861H104.589V83.6901H103.509V82.9701H104.589V81.8661ZM109.619 79.3941C109.923 79.3941 110.203 79.4368 110.459 79.5221C110.721 79.6021 110.942 79.7195 111.123 79.8741C111.31 80.0288 111.454 80.2208 111.555 80.4501C111.662 80.6741 111.715 80.9355 111.715 81.2341C111.715 81.4635 111.681 81.6901 111.611 81.9141C111.542 82.1381 111.43 82.3408 111.275 82.5221C111.121 82.7035 110.918 82.8501 110.667 82.9621C110.417 83.0688 110.105 83.1221 109.731 83.1221H108.883V85.2021H108.027V79.3941H109.619ZM109.715 82.3061C109.934 82.3061 110.115 82.2715 110.259 82.2021C110.409 82.1328 110.523 82.0475 110.603 81.9461C110.689 81.8395 110.747 81.7275 110.779 81.6101C110.817 81.4875 110.835 81.3701 110.835 81.2581C110.835 81.1515 110.817 81.0395 110.779 80.9221C110.747 80.8048 110.689 80.6928 110.603 80.5861C110.523 80.4795 110.414 80.3915 110.275 80.3221C110.137 80.2528 109.966 80.2181 109.763 80.2181H108.883V82.3061H109.715ZM110.699 82.8021L112.203 85.2021H111.211L109.683 82.8261L110.699 82.8021ZM114.623 85.2821C114.233 85.2821 113.9 85.2075 113.623 85.0581C113.345 84.9035 113.132 84.6928 112.983 84.4261C112.833 84.1541 112.759 83.8448 112.759 83.4981C112.759 83.1675 112.841 82.8688 113.007 82.6021C113.177 82.3301 113.404 82.1141 113.687 81.9541C113.975 81.7941 114.292 81.7141 114.639 81.7141C115.087 81.7141 115.457 81.8448 115.751 82.1061C116.049 82.3675 116.249 82.7328 116.351 83.2021L113.623 84.1461L113.431 83.6661L115.615 82.8821L115.447 82.9861C115.383 82.8208 115.281 82.6768 115.143 82.5541C115.004 82.4261 114.815 82.3621 114.575 82.3621C114.383 82.3621 114.209 82.4101 114.055 82.5061C113.905 82.5968 113.785 82.7248 113.695 82.8901C113.609 83.0501 113.567 83.2395 113.567 83.4581C113.567 83.6821 113.612 83.8795 113.703 84.0501C113.799 84.2155 113.927 84.3461 114.087 84.4421C114.252 84.5381 114.436 84.5861 114.639 84.5861C114.783 84.5861 114.919 84.5595 115.047 84.5061C115.18 84.4528 115.305 84.3861 115.423 84.3061L115.799 84.9141C115.623 85.0261 115.431 85.1168 115.223 85.1861C115.02 85.2501 114.82 85.2821 114.623 85.2821ZM118.54 85.2901L116.644 81.8501H117.62L118.852 84.4421L118.348 84.4181L119.468 81.8501H120.388L118.572 85.2901H118.54ZM121.156 81.8501H121.98V85.2021H121.156V81.8501ZM121.108 80.6501C121.108 80.5221 121.159 80.4155 121.26 80.3301C121.361 80.2448 121.471 80.2021 121.588 80.2021C121.711 80.2021 121.82 80.2448 121.916 80.3301C122.012 80.4155 122.06 80.5221 122.06 80.6501C122.06 80.7781 122.012 80.8848 121.916 80.9701C121.82 81.0501 121.711 81.0901 121.588 81.0901C121.471 81.0901 121.361 81.0501 121.26 80.9701C121.159 80.8848 121.108 80.7781 121.108 80.6501ZM124.81 85.2821C124.421 85.2821 124.087 85.2075 123.81 85.0581C123.533 84.9035 123.319 84.6928 123.17 84.4261C123.021 84.1541 122.946 83.8448 122.946 83.4981C122.946 83.1675 123.029 82.8688 123.194 82.6021C123.365 82.3301 123.591 82.1141 123.874 81.9541C124.162 81.7941 124.479 81.7141 124.826 81.7141C125.274 81.7141 125.645 81.8448 125.938 82.1061C126.237 82.3675 126.437 82.7328 126.538 83.2021L123.81 84.1461L123.618 83.6661L125.802 82.8821L125.634 82.9861C125.57 82.8208 125.469 82.6768 125.33 82.5541C125.191 82.4261 125.002 82.3621 124.762 82.3621C124.57 82.3621 124.397 82.4101 124.242 82.5061C124.093 82.5968 123.973 82.7248 123.882 82.8901C123.797 83.0501 123.754 83.2395 123.754 83.4581C123.754 83.6821 123.799 83.8795 123.89 84.0501C123.986 84.2155 124.114 84.3461 124.274 84.4421C124.439 84.5381 124.623 84.5861 124.826 84.5861C124.97 84.5861 125.106 84.5595 125.234 84.5061C125.367 84.4528 125.493 84.3861 125.61 84.3061L125.986 84.9141C125.81 85.0261 125.618 85.1168 125.41 85.1861C125.207 85.2501 125.007 85.2821 124.81 85.2821ZM129.559 81.8501L130.495 84.0021L130.335 84.0101L131.191 81.8501H131.999L130.463 85.4021L129.391 83.1221L128.407 85.4021L126.863 81.8501H127.671L128.663 84.1061L128.375 84.0581L129.095 82.3941L128.847 81.8501H129.559Z" fill="#446381"/>
<g clip-path="url(#clip0_39_2328)">
<path d="M70.4603 86.0137C70.2966 86.0976 70.1108 85.9505 70.1439 85.7626L70.4959 83.7566L69.0018 82.3333C68.8622 82.2001 68.9347 81.9567 69.1218 81.9304L71.1991 81.6352L72.1253 79.8001C72.2089 79.6347 72.4349 79.6347 72.5185 79.8001L73.4447 81.6352L75.522 81.9304C75.709 81.9567 75.7815 82.2001 75.6416 82.3333L74.1479 83.7566L74.4999 85.7626C74.533 85.9505 74.3472 86.0976 74.1835 86.0137L72.3212 85.0569L70.4598 86.0137H70.4603Z" fill="#FFB359"/>
</g>
<g clip-path="url(#clip1_39_2328)">
<path d="M60.2817 86.0137C60.118 86.0976 59.9322 85.9505 59.9653 85.7626L60.3173 83.7566L58.8232 82.3333C58.6836 82.2001 58.7562 81.9567 58.9432 81.9304L61.0205 81.6352L61.9467 79.8001C62.0303 79.6347 62.2563 79.6347 62.3399 79.8001L63.2661 81.6352L65.3434 81.9304C65.5304 81.9567 65.6029 82.2001 65.463 82.3333L63.9693 83.7566L64.3213 85.7626C64.3544 85.9505 64.1686 86.0976 64.0049 86.0137L62.1427 85.0569L60.2812 86.0137H60.2817Z" fill="#FFB359"/>
</g>
<g clip-path="url(#clip2_39_2328)">
<path d="M50.1031 86.0137C49.9394 86.0976 49.7536 85.9505 49.7867 85.7626L50.1387 83.7566L48.6446 82.3333C48.505 82.2001 48.5776 81.9567 48.7646 81.9304L50.8419 81.6352L51.7681 79.8001C51.8517 79.6347 52.0777 79.6347 52.1613 79.8001L53.0875 81.6352L55.1648 81.9304C55.3518 81.9567 55.4244 82.2001 55.2844 82.3333L53.7907 83.7566L54.1427 85.7626C54.1758 85.9505 53.99 86.0976 53.8263 86.0137L51.9641 85.0569L50.1027 86.0137H50.1031Z" fill="#FFB359"/>
</g>
<g clip-path="url(#clip3_39_2328)">
<path d="M39.9245 86.0137C39.7608 86.0976 39.575 85.9505 39.6081 85.7626L39.9601 83.7566L38.466 82.3333C38.3265 82.2001 38.399 81.9567 38.586 81.9304L40.6633 81.6352L41.5895 79.8001C41.6731 79.6347 41.8991 79.6347 41.9827 79.8001L42.9089 81.6352L44.9862 81.9304C45.1732 81.9567 45.2458 82.2001 45.1058 82.3333L43.6121 83.7566L43.9641 85.7626C43.9972 85.9505 43.8114 86.0976 43.6477 86.0137L41.7855 85.0569L39.9241 86.0137H39.9245Z" fill="#FFB359"/>
</g>
<g clip-path="url(#clip4_39_2328)">
<path d="M80.6388 86.0137C80.4751 86.0976 80.2894 85.9505 80.3225 85.7626L80.6745 83.7566L79.1803 82.3333C79.0408 82.2001 79.1133 81.9567 79.3004 81.9304L81.3776 81.6352L82.3039 79.8001C82.3874 79.6347 82.6135 79.6347 82.697 79.8001L83.6233 81.6352L85.7006 81.9304C85.8876 81.9567 85.9601 82.2001 85.8202 82.3333L84.3265 83.7566L84.6785 85.7626C84.7115 85.9505 84.5258 86.0976 84.3621 86.0137L82.4998 85.0569L80.6384 86.0137H80.6388Z" fill="#FFB359"/>
</g>
</g>
<defs>
<filter id="filter0_d_39_2328" x="-0.000244141" y="0" width="251.488" height="135" filterUnits="userSpaceOnUse" color-interpolation-filters="sRGB">
<feFlood flood-opacity="0" result="BackgroundImageFix"/>
<feColorMatrix in="SourceAlpha" type="matrix" values="0 0 0 0 0 0 0 0 0 0 0 0 0 0 0 0 0 0 127 0" result="hardAlpha"/>
<feOffset dy="10"/>
<feGaussianBlur stdDeviation="10"/>
<feComposite in2="hardAlpha" operator="out"/>
<feColorMatrix type="matrix" values="0 0 0 0 0.921569 0 0 0 0 0.513726 0 0 0 0 0.509804 0 0 0 0.4 0"/>
<feBlend mode="normal" in2="BackgroundImageFix" result="effect1_dropShadow_39_2328"/>
<feBlend mode="normal" in="SourceGraphic" in2="effect1_dropShadow_39_2328" result="shape"/>
</filter>
<linearGradient id="paint0_linear_39_2328" x1="193.858" y1="19.7136" x2="183.281" y2="63.6097" gradientUnits="userSpaceOnUse">
<stop stop-color="#EEBA9C"/>
<stop offset="0.9892" stop-color="#EB8382"/>
</linearGradient>
<linearGradient id="paint1_linear_39_2328" x1="150.908" y1="41.2322" x2="204.616" y2="88.8757" gradientUnits="userSpaceOnUse">
<stop stop-color="#826F8C"/>
<stop offset="0.9946" stop-color="#446381"/>
</linearGradient>
<linearGradient id="paint2_linear_39_2328" x1="154.531" y1="37.5924" x2="182.032" y2="102.467" gradientUnits="userSpaceOnUse">
<stop stop-color="#E474C6"/>
<stop offset="0.9892" stop-color="#0E7CF7"/>
</linearGradient>
<linearGradient id="paint3_linear_39_2328" x1="162.46" y1="46.3787" x2="170.569" y2="94.3295" gradientUnits="userSpaceOnUse">
<stop stop-color="#D2F9FF"/>
<stop offset="0.9946" stop-color="#618DD6"/>
</linearGradient>
<linearGradient id="paint4_linear_39_2328" x1="171.751" y1="38.5312" x2="178.626" y2="52.6343" gradientUnits="userSpaceOnUse">
<stop stop-color="#6F469E"/>
<stop offset="1" stop-color="#360F6E"/>
</linearGradient>
<linearGradient id="paint5_linear_39_2328" x1="177.457" y1="81.5049" x2="99.5943" y2="-42.0363" gradientUnits="userSpaceOnUse">
<stop stop-color="#D2F9FF"/>
<stop offset="0.4364" stop-color="#A0CAED"/>
<stop offset="0.9946" stop-color="#618DD6"/>
</linearGradient>
<linearGradient id="paint6_linear_39_2328" x1="192.956" y1="82.6432" x2="116.094" y2="-12.3766" gradientUnits="userSpaceOnUse">
<stop stop-color="#D2F9FF"/>
<stop offset="0.9946" stop-color="#618DD6"/>
</linearGradient>
<clipPath id="clip0_39_2328">
<rect width="6.78571" height="6.78571" fill="white" transform="translate(68.9283 79.4641)"/>
</clipPath>
<clipPath id="clip1_39_2328">
<rect width="6.78571" height="6.78571" fill="white" transform="translate(58.7498 79.4641)"/>
</clipPath>
<clipPath id="clip2_39_2328">
<rect width="6.78571" height="6.78571" fill="white" transform="translate(48.5712 79.4641)"/>
</clipPath>
<clipPath id="clip3_39_2328">
<rect width="6.78571" height="6.78571" fill="white" transform="translate(38.3926 79.4641)"/>
</clipPath>
<clipPath id="clip4_39_2328">
<rect width="6.78571" height="6.78571" fill="white" transform="translate(79.1069 79.4641)"/>
</clipPath>
</defs>
</svg>
