<svg width="252" height="135" viewBox="0 0 252 135" fill="none" xmlns="http://www.w3.org/2000/svg">
<g filter="url(#filter0_d_39_2365)">
<rect opacity="0.4" x="20.0005" y="10" width="211.488" height="95" rx="10" fill="white"/>
<path d="M46.7524 30.6338C49.2782 30.1102 51.8029 29.8012 54.3262 29.7606C55.1851 29.7651 55.8785 30.6276 55.8729 31.7013C55.8081 33.8482 55.5822 35.9944 55.1418 38.0857C52.0865 37.2109 48.9743 36.9263 45.8611 36.8564C45.9229 35.2999 45.77 33.7423 45.563 32.2381C45.4056 31.5394 45.9464 30.7907 46.7524 30.6338Z" fill="url(#paint0_linear_39_2365)"/>
<path d="M91.2544 30.8657C88.7341 30.3158 86.2128 29.9806 83.6901 29.9137C82.8312 29.9093 82.1288 30.7645 82.1232 31.8382C82.1658 33.9857 82.3693 36.1341 82.7879 38.2299C85.8522 37.3869 88.9671 37.1347 92.0809 37.0972C92.0353 35.5402 92.2044 33.9842 92.427 32.4823C92.5916 31.7853 92.0587 31.0309 91.2544 30.8657Z" fill="url(#paint1_linear_39_2365)"/>
<path d="M104.605 65.0772C104.029 62.1217 103.132 59.1645 102.448 56.4768C100.921 50.8858 98.9629 45.4 96.8973 40.021C95.52 36.4708 92.1504 34.0912 88.339 34.0713L86.2455 34.0605C83.9909 34.0487 81.7855 34.8962 80.0598 36.3903L78.4419 37.8313C76.5001 39.5927 73.9184 40.5456 71.288 40.5319L69.0871 40.5205L66.8862 40.509C64.2558 40.4953 61.7378 39.5159 59.7608 37.7341L58.1579 36.2763C56.4479 34.7643 54.3051 33.8942 51.9969 33.8822L50.0106 33.8719C46.1993 33.8521 42.8051 36.1964 41.3909 39.7321C39.2691 45.143 37.2547 50.5545 35.6689 56.1293C34.9034 58.8094 34.0294 61.7037 33.4233 64.7068C32.7076 68.1388 32.3676 71.5727 33.049 74.7435C34.3063 80.7088 41.9668 83.8086 46.8733 79.7006C49.5691 77.4599 53.5655 72.864 56.3209 69.4964C58.3736 67.0376 61.387 65.6576 64.5542 65.674L69.0634 65.6975L73.5727 65.721C76.7399 65.7375 79.7385 67.2025 81.7658 69.6288C84.4862 72.9712 88.4343 77.6622 91.1066 79.9308C95.9701 84.0896 103.662 81.0698 104.982 75.1178C105.589 71.9537 105.285 68.5164 104.605 65.0772Z" fill="url(#paint2_linear_39_2365)"/>
<path d="M104.614 63.1986C104.039 60.243 103.142 57.2858 102.458 54.5981C100.93 49.0072 98.9725 43.5213 96.9068 38.1423C95.5296 34.5921 92.1599 32.2125 88.3486 32.1927L86.255 32.1818C84.0004 32.1701 81.795 33.0175 80.0694 34.5116L78.4514 35.9527C76.5096 37.7141 73.9279 38.6669 71.2975 38.6532L69.0966 38.6418L66.8957 38.6303C64.2653 38.6166 61.7473 37.6373 59.7703 35.8554L58.1674 34.3977C56.4574 32.8857 54.3147 32.0156 52.0064 32.0036L50.0202 31.9932C46.2088 31.9734 42.8146 34.3178 41.4004 37.8535C39.2789 43.2107 37.2642 48.6759 35.6784 54.2506C34.9129 56.9307 34.039 59.8251 33.4328 62.8281C32.7171 66.2601 32.3771 69.694 33.0585 72.8649C34.3158 78.8302 41.9763 81.93 46.8828 77.8219C49.5786 75.5813 53.5751 70.9854 56.3304 67.6177C58.3831 65.159 61.3965 63.7789 64.5637 63.7954L69.073 63.8188L73.5822 63.8423C76.7494 63.8588 79.748 65.3238 81.7753 67.7501C84.4957 71.0926 88.4438 75.7835 91.1162 78.0521C95.9796 82.211 103.672 79.1911 104.991 73.2392C105.598 70.0751 105.294 66.5841 104.614 63.1986Z" fill="url(#paint3_linear_39_2365)"/>
<path d="M104.903 69.5881C103.592 73.9833 95.9034 76.2516 91.0346 73.1127C88.3592 71.4346 84.4046 67.9784 81.6797 65.4948C79.6493 63.659 76.6488 62.5697 73.4816 62.5533L68.9724 62.5298L64.4631 62.5063C61.296 62.4898 58.2842 63.5478 56.2348 65.3624C53.4842 67.8175 49.494 71.2324 46.8012 72.8825C41.9003 75.9169 34.2356 73.6224 32.9702 69.2138C32.8119 68.6762 32.7076 68.0851 32.657 67.4944C32.5402 69.319 32.5844 71.1444 32.9512 72.8642C34.2085 78.8295 41.869 81.9292 46.7755 77.8212C49.4713 75.5806 53.4678 70.9847 56.2231 67.617C58.2758 65.1583 61.2892 63.7782 64.4564 63.7947L68.9657 63.8181L73.4749 63.8416C76.6421 63.8581 79.6407 65.3231 81.668 67.7494C84.3884 71.0919 88.3365 75.7828 91.0089 78.0514C95.8724 82.2103 103.565 79.1904 104.884 73.2385C105.269 71.5226 105.332 69.6977 105.234 67.872C105.177 68.4622 105.067 68.9985 104.903 69.5881Z" fill="url(#paint4_linear_39_2365)"/>
<path d="M60.0079 62.3757C63.5359 62.394 66.4108 59.5489 66.4292 56.0208C66.4475 52.4928 63.6024 49.6179 60.0743 49.5995C56.5463 49.5812 53.6714 52.4263 53.653 55.9544C53.6347 59.4824 56.4798 62.3573 60.0079 62.3757Z" fill="url(#paint5_linear_39_2365)"/>
<path d="M60.0124 61.5168C63.0661 61.5327 65.5544 59.0701 65.5703 56.0164C65.5862 52.9627 63.1236 50.4744 60.0699 50.4585C57.0163 50.4426 54.5279 52.9052 54.512 55.9589C54.4961 59.0125 56.9587 61.5009 60.0124 61.5168Z" fill="url(#paint6_linear_39_2365)"/>
<path d="M59.3874 57.8629C61.9371 57.8762 64.0147 55.82 64.028 53.2703C64.0413 50.7207 61.9851 48.643 59.4354 48.6297C56.8858 48.6165 54.8081 50.6726 54.7948 53.2223C54.7816 55.772 56.8377 57.8496 59.3874 57.8629Z" fill="url(#paint7_linear_39_2365)"/>
<path d="M63.2225 53.2662C63.2334 51.1726 61.5246 49.4459 59.431 49.435C57.3374 49.4241 55.6107 51.133 55.5998 53.2265C55.5889 55.3201 57.2978 57.0468 59.3913 57.0577C61.4852 57.0149 63.2116 55.3598 63.2225 53.2662Z" fill="url(#paint8_linear_39_2365)"/>
<path d="M75.4144 62.456C78.9424 62.4743 81.8173 59.6292 81.8357 56.1012C81.854 52.5731 79.0089 49.6982 75.4808 49.6798C71.9528 49.6615 69.0779 52.5066 69.0595 56.0347C69.0412 59.5627 71.8863 62.4376 75.4144 62.456Z" fill="url(#paint9_linear_39_2365)"/>
<path d="M75.4189 61.5969C78.4726 61.6128 80.9609 59.1501 80.9768 56.0965C80.9927 53.0428 78.5301 50.5544 75.4764 50.5385C72.4228 50.5226 69.9344 52.9853 69.9185 56.0389C69.9026 59.0926 72.3652 61.581 75.4189 61.5969Z" fill="url(#paint10_linear_39_2365)"/>
<path d="M74.8473 57.9435C77.397 57.9567 79.4747 55.9006 79.488 53.3509C79.5012 50.8012 77.4451 48.7236 74.8954 48.7103C72.3457 48.697 70.2681 50.7532 70.2548 53.3029C70.2415 55.8525 72.2977 57.9302 74.8473 57.9435Z" fill="url(#paint11_linear_39_2365)"/>
<path d="M78.629 53.3466C78.6399 51.2531 76.9311 49.5263 74.8375 49.5154C72.7439 49.5045 71.0172 51.2134 71.0063 53.307C70.9954 55.4005 72.7043 57.1273 74.7978 57.1382C76.9454 57.0957 78.6181 55.4402 78.629 53.3466Z" fill="url(#paint12_linear_39_2365)"/>
<path d="M90.1809 41.1133C90.1745 42.3479 88.9885 43.3081 87.5391 43.3005C86.0897 43.293 84.914 42.2669 84.9202 41.0859C84.9266 39.8512 86.1126 38.8911 87.562 38.8986C89.0117 38.8525 90.1874 39.8786 90.1809 41.1133Z" fill="url(#paint13_linear_39_2365)"/>
<path d="M87.5412 42.871C88.6974 42.877 89.6389 42.0888 89.644 41.1104C89.6491 40.132 88.7159 39.334 87.5596 39.328C86.4034 39.322 85.4619 40.1103 85.4568 41.0886C85.4518 42.067 86.3849 42.865 87.5412 42.871Z" fill="url(#paint14_linear_39_2365)"/>
<path d="M90.1375 49.4873C90.1311 50.722 88.945 51.6821 87.4957 51.6746C86.0463 51.667 84.8706 50.6409 84.8767 49.46C84.8832 48.2253 86.0692 47.2652 87.5186 47.2727C88.968 47.2803 90.1439 48.2527 90.1375 49.4873Z" fill="url(#paint15_linear_39_2365)"/>
<path d="M87.498 51.245C88.6542 51.251 89.5957 50.4628 89.6008 49.4844C89.6059 48.5061 88.6727 47.7081 87.5164 47.7021C86.3602 47.696 85.4187 48.4843 85.4136 49.4626C85.4085 50.441 86.3417 51.239 87.498 51.245Z" fill="url(#paint16_linear_39_2365)"/>
<path d="M94.615 45.2698C94.6086 46.5045 93.4226 47.4646 91.9732 47.4571C90.5238 47.4495 89.3481 46.4234 89.3543 45.2424C89.3607 44.0078 90.5467 43.0476 91.9961 43.0552C93.4455 43.0627 94.6215 44.0351 94.615 45.2698Z" fill="url(#paint17_linear_39_2365)"/>
<path d="M94.0781 45.2671C94.073 46.2334 93.1563 47.0339 91.9753 47.0277C90.848 47.0219 89.8859 46.2116 89.8909 45.2454C89.896 44.2791 90.8127 43.4786 91.9937 43.4848C93.121 43.4906 94.0831 44.3009 94.0781 45.2671Z" fill="url(#paint18_linear_39_2365)"/>
<path d="M86.2945 45.2267C86.288 46.4614 85.102 47.4215 83.6526 47.414C82.2033 47.4064 81.0276 46.3803 81.0337 45.1993C81.0401 43.9647 82.2262 43.0046 83.6756 43.0121C85.1249 43.0196 86.3009 43.9921 86.2945 45.2267Z" fill="url(#paint19_linear_39_2365)"/>
<path d="M85.7578 45.2239C85.7527 46.1902 84.836 46.9907 83.655 46.9845C82.5277 46.9787 81.5656 46.1684 81.5706 45.2021C81.5756 44.2359 82.4924 43.4354 83.6734 43.4416C84.8007 43.4474 85.7628 44.2577 85.7578 45.2239Z" fill="url(#paint20_linear_39_2365)"/>
<path d="M49.6601 49.5988C53.0102 49.6163 55.7402 46.9146 55.7576 43.5644C55.7751 40.2143 53.0734 37.4843 49.7232 37.4669C46.3731 37.4494 43.6431 40.1511 43.6257 43.5013C43.6082 46.8514 46.3099 49.5814 49.6601 49.5988Z" fill="url(#paint21_linear_39_2365)"/>
<path d="M49.6635 48.9546C52.6579 48.9702 55.0979 46.5554 55.1135 43.561C55.1291 40.5666 52.7143 38.1266 49.7199 38.111C46.7255 38.0954 44.2855 40.5102 44.2699 43.5046C44.2543 46.4989 46.6691 48.939 49.6635 48.9546Z" fill="url(#paint22_linear_39_2365)"/>
<path d="M52.8649 42.3683L51.3619 42.3604C51.0935 42.359 50.8799 42.1432 50.8812 41.8748L50.8891 40.3717C50.8905 40.1033 50.6769 39.8875 50.4085 39.8861L48.9591 39.8785C48.6907 39.8771 48.4748 40.0907 48.4734 40.3591L48.4656 41.8622C48.4642 42.1306 48.2484 42.3442 47.9799 42.3428L46.4769 42.335C46.2085 42.3336 45.9926 42.5472 45.9912 42.8156L45.9837 44.265C45.9823 44.5334 46.1959 44.7493 46.4643 44.7507L47.9674 44.7585C48.2358 44.7599 48.4494 44.9757 48.448 45.2441L48.4402 46.7472C48.4388 47.0156 48.6524 47.2315 48.9208 47.2329L50.3702 47.2404C50.6386 47.2418 50.8544 47.0282 50.8558 46.7598L50.8636 45.2567C50.865 44.9883 51.0809 44.7747 51.3493 44.7761L52.8524 44.7839C53.1208 44.7853 53.3366 44.5717 53.338 44.3033L53.3456 42.8539C53.2933 42.5852 53.0797 42.3694 52.8649 42.3683Z" fill="url(#paint23_linear_39_2365)"/>
<path d="M67.3529 43.5712L61.8237 43.5424C61.5553 43.541 61.3932 43.7549 61.3921 43.9696L61.3842 45.4727C61.3828 45.7411 61.5967 45.9033 61.8114 45.9044L67.3406 45.9331C67.609 45.9345 67.7712 45.7207 67.7723 45.5059L67.7801 44.0029C67.7815 43.7344 67.5676 43.5723 67.3529 43.5712Z" fill="url(#paint24_linear_39_2365)"/>
<path d="M75.5658 43.614L70.0366 43.5852C69.7682 43.5838 69.6061 43.7977 69.6049 44.0125L69.5971 45.5155C69.5957 45.7839 69.8096 45.9461 70.0243 45.9472L75.5535 45.976C75.8219 45.9774 75.9841 45.7635 75.9852 45.5488L75.993 44.0457C75.9944 43.7773 75.8342 43.6154 75.5658 43.614Z" fill="url(#paint25_linear_39_2365)"/>
<path d="M120.931 26.7013C120.678 26.568 120.405 26.4546 120.111 26.3613C119.818 26.268 119.535 26.2213 119.261 26.2213C118.888 26.2213 118.591 26.308 118.371 26.4813C118.151 26.648 118.041 26.878 118.041 27.1713C118.041 27.378 118.115 27.558 118.261 27.7113C118.408 27.8646 118.598 27.998 118.831 28.1113C119.065 28.2246 119.311 28.3313 119.571 28.4313C119.791 28.5113 120.008 28.608 120.221 28.7213C120.441 28.828 120.638 28.9613 120.811 29.1213C120.991 29.2813 121.131 29.4813 121.231 29.7213C121.338 29.9546 121.391 30.2413 121.391 30.5813C121.391 30.968 121.295 31.318 121.101 31.6313C120.915 31.9446 120.641 32.1946 120.281 32.3813C119.928 32.5613 119.498 32.6513 118.991 32.6513C118.685 32.6513 118.385 32.618 118.091 32.5513C117.805 32.478 117.531 32.3846 117.271 32.2713C117.018 32.1513 116.788 32.0213 116.581 31.8813L117.061 31.0513C117.221 31.1646 117.405 31.2746 117.611 31.3813C117.818 31.4813 118.031 31.5613 118.251 31.6213C118.478 31.6813 118.691 31.7113 118.891 31.7113C119.111 31.7113 119.328 31.6746 119.541 31.6013C119.755 31.5213 119.931 31.4013 120.071 31.2413C120.211 31.0746 120.281 30.858 120.281 30.5913C120.281 30.3646 120.218 30.1746 120.091 30.0213C119.971 29.8613 119.808 29.7246 119.601 29.6113C119.401 29.498 119.185 29.398 118.951 29.3113C118.725 29.2246 118.495 29.128 118.261 29.0213C118.028 28.9146 117.811 28.788 117.611 28.6413C117.411 28.488 117.248 28.3013 117.121 28.0813C117.001 27.8546 116.941 27.578 116.941 27.2513C116.941 26.8646 117.031 26.528 117.211 26.2413C117.398 25.948 117.655 25.718 117.981 25.5513C118.308 25.3846 118.685 25.2913 119.111 25.2713C119.598 25.2713 120.021 25.3313 120.381 25.4513C120.741 25.5713 121.061 25.7146 121.341 25.8813L120.931 26.7013ZM122.382 30.4313C122.382 30.0113 122.482 29.6346 122.682 29.3013C122.882 28.9613 123.158 28.6946 123.512 28.5013C123.865 28.308 124.268 28.2113 124.722 28.2113C125.182 28.2113 125.585 28.308 125.932 28.5013C126.278 28.6946 126.545 28.9613 126.732 29.3013C126.925 29.6346 127.022 30.0113 127.022 30.4313C127.022 30.8513 126.925 31.2313 126.732 31.5713C126.545 31.9113 126.278 32.1813 125.932 32.3813C125.585 32.5746 125.178 32.6713 124.712 32.6713C124.265 32.6713 123.865 32.5813 123.512 32.4013C123.165 32.2213 122.888 31.9646 122.682 31.6313C122.482 31.2913 122.382 30.8913 122.382 30.4313ZM123.422 30.4413C123.422 30.7013 123.478 30.938 123.592 31.1513C123.705 31.358 123.858 31.5246 124.052 31.6513C124.245 31.7713 124.462 31.8313 124.702 31.8313C124.948 31.8313 125.168 31.7713 125.362 31.6513C125.555 31.5246 125.705 31.358 125.812 31.1513C125.925 30.938 125.982 30.7013 125.982 30.4413C125.982 30.1813 125.925 29.948 125.812 29.7413C125.705 29.5346 125.555 29.368 125.362 29.2413C125.168 29.1146 124.948 29.0513 124.702 29.0513C124.455 29.0513 124.235 29.1146 124.042 29.2413C123.848 29.368 123.695 29.538 123.582 29.7513C123.475 29.958 123.422 30.188 123.422 30.4413ZM129.16 28.3813L129.25 29.3413L129.21 29.2113C129.35 28.9113 129.566 28.6713 129.86 28.4913C130.153 28.3046 130.5 28.2113 130.9 28.2113C131.293 28.2113 131.616 28.328 131.87 28.5613C132.13 28.7946 132.263 29.098 132.27 29.4713V32.5713H131.24V29.8313C131.233 29.618 131.17 29.4446 131.05 29.3113C130.93 29.1713 130.743 29.098 130.49 29.0913C130.263 29.0913 130.056 29.1613 129.87 29.3013C129.683 29.4346 129.536 29.618 129.43 29.8513C129.323 30.0846 129.27 30.3546 129.27 30.6613V32.5713H128.24V28.3813H129.16ZM134.039 34.5813L136.809 28.3813H137.749L135.049 34.5813H134.039ZM135.099 32.6013L133.069 28.3813H134.229L135.889 32.0813L135.099 32.6013ZM142.122 32.5713V25.3113H144.142C144.862 25.3113 145.475 25.4213 145.982 25.6413C146.489 25.8613 146.895 26.1513 147.202 26.5113C147.515 26.8713 147.742 27.2713 147.882 27.7113C148.029 28.1513 148.102 28.5946 148.102 29.0413C148.102 29.5813 148.005 30.068 147.812 30.5013C147.619 30.9346 147.355 31.308 147.022 31.6213C146.689 31.928 146.305 32.1646 145.872 32.3313C145.439 32.4913 144.979 32.5713 144.492 32.5713H142.122ZM143.192 31.5413H144.292C144.685 31.5413 145.045 31.4846 145.372 31.3713C145.705 31.258 145.992 31.0913 146.232 30.8713C146.479 30.6513 146.669 30.3813 146.802 30.0613C146.935 29.7413 147.002 29.3746 147.002 28.9613C147.002 28.5146 146.925 28.128 146.772 27.8013C146.625 27.468 146.429 27.1946 146.182 26.9813C145.935 26.7613 145.659 26.6013 145.352 26.5013C145.052 26.3946 144.745 26.3413 144.432 26.3413H143.192V31.5413ZM150.8 32.7413C150.414 32.7413 150.097 32.6246 149.85 32.3913C149.604 32.158 149.474 31.858 149.46 31.4913V28.3813H150.49V31.1213C150.504 31.3346 150.564 31.5113 150.67 31.6513C150.784 31.7846 150.964 31.8546 151.21 31.8613C151.437 31.8613 151.637 31.7946 151.81 31.6613C151.99 31.5213 152.13 31.3346 152.23 31.1013C152.337 30.8613 152.39 30.588 152.39 30.2813V28.3813H153.42V32.5713H152.49L152.41 31.6013L152.45 31.7613C152.364 31.948 152.24 32.118 152.08 32.2713C151.92 32.418 151.73 32.5313 151.51 32.6113C151.29 32.698 151.054 32.7413 150.8 32.7413ZM156.748 32.6713C156.354 32.6713 155.998 32.5913 155.678 32.4313C155.358 32.2646 155.104 32.018 154.918 31.6913C154.731 31.3646 154.638 30.9613 154.638 30.4813C154.638 30.008 154.734 29.6013 154.928 29.2613C155.128 28.9213 155.388 28.6613 155.708 28.4813C156.034 28.2946 156.388 28.2013 156.768 28.2013C157.168 28.2013 157.494 28.288 157.748 28.4613C158.008 28.628 158.211 28.8246 158.358 29.0513L158.288 29.2113L158.388 28.3813H159.338V32.5713H158.308V31.5213L158.418 31.7713C158.391 31.8246 158.334 31.9013 158.248 32.0013C158.161 32.0946 158.044 32.1946 157.898 32.3013C157.758 32.408 157.591 32.498 157.398 32.5713C157.211 32.638 156.994 32.6713 156.748 32.6713ZM157.028 31.8313C157.248 31.8313 157.444 31.7913 157.618 31.7113C157.791 31.6313 157.938 31.518 158.058 31.3713C158.178 31.2246 158.261 31.0513 158.308 30.8513V29.9813C158.254 29.7946 158.164 29.6346 158.038 29.5013C157.911 29.3613 157.758 29.2513 157.578 29.1713C157.404 29.0913 157.211 29.0513 156.998 29.0513C156.758 29.0513 156.538 29.1113 156.338 29.2313C156.138 29.3446 155.978 29.5046 155.858 29.7113C155.738 29.918 155.678 30.158 155.678 30.4313C155.678 30.6913 155.738 30.928 155.858 31.1413C155.984 31.3546 156.151 31.5246 156.358 31.6513C156.564 31.7713 156.788 31.8313 157.028 31.8313ZM160.915 24.8013H161.945V32.5713H160.915V24.8013ZM164.733 32.6613C164.426 32.6613 164.13 32.608 163.843 32.5013C163.556 32.388 163.32 32.2246 163.133 32.0113L163.573 31.4313C163.753 31.598 163.933 31.7246 164.113 31.8113C164.3 31.8913 164.476 31.9313 164.643 31.9313C164.776 31.9313 164.896 31.918 165.003 31.8913C165.11 31.858 165.196 31.8046 165.263 31.7313C165.33 31.658 165.363 31.5613 165.363 31.4413C165.363 31.3013 165.316 31.1913 165.223 31.1113C165.13 31.0313 165.01 30.9646 164.863 30.9113C164.716 30.858 164.56 30.808 164.393 30.7613C164.04 30.648 163.773 30.488 163.593 30.2813C163.413 30.068 163.323 29.818 163.323 29.5313C163.323 29.3113 163.376 29.1046 163.483 28.9113C163.596 28.7113 163.766 28.548 163.993 28.4213C164.22 28.2946 164.5 28.2313 164.833 28.2313C165.14 28.2313 165.41 28.268 165.643 28.3413C165.876 28.408 166.093 28.5246 166.293 28.6913L165.893 29.3113C165.773 29.1913 165.63 29.1013 165.463 29.0413C165.303 28.9746 165.156 28.938 165.023 28.9313C164.903 28.9313 164.793 28.9513 164.693 28.9913C164.593 29.0246 164.513 29.078 164.453 29.1513C164.393 29.218 164.363 29.298 164.363 29.3913C164.356 29.5246 164.4 29.6346 164.493 29.7213C164.593 29.8013 164.72 29.868 164.873 29.9213C165.026 29.968 165.176 30.018 165.323 30.0713C165.53 30.1313 165.713 30.2146 165.873 30.3213C166.033 30.4213 166.16 30.5446 166.253 30.6913C166.346 30.838 166.393 31.0246 166.393 31.2513C166.393 31.498 166.333 31.7313 166.213 31.9513C166.093 32.1646 165.91 32.338 165.663 32.4713C165.416 32.598 165.106 32.6613 164.733 32.6613ZM167.664 32.5713V24.8013H168.664V29.3313L168.654 29.1613C168.794 28.888 169.007 28.6613 169.294 28.4813C169.58 28.3013 169.924 28.2113 170.324 28.2113C170.717 28.2113 171.04 28.328 171.294 28.5613C171.554 28.7946 171.687 29.098 171.694 29.4713V32.5713H170.664V29.8313C170.657 29.618 170.594 29.4446 170.474 29.3113C170.354 29.1713 170.167 29.098 169.914 29.0913C169.687 29.0913 169.48 29.1613 169.294 29.3013C169.107 29.4346 168.96 29.6213 168.854 29.8613C168.747 30.0946 168.694 30.3613 168.694 30.6613V32.5713H167.664ZM172.909 30.4313C172.909 30.0113 173.009 29.6346 173.209 29.3013C173.409 28.9613 173.686 28.6946 174.039 28.5013C174.392 28.308 174.796 28.2113 175.249 28.2113C175.709 28.2113 176.112 28.308 176.459 28.5013C176.806 28.6946 177.072 28.9613 177.259 29.3013C177.452 29.6346 177.549 30.0113 177.549 30.4313C177.549 30.8513 177.452 31.2313 177.259 31.5713C177.072 31.9113 176.806 32.1813 176.459 32.3813C176.112 32.5746 175.706 32.6713 175.239 32.6713C174.792 32.6713 174.392 32.5813 174.039 32.4013C173.692 32.2213 173.416 31.9646 173.209 31.6313C173.009 31.2913 172.909 30.8913 172.909 30.4313ZM173.949 30.4413C173.949 30.7013 174.006 30.938 174.119 31.1513C174.232 31.358 174.386 31.5246 174.579 31.6513C174.772 31.7713 174.989 31.8313 175.229 31.8313C175.476 31.8313 175.696 31.7713 175.889 31.6513C176.082 31.5246 176.232 31.358 176.339 31.1513C176.452 30.938 176.509 30.7013 176.509 30.4413C176.509 30.1813 176.452 29.948 176.339 29.7413C176.232 29.5346 176.082 29.368 175.889 29.2413C175.696 29.1146 175.476 29.0513 175.229 29.0513C174.982 29.0513 174.762 29.1146 174.569 29.2413C174.376 29.368 174.222 29.538 174.109 29.7513C174.002 29.958 173.949 30.188 173.949 30.4413ZM182.197 32.1813C182.01 32.3346 181.784 32.4546 181.517 32.5413C181.257 32.628 180.994 32.6713 180.727 32.6713C180.267 32.6713 179.86 32.5813 179.507 32.4013C179.16 32.2213 178.89 31.968 178.697 31.6413C178.504 31.3146 178.407 30.9246 178.407 30.4713C178.407 30.0246 178.51 29.638 178.717 29.3113C178.924 28.978 179.197 28.7246 179.537 28.5513C179.877 28.3713 180.237 28.2813 180.617 28.2813C180.964 28.2813 181.27 28.328 181.537 28.4213C181.804 28.5146 182.034 28.6446 182.227 28.8113L181.717 29.4813C181.604 29.388 181.46 29.3046 181.287 29.2313C181.12 29.158 180.927 29.1213 180.707 29.1213C180.474 29.1213 180.26 29.1813 180.067 29.3013C179.874 29.4146 179.72 29.5746 179.607 29.7813C179.494 29.9813 179.437 30.2113 179.437 30.4713C179.437 30.718 179.494 30.948 179.607 31.1613C179.727 31.368 179.89 31.5313 180.097 31.6513C180.304 31.7713 180.54 31.8313 180.807 31.8313C180.98 31.8313 181.14 31.808 181.287 31.7613C181.434 31.708 181.564 31.6346 181.677 31.5413L182.197 32.1813ZM183.376 32.5713V24.8013H184.406V32.5713H183.376ZM185.426 29.7713L187.346 32.5713H186.146L184.746 30.3613L185.426 29.7713ZM184.086 31.2813L183.986 30.2913L186.526 28.2913L187.156 28.8413L184.086 31.2813ZM190.968 31.0113V31.0013L195.028 25.9013H195.038V30.1913H195.878V31.0113H195.038V32.5713H193.968V31.0113H190.968ZM194.028 28.2913L192.528 30.2413L192.378 30.1913H193.968V28.1313L194.028 28.2913ZM116.521 37.3513H117.761L119.641 42.6913L119.461 42.6213L120.881 38.9713L121.371 40.4213L119.411 44.9113L116.521 37.3513ZM120.041 37.3513H121.101L123.161 42.6013L122.951 42.5613L124.711 37.3513H125.851L123.011 44.8913L120.041 37.3513ZM126.912 40.3813H127.942V44.5713H126.912V40.3813ZM126.852 38.8813C126.852 38.7213 126.915 38.588 127.042 38.4813C127.168 38.3746 127.305 38.3213 127.452 38.3213C127.605 38.3213 127.742 38.3746 127.862 38.4813C127.982 38.588 128.042 38.7213 128.042 38.8813C128.042 39.0413 127.982 39.1746 127.862 39.2813C127.742 39.3813 127.605 39.4313 127.452 39.4313C127.305 39.4313 127.168 39.3813 127.042 39.2813C126.915 39.1746 126.852 39.0413 126.852 38.8813ZM130.429 40.3813L130.529 41.5813L130.479 41.4213C130.593 41.168 130.753 40.9513 130.959 40.7713C131.166 40.5913 131.379 40.4546 131.599 40.3613C131.826 40.2613 132.016 40.2113 132.169 40.2113L132.119 41.2313C131.799 41.2113 131.519 41.2713 131.279 41.4113C131.046 41.5513 130.863 41.738 130.729 41.9713C130.596 42.2046 130.529 42.4546 130.529 42.7213V44.5713H129.509V40.3813H130.429ZM135.132 44.6713C134.645 44.6713 134.228 44.578 133.882 44.3913C133.535 44.198 133.268 43.9346 133.082 43.6013C132.895 43.2613 132.802 42.8746 132.802 42.4413C132.802 42.028 132.905 41.6546 133.112 41.3213C133.325 40.9813 133.608 40.7113 133.962 40.5113C134.322 40.3113 134.718 40.2113 135.152 40.2113C135.712 40.2113 136.175 40.3746 136.542 40.7013C136.915 41.028 137.165 41.4846 137.292 42.0713L133.882 43.2513L133.642 42.6513L136.372 41.6713L136.162 41.8013C136.082 41.5946 135.955 41.4146 135.782 41.2613C135.608 41.1013 135.372 41.0213 135.072 41.0213C134.832 41.0213 134.615 41.0813 134.422 41.2013C134.235 41.3146 134.085 41.4746 133.972 41.6813C133.865 41.8813 133.812 42.118 133.812 42.3913C133.812 42.6713 133.868 42.918 133.982 43.1313C134.102 43.338 134.262 43.5013 134.462 43.6213C134.668 43.7413 134.898 43.8013 135.152 43.8013C135.332 43.8013 135.502 43.768 135.662 43.7013C135.828 43.6346 135.985 43.5513 136.132 43.4513L136.602 44.2113C136.382 44.3513 136.142 44.4646 135.882 44.5513C135.628 44.6313 135.378 44.6713 135.132 44.6713ZM138.435 36.8013H139.465V44.5713H138.435V36.8013ZM143.003 44.6713C142.516 44.6713 142.099 44.578 141.753 44.3913C141.406 44.198 141.139 43.9346 140.953 43.6013C140.766 43.2613 140.673 42.8746 140.673 42.4413C140.673 42.028 140.776 41.6546 140.983 41.3213C141.196 40.9813 141.479 40.7113 141.833 40.5113C142.193 40.3113 142.589 40.2113 143.023 40.2113C143.583 40.2113 144.046 40.3746 144.413 40.7013C144.786 41.028 145.036 41.4846 145.163 42.0713L141.753 43.2513L141.513 42.6513L144.243 41.6713L144.033 41.8013C143.953 41.5946 143.826 41.4146 143.653 41.2613C143.479 41.1013 143.243 41.0213 142.943 41.0213C142.703 41.0213 142.486 41.0813 142.293 41.2013C142.106 41.3146 141.956 41.4746 141.843 41.6813C141.736 41.8813 141.683 42.118 141.683 42.3913C141.683 42.6713 141.739 42.918 141.853 43.1313C141.973 43.338 142.133 43.5013 142.333 43.6213C142.539 43.7413 142.769 43.8013 143.023 43.8013C143.203 43.8013 143.373 43.768 143.533 43.7013C143.699 43.6346 143.856 43.5513 144.003 43.4513L144.473 44.2113C144.253 44.3513 144.013 44.4646 143.753 44.5513C143.499 44.6313 143.249 44.6713 143.003 44.6713ZM147.526 44.6613C147.219 44.6613 146.923 44.608 146.636 44.5013C146.349 44.388 146.113 44.2246 145.926 44.0113L146.366 43.4313C146.546 43.598 146.726 43.7246 146.906 43.8113C147.093 43.8913 147.269 43.9313 147.436 43.9313C147.569 43.9313 147.689 43.918 147.796 43.8913C147.903 43.858 147.989 43.8046 148.056 43.7313C148.123 43.658 148.156 43.5613 148.156 43.4413C148.156 43.3013 148.109 43.1913 148.016 43.1113C147.923 43.0313 147.803 42.9646 147.656 42.9113C147.509 42.858 147.353 42.808 147.186 42.7613C146.833 42.648 146.566 42.488 146.386 42.2813C146.206 42.068 146.116 41.818 146.116 41.5313C146.116 41.3113 146.169 41.1046 146.276 40.9113C146.389 40.7113 146.559 40.548 146.786 40.4213C147.013 40.2946 147.293 40.2313 147.626 40.2313C147.933 40.2313 148.203 40.268 148.436 40.3413C148.669 40.408 148.886 40.5246 149.086 40.6913L148.686 41.3113C148.566 41.1913 148.423 41.1013 148.256 41.0413C148.096 40.9746 147.949 40.938 147.816 40.9313C147.696 40.9313 147.586 40.9513 147.486 40.9913C147.386 41.0246 147.306 41.078 147.246 41.1513C147.186 41.218 147.156 41.298 147.156 41.3913C147.149 41.5246 147.193 41.6346 147.286 41.7213C147.386 41.8013 147.513 41.868 147.666 41.9213C147.819 41.968 147.969 42.018 148.116 42.0713C148.323 42.1313 148.506 42.2146 148.666 42.3213C148.826 42.4213 148.953 42.5446 149.046 42.6913C149.139 42.838 149.186 43.0246 149.186 43.2513C149.186 43.498 149.126 43.7313 149.006 43.9513C148.886 44.1646 148.703 44.338 148.456 44.4713C148.209 44.598 147.899 44.6613 147.526 44.6613ZM151.677 44.6613C151.37 44.6613 151.073 44.608 150.787 44.5013C150.5 44.388 150.263 44.2246 150.077 44.0113L150.517 43.4313C150.697 43.598 150.877 43.7246 151.057 43.8113C151.243 43.8913 151.42 43.9313 151.587 43.9313C151.72 43.9313 151.84 43.918 151.947 43.8913C152.053 43.858 152.14 43.8046 152.207 43.7313C152.273 43.658 152.307 43.5613 152.307 43.4413C152.307 43.3013 152.26 43.1913 152.167 43.1113C152.073 43.0313 151.953 42.9646 151.807 42.9113C151.66 42.858 151.503 42.808 151.337 42.7613C150.983 42.648 150.717 42.488 150.537 42.2813C150.357 42.068 150.267 41.818 150.267 41.5313C150.267 41.3113 150.32 41.1046 150.427 40.9113C150.54 40.7113 150.71 40.548 150.937 40.4213C151.163 40.2946 151.443 40.2313 151.777 40.2313C152.083 40.2313 152.353 40.268 152.587 40.3413C152.82 40.408 153.037 40.5246 153.237 40.6913L152.837 41.3113C152.717 41.1913 152.573 41.1013 152.407 41.0413C152.247 40.9746 152.1 40.938 151.967 40.9313C151.847 40.9313 151.737 40.9513 151.637 40.9913C151.537 41.0246 151.457 41.078 151.397 41.1513C151.337 41.218 151.307 41.298 151.307 41.3913C151.3 41.5246 151.343 41.6346 151.437 41.7213C151.537 41.8013 151.663 41.868 151.817 41.9213C151.97 41.968 152.12 42.018 152.267 42.0713C152.473 42.1313 152.657 42.2146 152.817 42.3213C152.977 42.4213 153.103 42.5446 153.197 42.6913C153.29 42.838 153.337 43.0246 153.337 43.2513C153.337 43.498 153.277 43.7313 153.157 43.9513C153.037 44.1646 152.853 44.338 152.607 44.4713C152.36 44.598 152.05 44.6613 151.677 44.6613ZM163.37 44.0213C163.264 44.0946 163.104 44.1846 162.89 44.2913C162.684 44.3913 162.437 44.478 162.15 44.5513C161.87 44.6246 161.56 44.658 161.22 44.6513C160.654 44.6446 160.144 44.5446 159.69 44.3513C159.244 44.158 158.864 43.8946 158.55 43.5613C158.237 43.2213 157.994 42.8346 157.82 42.4013C157.654 41.9613 157.57 41.4946 157.57 41.0013C157.57 40.4546 157.657 39.9546 157.83 39.5013C158.004 39.0413 158.25 38.6413 158.57 38.3013C158.897 37.9613 159.277 37.698 159.71 37.5113C160.15 37.3246 160.63 37.2313 161.15 37.2313C161.597 37.2313 162 37.2913 162.36 37.4113C162.72 37.5313 163.024 37.6713 163.27 37.8313L162.85 38.8313C162.657 38.698 162.417 38.5713 162.13 38.4513C161.85 38.3246 161.537 38.2613 161.19 38.2613C160.85 38.2613 160.527 38.3313 160.22 38.4713C159.92 38.6046 159.654 38.7946 159.42 39.0413C159.194 39.2813 159.014 39.5646 158.88 39.8913C158.747 40.2113 158.68 40.5613 158.68 40.9413C158.68 41.328 158.74 41.6846 158.86 42.0113C158.98 42.338 159.15 42.6213 159.37 42.8613C159.597 43.1013 159.867 43.288 160.18 43.4213C160.494 43.5546 160.847 43.6213 161.24 43.6213C161.614 43.6213 161.94 43.5646 162.22 43.4513C162.507 43.338 162.74 43.208 162.92 43.0613L163.37 44.0213ZM164.384 42.4313C164.384 42.0113 164.484 41.6346 164.684 41.3013C164.884 40.9613 165.16 40.6946 165.514 40.5013C165.867 40.308 166.27 40.2113 166.724 40.2113C167.184 40.2113 167.587 40.308 167.934 40.5013C168.28 40.6946 168.547 40.9613 168.734 41.3013C168.927 41.6346 169.024 42.0113 169.024 42.4313C169.024 42.8513 168.927 43.2313 168.734 43.5713C168.547 43.9113 168.28 44.1813 167.934 44.3813C167.587 44.5746 167.18 44.6713 166.714 44.6713C166.267 44.6713 165.867 44.5813 165.514 44.4013C165.167 44.2213 164.89 43.9646 164.684 43.6313C164.484 43.2913 164.384 42.8913 164.384 42.4313ZM165.424 42.4413C165.424 42.7013 165.48 42.938 165.594 43.1513C165.707 43.358 165.86 43.5246 166.054 43.6513C166.247 43.7713 166.464 43.8313 166.704 43.8313C166.95 43.8313 167.17 43.7713 167.364 43.6513C167.557 43.5246 167.707 43.358 167.814 43.1513C167.927 42.938 167.984 42.7013 167.984 42.4413C167.984 42.1813 167.927 41.948 167.814 41.7413C167.707 41.5346 167.557 41.368 167.364 41.2413C167.17 41.1146 166.95 41.0513 166.704 41.0513C166.457 41.0513 166.237 41.1146 166.044 41.2413C165.85 41.368 165.697 41.538 165.584 41.7513C165.477 41.958 165.424 42.188 165.424 42.4413ZM171.162 40.3813L171.252 41.3413L171.212 41.2113C171.352 40.9113 171.568 40.6713 171.862 40.4913C172.155 40.3046 172.502 40.2113 172.902 40.2113C173.295 40.2113 173.618 40.328 173.872 40.5613C174.132 40.7946 174.265 41.098 174.272 41.4713V44.5713H173.242V41.8313C173.235 41.618 173.172 41.4446 173.052 41.3113C172.932 41.1713 172.745 41.098 172.492 41.0913C172.265 41.0913 172.058 41.1613 171.872 41.3013C171.685 41.4346 171.538 41.618 171.432 41.8513C171.325 42.0846 171.272 42.3546 171.272 42.6613V44.5713H170.242V40.3813H171.162ZM176.247 38.5413H177.277V40.3913H178.397V41.2013H177.277V44.5713H176.247V41.2013H175.507V40.3913H176.247V38.5413ZM180.429 40.3813L180.529 41.5813L180.479 41.4213C180.593 41.168 180.753 40.9513 180.959 40.7713C181.166 40.5913 181.379 40.4546 181.599 40.3613C181.826 40.2613 182.016 40.2113 182.169 40.2113L182.119 41.2313C181.799 41.2113 181.519 41.2713 181.279 41.4113C181.046 41.5513 180.863 41.738 180.729 41.9713C180.596 42.2046 180.529 42.4546 180.529 42.7213V44.5713H179.509V40.3813H180.429ZM182.802 42.4313C182.802 42.0113 182.902 41.6346 183.102 41.3013C183.302 40.9613 183.578 40.6946 183.932 40.5013C184.285 40.308 184.688 40.2113 185.142 40.2113C185.602 40.2113 186.005 40.308 186.352 40.5013C186.698 40.6946 186.965 40.9613 187.152 41.3013C187.345 41.6346 187.442 42.0113 187.442 42.4313C187.442 42.8513 187.345 43.2313 187.152 43.5713C186.965 43.9113 186.698 44.1813 186.352 44.3813C186.005 44.5746 185.598 44.6713 185.132 44.6713C184.685 44.6713 184.285 44.5813 183.932 44.4013C183.585 44.2213 183.308 43.9646 183.102 43.6313C182.902 43.2913 182.802 42.8913 182.802 42.4313ZM183.842 42.4413C183.842 42.7013 183.898 42.938 184.012 43.1513C184.125 43.358 184.278 43.5246 184.472 43.6513C184.665 43.7713 184.882 43.8313 185.122 43.8313C185.368 43.8313 185.588 43.7713 185.782 43.6513C185.975 43.5246 186.125 43.358 186.232 43.1513C186.345 42.938 186.402 42.7013 186.402 42.4413C186.402 42.1813 186.345 41.948 186.232 41.7413C186.125 41.5346 185.975 41.368 185.782 41.2413C185.588 41.1146 185.368 41.0513 185.122 41.0513C184.875 41.0513 184.655 41.1146 184.462 41.2413C184.268 41.368 184.115 41.538 184.002 41.7513C183.895 41.958 183.842 42.188 183.842 42.4413ZM188.66 36.8013H189.69V44.5713H188.66V36.8013ZM191.257 36.8013H192.287V44.5713H191.257V36.8013ZM195.825 44.6713C195.338 44.6713 194.922 44.578 194.575 44.3913C194.228 44.198 193.962 43.9346 193.775 43.6013C193.588 43.2613 193.495 42.8746 193.495 42.4413C193.495 42.028 193.598 41.6546 193.805 41.3213C194.018 40.9813 194.302 40.7113 194.655 40.5113C195.015 40.3113 195.412 40.2113 195.845 40.2113C196.405 40.2113 196.868 40.3746 197.235 40.7013C197.608 41.028 197.858 41.4846 197.985 42.0713L194.575 43.2513L194.335 42.6513L197.065 41.6713L196.855 41.8013C196.775 41.5946 196.648 41.4146 196.475 41.2613C196.302 41.1013 196.065 41.0213 195.765 41.0213C195.525 41.0213 195.308 41.0813 195.115 41.2013C194.928 41.3146 194.778 41.4746 194.665 41.6813C194.558 41.8813 194.505 42.118 194.505 42.3913C194.505 42.6713 194.562 42.918 194.675 43.1313C194.795 43.338 194.955 43.5013 195.155 43.6213C195.362 43.7413 195.592 43.8013 195.845 43.8013C196.025 43.8013 196.195 43.768 196.355 43.7013C196.522 43.6346 196.678 43.5513 196.825 43.4513L197.295 44.2113C197.075 44.3513 196.835 44.4646 196.575 44.5513C196.322 44.6313 196.072 44.6713 195.825 44.6713ZM200.048 40.3813L200.148 41.5813L200.098 41.4213C200.212 41.168 200.372 40.9513 200.578 40.7713C200.785 40.5913 200.998 40.4546 201.218 40.3613C201.445 40.2613 201.635 40.2113 201.788 40.2113L201.738 41.2313C201.418 41.2113 201.138 41.2713 200.898 41.4113C200.665 41.5513 200.482 41.738 200.348 41.9713C200.215 42.2046 200.148 42.4546 200.148 42.7213V44.5713H199.128V40.3813H200.048Z" fill="#446381"/>
<path d="M120.32 63.68V59.34L120.72 58.87V54.96H121.56V59.15L121.16 59.76V63.68H120.32ZM122.88 57.42C122.6 57.2667 122.314 57.14 122.02 57.04C121.734 56.94 121.464 56.89 121.21 56.89C120.897 56.89 120.65 56.9533 120.47 57.08C120.29 57.2067 120.2 57.3967 120.2 57.65C120.2 57.8233 120.267 57.98 120.4 58.12C120.54 58.2533 120.717 58.3733 120.93 58.48C121.15 58.5867 121.377 58.6833 121.61 58.77C121.824 58.85 122.034 58.9467 122.24 59.06C122.454 59.1667 122.644 59.3033 122.81 59.47C122.977 59.63 123.11 59.8333 123.21 60.08C123.31 60.32 123.36 60.6167 123.36 60.97C123.36 61.3433 123.264 61.69 123.07 62.01C122.877 62.33 122.594 62.59 122.22 62.79C121.847 62.9833 121.387 63.08 120.84 63.08C120.56 63.08 120.274 63.0533 119.98 63C119.694 62.94 119.41 62.8533 119.13 62.74C118.85 62.62 118.58 62.47 118.32 62.29L118.96 61.16C119.134 61.2867 119.32 61.4 119.52 61.5C119.727 61.5933 119.934 61.6667 120.14 61.72C120.347 61.7733 120.537 61.8 120.71 61.8C120.884 61.8 121.057 61.7767 121.23 61.73C121.41 61.6767 121.557 61.59 121.67 61.47C121.79 61.35 121.85 61.1833 121.85 60.97C121.85 60.8233 121.8 60.69 121.7 60.57C121.607 60.45 121.477 60.34 121.31 60.24C121.15 60.14 120.974 60.0533 120.78 59.98C120.554 59.8933 120.32 59.7933 120.08 59.68C119.84 59.5667 119.614 59.43 119.4 59.27C119.194 59.1033 119.024 58.9 118.89 58.66C118.764 58.4133 118.7 58.1133 118.7 57.76C118.7 57.3333 118.794 56.9633 118.98 56.65C119.174 56.3367 119.444 56.09 119.79 55.91C120.137 55.7233 120.537 55.62 120.99 55.6C121.584 55.6 122.064 55.67 122.43 55.81C122.804 55.95 123.137 56.1167 123.43 56.31L122.88 57.42ZM126.094 63.08C125.701 63.08 125.318 63.0067 124.944 62.86C124.571 62.7133 124.281 62.5367 124.074 62.33L124.824 61.17C124.944 61.3167 125.114 61.44 125.334 61.54C125.561 61.6333 125.778 61.68 125.984 61.68C126.138 61.68 126.281 61.6467 126.414 61.58C126.548 61.5133 126.654 61.4133 126.734 61.28C126.814 61.1467 126.854 60.9833 126.854 60.79C126.854 60.5767 126.811 60.39 126.724 60.23C126.644 60.07 126.524 59.9467 126.364 59.86C126.211 59.7667 126.028 59.72 125.814 59.72C125.608 59.72 125.411 59.75 125.224 59.81C125.038 59.8633 124.818 59.9567 124.564 60.09H124.554V56.37H127.864V57.77H125.804V58.84L125.634 58.54C125.728 58.5267 125.818 58.5167 125.904 58.51C125.991 58.5033 126.078 58.5 126.164 58.5C126.631 58.5 127.024 58.6033 127.344 58.81C127.671 59.0167 127.921 59.29 128.094 59.63C128.268 59.97 128.354 60.34 128.354 60.74C128.354 61.18 128.254 61.5767 128.054 61.93C127.854 62.2833 127.581 62.5633 127.234 62.77C126.894 62.9767 126.514 63.08 126.094 63.08ZM131.99 63.01C131.61 63.01 131.25 62.9433 130.91 62.81C130.577 62.6767 130.28 62.4733 130.02 62.2C129.767 61.92 129.567 61.57 129.42 61.15C129.273 60.7233 129.2 60.2233 129.2 59.65C129.2 59.01 129.27 58.4767 129.41 58.05C129.55 57.6167 129.743 57.27 129.99 57.01C130.243 56.75 130.54 56.5667 130.88 56.46C131.22 56.3467 131.59 56.29 131.99 56.29C132.37 56.29 132.727 56.3567 133.06 56.49C133.4 56.6233 133.697 56.83 133.95 57.11C134.21 57.3833 134.413 57.7333 134.56 58.16C134.707 58.58 134.78 59.0767 134.78 59.65C134.78 60.2433 134.707 60.7533 134.56 61.18C134.413 61.6067 134.21 61.9567 133.95 62.23C133.69 62.4967 133.393 62.6933 133.06 62.82C132.727 62.9467 132.37 63.01 131.99 63.01ZM131.98 61.62C132.313 61.62 132.573 61.5333 132.76 61.36C132.947 61.18 133.077 60.9367 133.15 60.63C133.23 60.3233 133.27 59.9833 133.27 59.61C133.27 59.2433 133.23 58.9167 133.15 58.63C133.077 58.3433 132.947 58.1167 132.76 57.95C132.573 57.7767 132.313 57.69 131.98 57.69C131.653 57.69 131.397 57.7767 131.21 57.95C131.023 58.1233 130.893 58.3567 130.82 58.65C130.747 58.9433 130.71 59.2733 130.71 59.64C130.71 60.0067 130.747 60.34 130.82 60.64C130.893 60.94 131.023 61.18 131.21 61.36C131.397 61.5333 131.653 61.62 131.98 61.62ZM141.561 55.64C142.168 55.64 142.681 55.7433 143.101 55.95C143.521 56.15 143.841 56.4367 144.061 56.81C144.281 57.1767 144.391 57.6133 144.391 58.12C144.391 58.42 144.345 58.7233 144.251 59.03C144.165 59.33 144.021 59.6033 143.821 59.85C143.628 60.0967 143.365 60.2967 143.031 60.45C142.705 60.5967 142.301 60.67 141.821 60.67H140.781V63H139.331V55.64H141.561ZM141.811 59.26C142.031 59.26 142.215 59.2233 142.361 59.15C142.508 59.07 142.621 58.9733 142.701 58.86C142.788 58.74 142.848 58.6167 142.881 58.49C142.921 58.3633 142.941 58.2533 142.941 58.16C142.941 58.0867 142.928 57.99 142.901 57.87C142.881 57.7433 142.835 57.6167 142.761 57.49C142.688 57.3633 142.575 57.2567 142.421 57.17C142.275 57.0833 142.075 57.04 141.821 57.04H140.781V59.26H141.811ZM147.609 63.12C147.075 63.12 146.622 63.02 146.249 62.82C145.882 62.62 145.602 62.3433 145.409 61.99C145.215 61.6367 145.119 61.23 145.119 60.77C145.119 60.33 145.232 59.9333 145.459 59.58C145.685 59.2267 145.989 58.9467 146.369 58.74C146.749 58.5267 147.172 58.42 147.639 58.42C148.265 58.42 148.779 58.6033 149.179 58.97C149.585 59.33 149.849 59.8533 149.969 60.54L146.569 61.62L146.259 60.86L148.719 60.03L148.429 60.16C148.375 59.9867 148.279 59.8367 148.139 59.71C148.005 59.5767 147.802 59.51 147.529 59.51C147.322 59.51 147.139 59.56 146.979 59.66C146.825 59.7533 146.705 59.89 146.619 60.07C146.539 60.2433 146.499 60.45 146.499 60.69C146.499 60.9633 146.549 61.1933 146.649 61.38C146.749 61.56 146.885 61.6967 147.059 61.79C147.232 61.8833 147.425 61.93 147.639 61.93C147.792 61.93 147.939 61.9033 148.079 61.85C148.225 61.7967 148.369 61.7267 148.509 61.64L149.129 62.68C148.895 62.8133 148.642 62.92 148.369 63C148.102 63.08 147.849 63.12 147.609 63.12ZM152.246 58.63L152.376 59.83L152.346 59.65C152.473 59.39 152.646 59.17 152.866 58.99C153.086 58.8033 153.303 58.66 153.516 58.56C153.736 58.46 153.903 58.41 154.016 58.41L153.946 59.81C153.619 59.77 153.339 59.8233 153.106 59.97C152.873 60.1167 152.693 60.31 152.566 60.55C152.439 60.79 152.376 61.0367 152.376 61.29V63H150.986V58.63H152.246ZM164.76 55.64V63H163.31V60.01H160.02V63H158.57V55.64H160.02V58.61H163.31V55.64H164.76ZM166.086 60.76C166.086 60.3133 166.189 59.9133 166.396 59.56C166.609 59.2067 166.906 58.93 167.286 58.73C167.666 58.5233 168.102 58.42 168.596 58.42C169.096 58.42 169.529 58.5233 169.896 58.73C170.262 58.93 170.542 59.2067 170.736 59.56C170.936 59.9133 171.036 60.3133 171.036 60.76C171.036 61.2067 170.936 61.61 170.736 61.97C170.542 62.3233 170.262 62.6033 169.896 62.81C169.529 63.0167 169.089 63.12 168.576 63.12C168.096 63.12 167.666 63.0267 167.286 62.84C166.912 62.6533 166.619 62.3833 166.406 62.03C166.192 61.6767 166.086 61.2533 166.086 60.76ZM167.496 60.77C167.496 60.9967 167.542 61.2033 167.636 61.39C167.729 61.57 167.856 61.7133 168.016 61.82C168.176 61.9267 168.356 61.98 168.556 61.98C168.776 61.98 168.966 61.9267 169.126 61.82C169.286 61.7133 169.409 61.57 169.496 61.39C169.582 61.2033 169.626 60.9967 169.626 60.77C169.626 60.5367 169.582 60.33 169.496 60.15C169.409 59.97 169.286 59.8267 169.126 59.72C168.966 59.6133 168.776 59.56 168.556 59.56C168.356 59.56 168.176 59.6133 168.016 59.72C167.856 59.8267 167.729 59.97 167.636 60.15C167.542 60.33 167.496 60.5367 167.496 60.77ZM173.548 63.21C173.155 63.21 172.825 63.09 172.558 62.85C172.292 62.6033 172.152 62.2867 172.138 61.9V58.63H173.538V61.38C173.552 61.5733 173.602 61.73 173.688 61.85C173.775 61.9633 173.922 62.02 174.128 62.02C174.335 62.02 174.512 61.95 174.658 61.81C174.812 61.67 174.928 61.48 175.008 61.24C175.095 60.9933 175.138 60.7167 175.138 60.41V58.63H176.538V63H175.268L175.158 62.2L175.178 62.29C175.078 62.47 174.952 62.63 174.798 62.77C174.645 62.91 174.462 63.0167 174.248 63.09C174.042 63.17 173.808 63.21 173.548 63.21ZM179.238 58.63L179.368 59.83L179.338 59.65C179.465 59.39 179.638 59.17 179.858 58.99C180.078 58.8033 180.295 58.66 180.508 58.56C180.728 58.46 180.895 58.41 181.008 58.41L180.938 59.81C180.612 59.77 180.332 59.8233 180.098 59.97C179.865 60.1167 179.685 60.31 179.558 60.55C179.432 60.79 179.368 61.0367 179.368 61.29V63H177.978V58.63H179.238Z" fill="#EB8382"/>
<path d="M171.964 74.9301H173.388V80.2021H172.532V75.7541H171.964V74.9301ZM174.636 80.2021C174.967 79.8661 175.287 79.5408 175.596 79.2261C175.905 78.9115 176.183 78.6048 176.428 78.3061C176.679 78.0075 176.873 77.7195 177.012 77.4421C177.156 77.1648 177.228 76.8955 177.228 76.6341C177.228 76.4741 177.201 76.3355 177.148 76.2181C177.1 76.0955 177.031 75.9968 176.94 75.9221C176.849 75.8421 176.748 75.7835 176.636 75.7461C176.524 75.7035 176.404 75.6821 176.276 75.6821C176.111 75.6821 175.969 75.7088 175.852 75.7621C175.735 75.8155 175.639 75.8848 175.564 75.9701C175.495 76.0501 175.441 76.1381 175.404 76.2341C175.367 76.3301 175.348 76.4261 175.348 76.5221C175.348 76.6981 175.375 76.8555 175.428 76.9941C175.487 77.1328 175.564 77.2528 175.66 77.3541L175.14 77.8341C175.007 77.7541 174.892 77.6395 174.796 77.4901C174.705 77.3355 174.636 77.1728 174.588 77.0021C174.54 76.8315 174.516 76.6795 174.516 76.5461C174.516 76.2528 174.588 75.9808 174.732 75.7301C174.881 75.4741 175.097 75.2661 175.38 75.1061C175.668 74.9461 176.015 74.8661 176.42 74.8661C176.761 74.8661 177.057 74.9435 177.308 75.0981C177.564 75.2528 177.761 75.4608 177.9 75.7221C178.044 75.9781 178.116 76.2581 178.116 76.5621C178.116 76.8235 178.065 77.0795 177.964 77.3301C177.863 77.5808 177.727 77.8288 177.556 78.0741C177.391 78.3141 177.204 78.5541 176.996 78.7941C176.793 79.0288 176.591 79.2661 176.388 79.5061L176.004 79.3781H178.268V80.2021H174.636ZM180.578 80.2661C180.29 80.2661 180.013 80.2128 179.746 80.1061C179.479 79.9995 179.266 79.8688 179.106 79.7141L179.554 79.0421C179.661 79.1648 179.802 79.2635 179.978 79.3381C180.159 79.4128 180.335 79.4501 180.506 79.4501C180.693 79.4501 180.855 79.4101 180.994 79.3301C181.138 79.2501 181.25 79.1381 181.33 78.9941C181.415 78.8501 181.458 78.6848 181.458 78.4981C181.458 78.2955 181.421 78.1168 181.346 77.9621C181.271 77.8021 181.159 77.6768 181.01 77.5861C180.861 77.4955 180.679 77.4501 180.466 77.4501C180.285 77.4501 180.114 77.4768 179.954 77.5301C179.799 77.5781 179.631 77.6528 179.45 77.7541H179.442V74.9301H181.986V75.7461H180.186V76.9941L180.074 76.8181C180.165 76.7915 180.261 76.7701 180.362 76.7541C180.463 76.7381 180.565 76.7301 180.666 76.7301C181.029 76.7301 181.333 76.8101 181.578 76.9701C181.829 77.1301 182.018 77.3408 182.146 77.6021C182.274 77.8635 182.338 78.1515 182.338 78.4661C182.338 78.8021 182.261 79.1061 182.106 79.3781C181.957 79.6501 181.749 79.8661 181.482 80.0261C181.215 80.1861 180.914 80.2661 180.578 80.2661ZM184.59 76.8661H185.342V77.9701H186.422V78.6901H185.342V79.7861H184.59V78.6901H183.51V77.9701H184.59V76.8661ZM189.62 74.3941C189.924 74.3941 190.204 74.4368 190.46 74.5221C190.721 74.6021 190.943 74.7195 191.124 74.8741C191.311 75.0288 191.455 75.2208 191.556 75.4501C191.663 75.6741 191.716 75.9355 191.716 76.2341C191.716 76.4635 191.681 76.6901 191.612 76.9141C191.543 77.1381 191.431 77.3408 191.276 77.5221C191.121 77.7035 190.919 77.8501 190.668 77.9621C190.417 78.0688 190.105 78.1221 189.732 78.1221H188.884V80.2021H188.028V74.3941H189.62ZM189.716 77.3061C189.935 77.3061 190.116 77.2715 190.26 77.2021C190.409 77.1328 190.524 77.0475 190.604 76.9461C190.689 76.8395 190.748 76.7275 190.78 76.6101C190.817 76.4875 190.836 76.3701 190.836 76.2581C190.836 76.1515 190.817 76.0395 190.78 75.9221C190.748 75.8048 190.689 75.6928 190.604 75.5861C190.524 75.4795 190.415 75.3915 190.276 75.3221C190.137 75.2528 189.967 75.2181 189.764 75.2181H188.884V77.3061H189.716ZM190.7 77.8021L192.204 80.2021H191.212L189.684 77.8261L190.7 77.8021ZM194.623 80.2821C194.234 80.2821 193.9 80.2075 193.623 80.0581C193.346 79.9035 193.132 79.6928 192.983 79.4261C192.834 79.1541 192.759 78.8448 192.759 78.4981C192.759 78.1675 192.842 77.8688 193.007 77.6021C193.178 77.3301 193.404 77.1141 193.687 76.9541C193.975 76.7941 194.292 76.7141 194.639 76.7141C195.087 76.7141 195.458 76.8448 195.751 77.1061C196.05 77.3675 196.25 77.7328 196.351 78.2021L193.623 79.1461L193.431 78.6661L195.615 77.8821L195.447 77.9861C195.383 77.8208 195.282 77.6768 195.143 77.5541C195.004 77.4261 194.815 77.3621 194.575 77.3621C194.383 77.3621 194.21 77.4101 194.055 77.5061C193.906 77.5968 193.786 77.7248 193.695 77.8901C193.61 78.0501 193.567 78.2395 193.567 78.4581C193.567 78.6821 193.612 78.8795 193.703 79.0501C193.799 79.2155 193.927 79.3461 194.087 79.4421C194.252 79.5381 194.436 79.5861 194.639 79.5861C194.783 79.5861 194.919 79.5595 195.047 79.5061C195.18 79.4528 195.306 79.3861 195.423 79.3061L195.799 79.9141C195.623 80.0261 195.431 80.1168 195.223 80.1861C195.02 80.2501 194.82 80.2821 194.623 80.2821ZM198.541 80.2901L196.645 76.8501H197.621L198.853 79.4421L198.349 79.4181L199.469 76.8501H200.389L198.573 80.2901H198.541ZM201.156 76.8501H201.98V80.2021H201.156V76.8501ZM201.108 75.6501C201.108 75.5221 201.159 75.4155 201.26 75.3301C201.362 75.2448 201.471 75.2021 201.588 75.2021C201.711 75.2021 201.82 75.2448 201.916 75.3301C202.012 75.4155 202.06 75.5221 202.06 75.6501C202.06 75.7781 202.012 75.8848 201.916 75.9701C201.82 76.0501 201.711 76.0901 201.588 76.0901C201.471 76.0901 201.362 76.0501 201.26 75.9701C201.159 75.8848 201.108 75.7781 201.108 75.6501ZM204.811 80.2821C204.421 80.2821 204.088 80.2075 203.811 80.0581C203.533 79.9035 203.32 79.6928 203.171 79.4261C203.021 79.1541 202.947 78.8448 202.947 78.4981C202.947 78.1675 203.029 77.8688 203.195 77.6021C203.365 77.3301 203.592 77.1141 203.875 76.9541C204.163 76.7941 204.48 76.7141 204.827 76.7141C205.275 76.7141 205.645 76.8448 205.939 77.1061C206.237 77.3675 206.437 77.7328 206.539 78.2021L203.811 79.1461L203.619 78.6661L205.803 77.8821L205.635 77.9861C205.571 77.8208 205.469 77.6768 205.331 77.5541C205.192 77.4261 205.003 77.3621 204.763 77.3621C204.571 77.3621 204.397 77.4101 204.243 77.5061C204.093 77.5968 203.973 77.7248 203.883 77.8901C203.797 78.0501 203.755 78.2395 203.755 78.4581C203.755 78.6821 203.8 78.8795 203.891 79.0501C203.987 79.2155 204.115 79.3461 204.275 79.4421C204.44 79.5381 204.624 79.5861 204.827 79.5861C204.971 79.5861 205.107 79.5595 205.235 79.5061C205.368 79.4528 205.493 79.3861 205.611 79.3061L205.987 79.9141C205.811 80.0261 205.619 80.1168 205.411 80.1861C205.208 80.2501 205.008 80.2821 204.811 80.2821ZM209.56 76.8501L210.496 79.0021L210.336 79.0101L211.192 76.8501H212L210.464 80.4021L209.392 78.1221L208.408 80.4021L206.864 76.8501H207.672L208.664 79.1061L208.376 79.0581L209.096 77.3941L208.848 76.8501H209.56Z" fill="#446381"/>
<g clip-path="url(#clip0_39_2365)">
<path d="M150.461 81.0133C150.297 81.0973 150.111 80.9501 150.144 80.7622L150.496 78.7562L149.002 77.3329C148.862 77.1997 148.935 76.9563 149.122 76.93L151.199 76.6348L152.126 74.7997C152.209 74.6343 152.435 74.6343 152.519 74.7997L153.445 76.6348L155.522 76.93C155.709 76.9563 155.782 77.1997 155.642 77.3329L154.148 78.7562L154.5 80.7622C154.533 80.9501 154.347 81.0973 154.184 81.0133L152.321 80.0565L150.46 81.0133H150.461Z" fill="#FFB359"/>
</g>
<g clip-path="url(#clip1_39_2365)">
<path d="M140.282 81.0133C140.118 81.0973 139.933 80.9501 139.966 80.7622L140.318 78.7562L138.824 77.3329C138.684 77.1997 138.757 76.9563 138.944 76.93L141.021 76.6348L141.947 74.7997C142.031 74.6343 142.257 74.6343 142.34 74.7997L143.266 76.6348L145.344 76.93C145.531 76.9563 145.603 77.1997 145.463 77.3329L143.97 78.7562L144.322 80.7622C144.355 80.9501 144.169 81.0973 144.005 81.0133L142.143 80.0565L140.282 81.0133H140.282Z" fill="#FFB359"/>
</g>
<g clip-path="url(#clip2_39_2365)">
<path d="M130.104 81.0133C129.94 81.0973 129.754 80.9501 129.787 80.7622L130.139 78.7562L128.645 77.3329C128.506 77.1997 128.578 76.9563 128.765 76.93L130.842 76.6348L131.769 74.7997C131.852 74.6343 132.078 74.6343 132.162 74.7997L133.088 76.6348L135.165 76.93C135.352 76.9563 135.425 77.1997 135.285 77.3329L133.791 78.7562L134.143 80.7622C134.176 80.9501 133.991 81.0973 133.827 81.0133L131.965 80.0565L130.103 81.0133H130.104Z" fill="#FFB359"/>
</g>
<g clip-path="url(#clip3_39_2365)">
<path d="M119.925 81.0134C119.761 81.0974 119.575 80.9502 119.608 80.7624L119.96 78.7563L118.466 77.333C118.327 77.1999 118.399 76.9564 118.586 76.9301L120.664 76.6349L121.59 74.7998C121.673 74.6344 121.9 74.6344 121.983 74.7998L122.909 76.6349L124.987 76.9301C125.174 76.9564 125.246 77.1999 125.106 77.333L123.612 78.7563L123.964 80.7624C123.998 80.9502 123.812 81.0974 123.648 81.0134L121.786 80.0566L119.924 81.0134H119.925Z" fill="#FFB359"/>
</g>
<g clip-path="url(#clip4_39_2365)">
<path d="M160.639 81.0133C160.476 81.0973 160.29 80.9501 160.323 80.7622L160.675 78.7562L159.181 77.3329C159.041 77.1997 159.114 76.9563 159.301 76.93L161.378 76.6348L162.304 74.7997C162.388 74.6343 162.614 74.6343 162.697 74.7997L163.624 76.6348L165.701 76.93C165.888 76.9563 165.96 77.1997 165.821 77.3329L164.327 78.7562L164.679 80.7622C164.712 80.9501 164.526 81.0973 164.362 81.0133L162.5 80.0565L160.639 81.0133H160.639Z" fill="#FFB359"/>
</g>
</g>
<defs>
<filter id="filter0_d_39_2365" x="0.000488281" y="0" width="251.488" height="135" filterUnits="userSpaceOnUse" color-interpolation-filters="sRGB">
<feFlood flood-opacity="0" result="BackgroundImageFix"/>
<feColorMatrix in="SourceAlpha" type="matrix" values="0 0 0 0 0 0 0 0 0 0 0 0 0 0 0 0 0 0 127 0" result="hardAlpha"/>
<feOffset dy="10"/>
<feGaussianBlur stdDeviation="10"/>
<feComposite in2="hardAlpha" operator="out"/>
<feColorMatrix type="matrix" values="0 0 0 0 0.921569 0 0 0 0 0.513726 0 0 0 0 0.509804 0 0 0 0.4 0"/>
<feBlend mode="normal" in2="BackgroundImageFix" result="effect1_dropShadow_39_2365"/>
<feBlend mode="normal" in="SourceGraphic" in2="effect1_dropShadow_39_2365" result="shape"/>
</filter>
<linearGradient id="paint0_linear_39_2365" x1="51.8326" y1="28.5983" x2="50.2211" y2="35.5052" gradientUnits="userSpaceOnUse">
<stop stop-color="#E474C6"/>
<stop offset="0.9892" stop-color="#0E7CF7"/>
</linearGradient>
<linearGradient id="paint1_linear_39_2365" x1="84.1184" y1="28.6266" x2="87.6007" y2="35.0283" gradientUnits="userSpaceOnUse">
<stop stop-color="#E474C6"/>
<stop offset="0.9892" stop-color="#0E7CF7"/>
</linearGradient>
<linearGradient id="paint2_linear_39_2365" x1="69.1246" y1="42.9601" x2="68.937" y2="79.0233" gradientUnits="userSpaceOnUse">
<stop stop-color="#826F8C"/>
<stop offset="1" stop-color="#446381"/>
</linearGradient>
<linearGradient id="paint3_linear_39_2365" x1="69.3646" y1="33.2292" x2="68.6683" y2="99.7517" gradientUnits="userSpaceOnUse">
<stop stop-color="#826F8C"/>
<stop offset="0.9946" stop-color="#446381"/>
</linearGradient>
<linearGradient id="paint4_linear_39_2365" x1="70.6213" y1="30.1854" x2="68.8216" y2="73.2429" gradientUnits="userSpaceOnUse">
<stop stop-color="#8F4EB6"/>
<stop offset="0.9946" stop-color="#446381"/>
</linearGradient>
<linearGradient id="paint5_linear_39_2365" x1="60.2264" y1="49.3087" x2="59.9014" y2="61.2992" gradientUnits="userSpaceOnUse">
<stop stop-color="#8F4EB6"/>
<stop offset="0.9946" stop-color="#5141AE"/>
</linearGradient>
<linearGradient id="paint6_linear_39_2365" x1="60.0627" y1="52.5854" x2="59.9766" y2="69.1289" gradientUnits="userSpaceOnUse">
<stop stop-color="#6F469E"/>
<stop offset="1" stop-color="#360F6E"/>
</linearGradient>
<linearGradient id="paint7_linear_39_2365" x1="54.8341" y1="53.2012" x2="64.0303" y2="53.2491" gradientUnits="userSpaceOnUse">
<stop stop-color="#CB9DFF"/>
<stop offset="0.9892" stop-color="#796AFB"/>
</linearGradient>
<linearGradient id="paint8_linear_39_2365" x1="59.1319" y1="50.6971" x2="60.3897" y2="61.2953" gradientUnits="userSpaceOnUse">
<stop stop-color="#CB9DFF"/>
<stop offset="0.9892" stop-color="#796AFB"/>
</linearGradient>
<linearGradient id="paint9_linear_39_2365" x1="75.4097" y1="47.1086" x2="75.5076" y2="61.9462" gradientUnits="userSpaceOnUse">
<stop stop-color="#8F4EB6"/>
<stop offset="0.9946" stop-color="#5141AE"/>
</linearGradient>
<linearGradient id="paint10_linear_39_2365" x1="75.4868" y1="52.6656" x2="75.4007" y2="69.2091" gradientUnits="userSpaceOnUse">
<stop stop-color="#6F469E"/>
<stop offset="1" stop-color="#360F6E"/>
</linearGradient>
<linearGradient id="paint11_linear_39_2365" x1="70.258" y1="53.2816" x2="79.4541" y2="53.3295" gradientUnits="userSpaceOnUse">
<stop stop-color="#CB9DFF"/>
<stop offset="0.9892" stop-color="#796AFB"/>
</linearGradient>
<linearGradient id="paint12_linear_39_2365" x1="74.3323" y1="48.8933" x2="75.5902" y2="59.4915" gradientUnits="userSpaceOnUse">
<stop stop-color="#CB9DFF"/>
<stop offset="0.9892" stop-color="#796AFB"/>
</linearGradient>
<linearGradient id="paint13_linear_39_2365" x1="87.621" y1="36.6137" x2="87.5337" y2="44.9727" gradientUnits="userSpaceOnUse">
<stop stop-color="#8F4EB6"/>
<stop offset="0.9946" stop-color="#5141AE"/>
</linearGradient>
<linearGradient id="paint14_linear_39_2365" x1="86.9246" y1="37.4565" x2="88.1155" y2="44.1153" gradientUnits="userSpaceOnUse">
<stop stop-color="#D2F9FF"/>
<stop offset="0.9946" stop-color="#618DD6"/>
</linearGradient>
<linearGradient id="paint15_linear_39_2365" x1="87.6092" y1="45.3536" x2="87.4887" y2="51.6991" gradientUnits="userSpaceOnUse">
<stop stop-color="#8F4EB6"/>
<stop offset="0.9946" stop-color="#5141AE"/>
</linearGradient>
<linearGradient id="paint16_linear_39_2365" x1="87.042" y1="46.7861" x2="87.9779" y2="51.9554" gradientUnits="userSpaceOnUse">
<stop stop-color="#D2F9FF"/>
<stop offset="0.9946" stop-color="#618DD6"/>
</linearGradient>
<linearGradient id="paint17_linear_39_2365" x1="92.0623" y1="39.8716" x2="91.9379" y2="46.9612" gradientUnits="userSpaceOnUse">
<stop stop-color="#8F4EB6"/>
<stop offset="0.9946" stop-color="#5141AE"/>
</linearGradient>
<linearGradient id="paint18_linear_39_2365" x1="91.0055" y1="42.1849" x2="92.8997" y2="48.2346" gradientUnits="userSpaceOnUse">
<stop stop-color="#D2F9FF"/>
<stop offset="0.9946" stop-color="#618DD6"/>
</linearGradient>
<linearGradient id="paint19_linear_39_2365" x1="83.6061" y1="41.2801" x2="83.7032" y2="47.8456" gradientUnits="userSpaceOnUse">
<stop stop-color="#8F4EB6"/>
<stop offset="0.9946" stop-color="#5141AE"/>
</linearGradient>
<linearGradient id="paint20_linear_39_2365" x1="83.1326" y1="42.7397" x2="84.2436" y2="47.9101" gradientUnits="userSpaceOnUse">
<stop stop-color="#D2F9FF"/>
<stop offset="0.9946" stop-color="#618DD6"/>
</linearGradient>
<linearGradient id="paint21_linear_39_2365" x1="49.4531" y1="32.9927" x2="49.8781" y2="52.2523" gradientUnits="userSpaceOnUse">
<stop stop-color="#8F4EB6"/>
<stop offset="0.9946" stop-color="#5141AE"/>
</linearGradient>
<linearGradient id="paint22_linear_39_2365" x1="52.5386" y1="32.2612" x2="48.07" y2="49.9198" gradientUnits="userSpaceOnUse">
<stop stop-color="#E474C6"/>
<stop offset="0.9892" stop-color="#0E7CF7"/>
</linearGradient>
<linearGradient id="paint23_linear_39_2365" x1="47.8941" y1="37.6602" x2="50.6482" y2="46.6905" gradientUnits="userSpaceOnUse">
<stop stop-color="#D2F9FF"/>
<stop offset="0.9946" stop-color="#618DD6"/>
</linearGradient>
<linearGradient id="paint24_linear_39_2365" x1="64.5992" y1="42.9842" x2="64.4798" y2="49.111" gradientUnits="userSpaceOnUse">
<stop stop-color="#E474C6"/>
<stop offset="0.9892" stop-color="#7142A2"/>
</linearGradient>
<linearGradient id="paint25_linear_39_2365" x1="72.8424" y1="43.1449" x2="72.723" y2="49.2718" gradientUnits="userSpaceOnUse">
<stop stop-color="#E474C6"/>
<stop offset="0.9892" stop-color="#7142A2"/>
</linearGradient>
<clipPath id="clip0_39_2365">
<rect width="6.78571" height="6.78571" fill="white" transform="translate(148.929 74.4639)"/>
</clipPath>
<clipPath id="clip1_39_2365">
<rect width="6.78571" height="6.78571" fill="white" transform="translate(138.75 74.4639)"/>
</clipPath>
<clipPath id="clip2_39_2365">
<rect width="6.78571" height="6.78571" fill="white" transform="translate(128.572 74.4639)"/>
</clipPath>
<clipPath id="clip3_39_2365">
<rect width="6.78571" height="6.78571" fill="white" transform="translate(118.393 74.464)"/>
</clipPath>
<clipPath id="clip4_39_2365">
<rect width="6.78571" height="6.78571" fill="white" transform="translate(159.107 74.4639)"/>
</clipPath>
</defs>
</svg>
