<svg width="569" height="585" viewBox="0 0 569 585" fill="none" xmlns="http://www.w3.org/2000/svg">
<path opacity="0.3" d="M329.585 583.829C458.22 583.829 562.5 479.549 562.5 350.914C562.5 222.279 458.22 117.999 329.585 117.999C200.949 117.999 96.6699 222.279 96.6699 350.914C96.6699 479.549 200.949 583.829 329.585 583.829Z" fill="#4E8FD3"/>
<path opacity="0.3" d="M276.915 580.829C405.55 580.829 509.83 476.549 509.83 347.914C509.83 219.279 405.55 114.999 276.915 114.999C148.279 114.999 43.9999 219.279 43.9999 347.914C43.9999 476.549 148.279 580.829 276.915 580.829Z" fill="#4E8FD3"/>
<path d="M304.492 582.829C433.127 582.829 537.407 478.549 537.407 349.914C537.407 221.279 433.127 116.999 304.492 116.999C175.857 116.999 71.5771 221.279 71.5771 349.914C71.5771 478.549 175.857 582.829 304.492 582.829Z" fill="url(#paint0_linear_39_2251)"/>
<path d="M429.322 86.8252C426.252 67.8889 419.769 51.6821 404.756 38.546C402.027 36.1577 395.885 41.105 398.444 43.664C414.992 59.5296 419.769 76.2482 420.281 101.497C420.451 110.88 420.11 121.798 419.086 133.74C418.233 142.952 427.616 142.44 428.64 136.81C430.346 125.38 431.199 97.9141 429.322 86.8252Z" fill="#EB8382"/>
<path d="M411.239 52.7058C409.874 50.4881 408.339 48.4409 406.633 46.3937C404.245 43.8348 401.174 41.617 401.515 38.0344C398.956 38.8874 396.738 41.7876 398.615 43.4935C415.163 59.3591 419.94 76.0777 420.451 101.326C420.622 110.709 420.281 121.627 419.257 133.569C419.087 136.469 419.769 138.346 420.963 139.54C425.228 130.157 424.887 117.874 425.058 108.321C425.228 95.0141 423.863 81.5369 419.428 68.9126C417.21 63.2829 414.48 57.8238 411.239 52.7058Z" fill="#C37A87"/>
<path d="M386.161 44.6876C366.713 20.9745 331.911 7.83845 286.361 25.0688C265.719 32.9163 250.877 45.0288 242.006 61.4062C230.064 83.4133 229.552 122.992 236.376 149.435C237.059 152.847 237.912 156.088 238.935 159.329C244.906 181.166 256.166 200.955 274.761 215.115C292.162 228.08 314.339 233.369 336.005 229.445C357.671 225.351 376.266 211.362 387.697 193.619C415.163 150.629 419.598 85.4605 386.161 44.6876Z" fill="#521E3F"/>
<path d="M538.983 456.975C537.448 448.104 535.401 439.403 532.842 430.703C529.6 419.955 522.265 412.108 518.341 401.701C515.952 395.56 517.317 386.859 515.099 380.718C512.711 374.576 506.228 371.847 503.84 365.705C501.452 359.564 502.987 350.181 500.428 344.21C495.822 333.974 490.704 323.738 484.904 314.185C475.18 298.149 462.043 281.43 445.666 271.365C444.131 270.341 442.595 269.488 441.06 268.635C430.483 261.641 416.323 257.034 401.652 250.893C389.028 245.604 339.384 234.516 294.005 234.516C252.038 234.686 213.653 245.604 209.9 246.628C181.922 254.305 173.392 254.987 147.973 277.506C137.908 286.377 128.013 295.419 117.606 303.778C112.318 308.043 103.276 308.043 97.8171 311.796C90.652 316.914 86.8989 325.785 79.0514 330.05C56.5325 342.163 31.1134 343.016 16.6126 365.535C10.3004 375.259 4.50012 395.901 4.50012 407.502C4.50012 416.885 9.27687 425.414 16.2714 431.385C30.0898 443.157 51.2439 444.18 68.4743 443.498C93.5522 442.304 118.289 434.627 141.661 425.926C164.009 417.567 172.539 425.244 171.515 442.645C170.662 457.828 169.809 473.011 169.298 488.365C168.615 504.913 163.512 531.452 163 548C162.488 566.254 239.018 577.6 258.125 580.5C275.339 583.114 259.293 580.602 288.625 583C337.781 587.019 396.679 580.749 409.5 567.5C411.718 565.282 417.688 552.169 421.782 521.973C423.659 508.154 428.947 503.378 440.036 513.614C453.343 526.067 470.744 534.256 488.827 535.45C508.617 536.815 526.359 526.408 535.059 508.837C542.736 492.801 541.883 473.864 538.983 456.975Z" fill="#C5C7D2" fill-opacity="0.2"/>
<path d="M497.22 361.829C494.15 368.312 491.591 374.624 487.496 380.595C482.89 387.248 477.602 393.389 471.972 399.36C471.801 399.531 471.972 399.702 472.143 399.702C478.455 395.095 483.743 389.466 488.349 383.154C492.614 377.183 497.05 369.506 497.562 361.999C497.562 361.829 497.22 361.658 497.22 361.829Z" fill="#F5F5F5"/>
<path d="M275.102 291.031C271.861 284.548 267.937 279.601 260.601 278.406C253.266 277.212 245.589 279.942 238.935 282.671C226.482 287.96 213.857 295.807 204.816 306.726C197.992 314.914 258.725 324.638 268.79 324.638C288.067 324.809 280.561 302.29 275.102 291.031Z" fill="#FFA26E"/>
<path d="M278.002 308.944C276.808 305.19 275.784 299.902 270.666 299.39C269.472 299.219 266.231 299.39 264.013 300.072C260.942 301.096 261.795 303.143 262.648 305.02C264.354 308.773 266.401 312.014 271.178 312.526C274.59 313.038 279.026 312.014 278.002 308.944Z" fill="white"/>
<path d="M252.924 314.914C249.001 308.091 248.318 299.902 247.806 292.225C247.806 291.884 247.465 291.884 247.295 292.225C246.953 293.76 246.783 295.637 246.612 297.343C244.565 302.631 237.4 301.096 233.647 304.508C230.235 307.749 228.699 312.185 229.382 316.791C229.552 317.473 229.552 318.156 229.723 318.838C241.153 321.397 253.777 323.444 261.795 324.297C258.383 321.909 255.313 319.009 252.924 314.914Z" fill="#F4905D"/>
<path d="M334.129 238.487C321.846 237.122 309.222 236.61 296.938 237.122C273.055 237.975 262.478 258.788 281.755 276.359C306.151 298.878 348.8 301.608 367.737 272.947C374.39 262.882 375.925 247.358 354.942 241.728C347.265 239.681 338.906 238.998 334.129 238.487Z" fill="#F5F5F5"/>
<path d="M535.946 470.67C530.999 459.581 522.81 450.028 513.427 442.522C497.562 429.727 477.09 423.585 458.324 416.25C447.747 412.155 436.829 407.89 427.275 401.919C422.328 398.849 416.698 394.242 410.727 397.143C405.78 399.531 402.539 405.672 400.15 410.108C397.25 415.567 395.032 421.367 392.985 427.168C387.867 442.01 384.796 449.175 395.885 458.217C403.05 464.017 415.675 473.741 420.963 479.371C430.176 489.607 438.194 500.866 447.747 510.761C461.566 525.262 480.843 535.497 500.974 536.862C520.592 538.056 540.552 526.115 543.623 505.643C545.329 493.872 540.723 481.247 535.946 470.67Z" fill="#FFA26E"/>
<path d="M538.676 518.779C532.193 523.044 524.004 525.261 516.668 525.944C504.385 527.138 491.42 525.261 480.16 520.143C470.778 515.708 462.93 508.372 456.277 500.525C440.07 481.077 428.64 456.852 423.522 432.115C421.134 420.856 419.428 406.867 413.116 396.46C412.263 396.631 411.41 396.801 410.557 397.313C405.609 399.701 402.368 405.843 399.98 410.279C397.079 415.738 394.862 421.538 392.814 427.338C387.696 442.18 384.626 449.345 395.715 458.387C402.88 464.187 415.504 473.912 420.792 479.541C430.005 489.777 438.023 501.037 447.576 510.931C461.395 525.432 480.672 535.668 500.803 537.033C515.815 537.886 530.999 531.062 538.676 518.779Z" fill="#F4905D"/>
<path d="M188.438 324.809C163.702 331.121 130.947 336.58 105.357 338.969C82.3265 341.016 57.7604 341.016 38.1417 354.834C29.4412 360.976 22.1055 369.676 15.4522 378.036C8.96946 386.054 2.99853 395.437 1.29256 405.843C0.0983714 413.52 2.48674 422.562 8.96946 427.338C15.964 432.456 25.0057 434.333 33.3649 435.527C41.2124 436.551 49.2305 436.892 57.2486 437.062C68.5081 437.404 78.9145 435.186 89.4916 431.262C101.263 426.997 181.785 394.584 189.803 386.907C195.945 380.936 199.527 372.747 201.404 364.558C206.692 342.892 200.721 321.738 188.438 324.809Z" fill="#FFA26E"/>
<path d="M189.974 386.736C192.021 384.86 193.727 382.471 195.262 380.253C194.75 379.23 194.239 378.036 193.556 377.012C184.173 359.782 151.077 349.546 119.005 372.577C112.181 377.524 106.381 383.836 99.8981 389.125C91.3682 396.119 81.3029 401.237 71.2377 405.673C55.7133 412.667 33.7061 419.662 17.8405 410.108C9.65184 405.161 7.43408 397.143 7.77528 388.613C4.70452 393.901 2.14555 399.531 1.29256 405.502C0.0983713 413.179 2.48674 422.221 8.96946 426.997C15.964 432.115 25.0057 433.992 33.365 435.186C41.2125 436.21 49.2305 436.551 57.2486 436.721C68.5081 437.063 78.9146 434.845 89.4916 430.921C101.433 426.827 181.956 394.413 189.974 386.736Z" fill="#F4905D"/>
<path d="M400.662 339.992C399.297 334.362 397.591 329.245 392.132 326.515C384.967 322.932 370.125 321.738 367.737 331.633C365.86 339.651 370.978 351.934 377.461 356.711C388.208 364.729 407.145 367.8 404.756 355.175C403.903 350.057 401.856 345.11 400.662 339.992Z" fill="#FFA26E"/>
<path d="M406.633 359.099C403.05 356.199 380.702 344.428 376.778 343.745C369.443 342.381 366.201 344.769 358.866 344.769C356.136 344.769 318.604 331.974 309.733 327.368C306.492 325.662 304.615 321.738 303.421 320.715C296.768 314.744 279.026 310.991 270.155 310.138C267.425 309.967 260.772 312.185 253.607 315.426C233.476 324.638 223.923 333.339 212.663 360.805C209.081 369.335 206.01 378.377 205.328 387.589C204.816 396.289 209.251 401.578 218.975 400.725C227.676 400.043 251.73 379.912 264.525 369.335C269.643 365.07 271.008 366.605 274.59 368.311C275.273 368.653 276.126 368.994 277.149 369.506C279.879 370.87 279.879 372.235 279.026 375.818C278.173 378.889 277.49 381.789 277.661 384.859C278.002 389.124 282.779 391.342 286.191 392.878C292.332 395.607 298.815 397.825 304.957 400.896C310.586 403.625 313.998 399.872 318.434 396.631C319.628 395.778 320.822 394.925 322.016 394.072C324.064 392.536 327.476 392.536 328.67 393.048C331.399 394.242 333.958 395.266 336.517 396.46C341.976 398.848 341.635 405.672 339.076 414.714C328.329 453.269 351.018 440.645 367.054 430.58C379.167 422.903 393.497 412.496 404.415 398.507C408.168 393.219 411.239 362.852 406.633 359.099Z" fill="#3C68CD"/>
<path d="M306.321 332.315C305.81 332.145 300.35 342.551 299.327 347.84C298.986 349.546 339.247 365.07 339.588 364.558C342.147 360.464 344.535 354.152 346.924 348.522C347.094 348.01 320.31 338.116 306.321 332.315Z" fill="#2453B2"/>
<path d="M403.392 399.36C407.145 388.613 406.803 377.012 397.591 368.994C389.914 362.17 378.314 360.805 368.419 361.488C356.307 362.341 346.412 368.141 337.029 375.306C331.74 379.4 326.793 384.007 320.822 387.418C313.316 391.854 306.321 392.025 298.474 388.954C295.062 387.589 291.65 385.883 288.75 383.495C285.508 380.936 286.191 376.33 287.044 372.747C288.409 366.264 290.797 360.293 291.138 353.64C291.821 343.575 285.508 335.216 277.32 330.098C255.483 316.62 231.258 326.344 221.875 341.528C218.634 346.646 215.734 352.958 212.493 360.635C208.91 369.165 205.839 378.206 205.157 387.418C204.645 396.119 209.081 401.407 218.805 400.554C227.505 399.872 251.559 379.742 264.354 369.165C269.472 364.9 270.837 366.435 274.42 368.141C275.102 368.482 275.955 368.823 276.979 369.335C279.708 370.7 279.708 372.065 278.855 375.647C278.002 378.718 277.32 381.618 277.49 384.689C277.832 388.954 282.608 391.172 286.02 392.707C292.162 395.437 298.644 397.654 304.786 400.725C310.416 403.455 313.828 399.702 318.263 396.46C319.457 395.607 320.652 394.754 321.846 393.901C323.893 392.366 327.305 392.366 328.499 392.878C331.229 394.072 333.788 395.095 336.347 396.29C341.806 398.678 341.464 405.502 338.906 414.544C328.158 453.099 350.847 440.474 366.884 430.409C378.655 422.903 392.473 412.667 403.392 399.36Z" fill="#2453B2"/>
<path d="M364.495 251.793C363.813 247.869 362.619 244.287 362.789 240.363C362.789 237.122 363.472 218.527 363.13 206.926C362.96 202.661 362.789 197.714 351.359 196.349C342.318 195.325 301.033 196.349 296.085 196.519C289.773 196.861 287.214 199.42 287.214 205.22C287.044 215.115 287.385 225.18 284.997 234.733C283.291 241.728 280.22 248.722 281.073 256.058C281.926 263.906 288.92 268.512 295.403 271.924C304.957 276.871 315.875 278.748 326.623 278.918C336.005 279.089 346.071 277.383 354.601 273.118C362.96 268.512 366.201 260.835 364.495 251.793Z" fill="#E87F52"/>
<path d="M313.316 261.347C303.933 246.675 311.098 227.057 319.116 213.409C323.381 206.073 329.011 200.273 335.323 195.496C319.799 195.496 299.327 196.008 295.915 196.178C289.603 196.52 287.044 199.079 287.044 204.879C286.873 214.774 287.214 224.839 284.826 234.392C283.12 241.387 280.049 248.381 280.902 255.717C281.755 263.565 288.75 268.171 295.233 271.583C304.786 276.53 315.704 278.406 326.452 278.577C335.835 278.748 345.9 277.042 354.43 272.777C355.454 272.265 356.307 271.753 357.16 271.071C340.953 276.359 322.869 276.359 313.316 261.347Z" fill="#DB6B45"/>
<path d="M384.626 151.823C385.308 144.317 387.185 118.215 388.72 112.756C391.279 104.738 401.003 104.567 408.168 105.079C412.263 105.42 417.039 106.273 421.475 107.809C429.152 110.538 433.417 112.585 433.246 119.239C432.222 141.928 428.981 159.329 425.569 169.906C422.669 178.607 419.086 180.142 413.798 180.654C410.045 180.995 399.809 179.972 393.667 179.119C389.232 178.436 384.626 177.071 383.602 169.053C382.92 163.253 384.114 156.77 384.626 151.823Z" fill="#93426E"/>
<path d="M393.667 178.948C395.715 179.289 398.274 179.631 400.833 179.972C408.509 180.825 413.969 173.489 417.039 165.13C421.304 153.188 422.157 139.711 421.816 127.428C421.645 121.286 421.475 114.121 420.281 107.297C416.186 105.932 411.921 105.25 408.168 104.909C401.003 104.226 391.279 104.567 388.72 112.586C387.014 118.045 385.308 144.146 384.626 151.652C384.114 156.6 383.09 163.083 383.773 168.883C384.626 176.901 389.402 178.266 393.667 178.948Z" fill="#7C315D"/>
<path d="M370.637 35.987C354.771 30.1867 328.158 28.8219 305.468 33.2575C272.372 39.7402 250.365 65.8416 247.124 106.273C245.418 126.745 247.295 149.435 252.071 170.247C266.231 231.321 322.528 245.311 351.189 236.61C367.225 231.663 378.825 221.597 387.355 207.267C405.439 177.242 416.528 124.357 405.78 81.3661C400.662 61.2355 390.085 43.1521 370.637 35.987Z" fill="#FFA26E"/>
<path d="M405.609 81.3661C400.491 61.2355 390.085 43.1521 370.466 35.987C354.601 30.1867 327.987 28.8219 305.298 33.2575C272.202 39.7402 250.195 65.8416 246.953 106.273C245.247 126.745 247.124 149.435 251.901 170.247C262.478 215.456 296.086 234.904 324.405 238.316C323.211 237.975 321.846 237.634 320.652 237.292C309.222 233.88 298.474 228.421 289.773 220.233C281.585 212.726 275.102 202.661 274.42 191.402C273.908 180.995 280.561 171.953 288.92 166.494C303.933 156.941 324.064 156.088 341.294 156.429C351.871 156.6 362.619 157.453 373.196 157.964C383.261 158.476 394.691 158.306 404.586 160.865C410.727 135.787 412.092 106.785 405.609 81.3661Z" fill="#F4905D"/>
<path d="M388.038 28.8217C365.348 8.69117 335.664 4.25563 306.663 10.2266C280.22 15.6857 254.801 30.3571 241.665 54.7526C234.841 67.5474 230.747 82.56 230.064 97.0608C229.723 106.444 231.429 120.433 238.424 128.11C241.324 131.351 242.177 129.133 241.835 126.062C239.618 109.003 242.859 91.0899 253.607 77.2715C265.89 61.4059 287.556 61.7471 305.639 63.1119C324.575 64.6473 343 68.571 362.107 67.3768C370.466 66.865 382.067 65.5002 389.061 59.5293C394.862 64.8179 399.468 70.7888 403.05 78.2951C406.633 85.8014 407.657 93.8195 408.51 102.008C408.851 106.614 410.386 107.297 411.58 102.52C417.722 75.9067 408.51 47.0757 388.038 28.8217Z" fill="#521E3F"/>
<path d="M333.788 20.4625C331.57 17.5623 328.84 16.1975 325.77 15.8563C322.869 15.3446 309.221 15.8564 305.468 16.5387C303.592 16.8799 301.886 17.2211 300.35 17.9035C298.644 18.5859 299.327 19.2683 300.35 19.9507C312.463 27.9688 313.145 50.4877 313.145 63.9649C313.145 65.8415 314.681 66.3533 317.069 66.3533C325.087 66.1827 332.935 65.8415 340.953 65.6709C344.023 65.5003 344.365 65.1591 344.535 62.9413C345.218 47.5875 342.488 32.0631 333.788 20.4625Z" fill="#1B4C9B"/>
<path d="M319.799 50.3171C317.922 44.005 318.093 37.0105 320.822 31.0396C323.552 24.898 329.181 22.6803 335.323 22.5097C334.811 21.8273 334.299 21.1449 333.788 20.4625C331.57 17.5623 328.84 16.1975 325.77 15.8563C322.869 15.3446 309.221 15.8564 305.468 16.5387C303.592 16.8799 301.886 17.2211 300.35 17.9035C298.644 18.5859 299.327 19.2683 300.35 19.9507C312.463 27.9688 313.145 50.4877 313.145 63.9649C313.145 65.8415 314.681 66.3533 317.069 66.3533C321.334 66.1827 325.77 66.1827 330.034 66.0121C325.258 61.5766 321.505 56.288 319.799 50.3171Z" fill="#103E82"/>
<path d="M263.331 155.064C262.648 147.558 260.772 121.456 259.236 115.997C256.677 107.979 246.953 107.809 239.788 108.32C235.694 108.662 230.917 109.515 226.482 111.05C218.805 113.78 214.54 115.827 214.71 122.48C215.734 145.17 218.975 162.571 222.387 173.148C225.287 181.848 228.87 183.383 234.159 183.895C237.912 184.236 248.148 183.213 254.289 182.36C258.725 181.677 263.331 180.313 264.354 172.295C264.866 166.665 263.672 160.182 263.331 155.064Z" fill="#93426E"/>
<path d="M259.066 115.997C256.848 109.003 249.001 107.979 242.347 108.15C249.854 117.021 251.048 131.351 251.73 142.44C253.436 175.536 246.953 180.654 235.012 184.066C239.277 184.236 248.489 183.213 254.119 182.36C258.554 181.677 263.16 180.313 264.184 172.295C264.866 166.494 263.672 160.011 263.331 155.064C262.648 147.728 260.772 121.456 259.066 115.997Z" fill="#7C315D"/>
<path d="M230.576 123.333C226.141 114.974 214.028 112.586 214.711 125.38C215.905 146.705 218.976 163.253 222.387 173.318C226.823 186.454 234.5 176.219 235.865 170.248C238.765 158.306 235.694 132.887 230.576 123.333Z" fill="#D3D0FF"/>
<path d="M230.576 123.333C226.993 116.509 218.464 113.78 215.734 119.58C220.511 116.168 226.311 120.092 228.87 126.745C231.088 132.545 231.941 139.199 233.135 145.34C234.67 153.529 235.353 162.059 232.453 170.077C231.77 172.295 230.576 174.001 229.041 175.707C226.482 178.436 223.923 174.512 222.729 172.806C222.387 172.295 222.046 171.612 221.705 170.93C221.876 171.783 222.217 172.465 222.387 173.148C226.823 186.284 234.5 176.048 235.865 170.077C238.765 158.306 235.694 132.886 230.576 123.333Z" fill="#B1B1F2"/>
<path d="M394.009 51.8526C383.602 50.4878 373.025 49.976 362.619 49.8054C335.494 49.2936 281.073 51.8526 259.578 59.7001C254.118 61.7473 243.371 67.377 240.3 78.6364C236.717 91.9431 237.57 114.633 240.3 129.986C243.883 150.629 256.848 155.064 267.084 156.77C297.791 162.229 369.101 162.059 411.751 156.6C424.034 155.064 434.952 144.658 436.146 132.716C438.705 108.15 437.34 93.8197 436.829 83.4132C435.805 59.1883 420.451 55.2645 394.009 51.8526Z" fill="#3C68CD"/>
<path d="M428.469 75.0539C426.422 68.7418 422.328 63.7944 414.822 60.5531C394.691 52.0232 328.84 54.5822 293.527 58.3353C279.026 59.8707 269.302 63.112 263.842 69.083C256.166 77.6128 257.701 119.409 261.284 129.475C266.401 143.805 280.049 144.317 290.626 144.999C317.41 146.534 392.985 147.046 413.798 140.222C425.74 136.298 429.834 131.522 430.858 110.368C431.37 98.4258 430.687 82.0484 428.469 75.0539Z" fill="#1B4C9B"/>
<path d="M407.486 35.4752C399.468 25.0687 388.55 18.0742 376.949 12.1033C363.472 5.10878 349.824 1.18504 334.811 0.332052C307.004 -1.03273 276.467 5.44998 254.289 22.851C249.001 26.9453 239.788 34.281 238.765 42.1285C238.253 45.7111 242.859 51.5114 246.271 51.8526C248.148 52.0232 256.848 50.4878 259.236 49.123C261.795 47.5876 264.184 45.7111 266.402 44.0051C279.196 34.1104 293.356 26.6041 309.051 22.3392C326.793 17.5624 343.512 19.7802 360.06 27.2865C366.542 30.1867 372.684 33.9398 378.655 37.693C383.09 40.4225 387.185 43.4933 392.132 45.1993C392.815 45.3699 396.226 46.2229 399.638 45.8817C402.709 45.5405 405.78 44.3463 406.804 43.1521C408.851 40.7637 408.68 37.0106 407.486 35.4752Z" fill="#EB8382"/>
<path d="M369.101 26.9454C353.577 18.0743 337.029 13.6387 319.116 16.0271C303.08 18.2449 287.215 24.7276 273.567 33.7693C267.255 37.8636 259.748 43.8345 251.73 42.4698C248.489 41.958 245.759 39.399 242.347 39.399C241.153 39.399 239.959 39.5696 239.106 39.9108C238.935 40.5932 238.765 41.2756 238.594 41.958C238.082 45.5405 242.688 51.3408 246.1 51.682C247.977 51.8526 256.678 50.3173 259.066 48.9525C261.625 47.4171 264.013 45.5405 266.231 43.8345C279.026 33.9399 293.185 26.4336 308.88 22.1686C326.623 17.3919 343.341 19.6096 359.889 27.1159C366.372 30.0161 372.513 33.7693 378.484 37.5224C382.92 40.252 387.014 43.3227 391.962 45.0287C392.644 45.1993 396.056 46.0523 399.468 45.7111C402.027 45.5405 404.415 44.5169 405.78 43.6639C393.156 47.0759 380.19 33.2575 369.101 26.9454Z" fill="#C37A87"/>
<path d="M238.424 43.664C231.429 50.4879 220.511 67.3771 214.54 86.484C209.934 101.326 208.91 117.362 210.787 133.398C211.128 136.64 211.981 140.564 213.858 143.464C215.222 145.681 218.634 145.852 221.876 145.34C225.117 144.828 228.188 143.634 228.358 139.711C228.7 135.616 228.017 130.839 227.676 127.428C226.994 119.58 223.07 113.097 223.07 104.909C223.24 76.76 235.865 61.4062 246.271 49.4643C248.318 47.5877 242.177 39.9108 238.424 43.664Z" fill="#EB8382"/>
<path d="M296.427 336.41C289.944 329.586 282.096 323.956 274.078 319.179C265.89 314.403 256.677 310.138 246.953 307.408C234.329 303.996 216.928 299.731 202.086 307.238C189.632 313.379 179.738 325.492 172.573 337.092C165.408 348.352 159.948 361.658 160.46 375.306C160.631 379.4 161.484 383.324 163.019 386.907C163.019 386.907 163.019 387.077 163.19 387.077C164.043 388.954 165.066 390.66 166.09 392.195C166.09 392.195 166.09 392.366 166.261 392.366C166.431 392.707 166.602 392.878 166.943 393.219C170.355 397.996 174.62 402.261 179.397 405.331C187.073 410.279 215.052 410.449 228.87 410.79C235.011 410.961 240.129 406.355 242.006 403.284C245.247 403.284 248.318 402.431 251.218 400.725C255.313 398.166 258.042 393.731 258.383 389.295C258.895 389.295 259.236 389.295 259.748 389.125C265.89 388.101 268.96 382.13 270.496 376.5C271.349 373.43 271.861 368.312 269.813 366.606C269.131 366.094 260.089 367.117 254.118 363.023C250.365 360.464 247.295 357.052 244.394 353.811C241.835 351.081 237.912 346.646 236.035 342.381C234.159 337.604 235.694 335.557 239.959 336.922C250.365 339.992 260.431 344.769 269.472 351.081C276.808 356.199 284.655 361.829 294.038 361.999C299.327 362.17 304.957 358.929 305.298 353.128C305.468 346.304 300.692 341.187 296.427 336.41Z" fill="#FFA26E"/>
<path d="M427.616 384.348C427.105 379.571 423.693 375.306 421.134 371.382C417.892 366.776 415.163 362.17 411.239 358.076C403.903 350.569 392.473 350.569 382.749 350.228C372.855 349.887 362.789 349.716 352.895 351.252C345.047 352.446 339.417 355.517 339.076 364.047C338.906 370.017 344.365 372.918 349.312 374.282C361.254 377.524 374.731 374.794 386.332 378.036C391.45 379.4 391.791 381.277 390.597 385.542C390.256 386.565 389.914 387.589 389.573 388.613C387.697 393.048 383.432 394.584 380.361 395.948C376.608 397.484 372.343 399.36 369.272 400.213C364.836 401.578 360.572 402.09 356.307 399.872C353.236 398.337 350.677 395.607 347.435 394.584C340.27 392.025 332.764 391.854 325.599 394.584C322.699 395.607 320.14 397.654 320.481 400.554C318.263 402.431 317.751 405.161 318.946 408.914C321.334 417.444 324.917 427.68 330.546 434.674C330.717 434.845 330.887 435.186 331.229 435.356C331.911 439.11 334.982 442.522 338.735 445.422C343.512 449.004 348.8 452.075 353.918 455.316C359.036 458.558 364.836 462.652 370.807 463.676C377.973 464.87 387.867 464.699 394.52 461.629C398.103 459.923 401.344 454.463 402.709 451.051C403.05 450.198 403.392 449.175 403.562 448.322C406.462 446.786 409.192 444.739 411.41 442.522C414.992 438.939 415.845 433.992 415.504 429.044C419.257 425.632 422.669 421.709 424.887 417.614C428.128 411.643 427.105 403.625 424.034 397.484C426.422 393.219 428.128 388.783 427.616 384.348Z" fill="#FFA26E"/>
<path d="M359.036 179.46C348.118 182.872 334.811 184.236 317.24 180.995C307.174 179.118 302.056 185.942 304.274 194.472C306.321 202.32 310.927 207.779 316.728 211.532C336.858 224.156 358.183 214.944 365.178 206.414C368.931 201.808 371.319 196.519 372.172 191.572C373.537 182.019 366.542 177.071 359.036 179.46Z" fill="#7C2D0E"/>
<path d="M320.822 209.997C326.111 212.897 331.911 214.262 337.712 214.262C345.73 214.262 353.406 211.362 358.354 207.779C362.619 204.708 361.595 201.979 356.648 200.273C345.559 196.52 332.423 197.031 321.846 201.979C314.681 205.391 316.046 207.608 320.822 209.997Z" fill="#FF61AC"/>
<path d="M338.564 166.836C339.417 166.324 339.929 165.812 340.27 165.3C341.465 163.424 337.029 163.253 336.176 164.788C335.494 165.983 336.858 168.03 338.564 166.836Z" fill="#7C2D0E"/>
<path d="M345.218 166.153C344.535 165.812 344.194 165.3 343.853 164.959C342.829 163.423 346.582 163.423 347.265 164.447C347.777 165.471 346.582 167.006 345.218 166.153Z" fill="#7C2D0E"/>
<path d="M300.009 347.157C298.474 345.452 295.915 343.575 293.356 343.063C288.75 342.04 283.632 345.11 285.509 351.593C286.703 355.687 290.456 359.952 295.062 359.611C297.621 359.441 299.498 357.564 301.033 355.687C303.08 352.787 302.057 349.546 300.009 347.157Z" fill="white"/>
<path d="M343.682 359.27C341.294 362.682 341.806 367.458 344.877 369.676C348.459 372.406 356.307 370.7 358.866 367.458C360.401 365.582 360.742 363.193 360.06 361.146C359.207 358.758 359.377 357.905 354.43 356.881C351.018 356.199 345.9 356.028 343.682 359.27Z" fill="white"/>
<path d="M379.337 423.244C371.831 423.244 364.325 423.244 356.648 423.414C354.601 423.414 351.871 423.926 349.994 422.903C347.435 421.709 328.499 407.549 326.964 406.184C322.358 401.919 320.31 398.678 328.499 393.73C327.476 393.901 326.623 394.242 325.599 394.583C322.699 395.607 320.14 397.654 320.481 400.554C318.263 402.431 317.751 405.161 318.946 408.914C321.334 417.444 324.917 427.679 330.546 434.674C330.717 434.845 330.887 435.186 331.229 435.356C331.911 439.109 334.982 442.521 338.735 445.422C343.512 449.004 348.8 452.075 353.918 455.316C358.354 458.216 363.472 461.628 368.59 463.164C360.571 458.558 344.706 446.957 342.318 444.227C337.711 438.939 346.071 438.939 353.406 439.962C359.719 440.815 366.201 441.157 372.513 441.839C373.537 442.01 375.584 441.668 372.684 440.986C363.472 438.598 353.918 437.574 344.535 436.209C342.147 435.868 337.029 434.333 333.446 431.091C332.593 430.238 327.476 424.438 324.064 416.079C321.505 409.596 322.869 410.108 327.646 412.837C332.252 415.567 345.73 423.414 347.435 424.267C349.824 425.462 352.042 426.144 355.283 426.144C363.472 426.144 371.66 425.291 379.849 424.267C382.237 423.756 382.067 423.244 379.337 423.244Z" fill="#F4905D"/>
<path d="M269.472 366.606C268.79 366.094 259.748 367.117 253.777 363.023C250.024 360.464 246.953 357.052 244.053 353.811C241.665 351.252 238.082 347.157 236.206 343.234C236.888 345.793 238.253 348.181 239.447 350.399C242.177 355.176 245.759 359.952 249.683 363.876C253.948 368.141 259.066 369.335 264.013 372.235C268.79 374.965 262.819 381.789 260.601 384.007C256.848 387.589 243.03 384.86 233.817 380.083C224.776 375.477 216.075 369.676 207.886 364.388C207.545 364.217 207.204 364.729 207.545 364.9C217.099 373.6 228.188 380.765 239.959 386.054C243.03 387.418 246.1 388.613 249.171 389.466C249.683 389.807 250.195 390.148 250.706 390.489C254.63 393.56 250.365 397.996 247.636 399.531C242.518 402.431 233.306 400.213 226.652 397.996C219.487 395.778 212.493 392.536 205.839 389.124C205.327 388.783 204.986 389.466 205.327 389.807C211.469 394.413 219.658 398.849 228.358 401.749C232.964 403.284 235.864 406.696 229.894 408.402C228.699 408.743 227.505 409.084 226.311 409.255C210.275 410.108 192.874 405.502 179.397 396.46C167.284 388.271 163.19 375.306 161.996 361.829C160.972 366.264 160.46 370.7 160.631 375.135C160.801 379.23 161.654 383.154 163.19 386.736C163.19 386.736 163.19 386.907 163.36 386.907C164.213 388.783 165.237 390.489 166.261 392.025C166.261 392.025 166.261 392.195 166.431 392.195C166.602 392.536 166.772 392.707 167.114 393.048C170.526 397.825 174.79 402.09 179.567 405.161C185.026 408.743 201.063 409.767 214.881 410.279C215.052 410.279 215.052 410.279 215.222 410.279C216.416 410.279 217.611 410.279 218.634 410.449C218.805 410.449 218.975 410.449 219.146 410.449C220.34 410.449 221.364 410.449 222.558 410.449C222.728 410.449 222.728 410.449 222.899 410.449C224.093 410.449 225.117 410.449 226.14 410.449C227.164 410.449 228.188 410.449 229.211 410.449C229.894 410.449 230.576 410.449 231.258 410.279C231.429 410.279 231.429 410.279 231.6 410.279C232.282 410.108 232.794 410.108 233.306 409.767C233.476 409.767 233.647 409.596 233.817 409.596C234.329 409.426 234.67 409.255 235.182 409.084C235.523 408.914 235.694 408.914 236.035 408.743C236.206 408.573 236.376 408.573 236.547 408.402C239.276 406.867 241.324 404.649 242.347 403.113C245.589 403.113 248.659 402.26 251.559 400.555C255.654 397.996 258.383 393.56 258.725 389.124C259.236 389.124 259.578 389.124 260.089 388.954C266.231 387.93 269.302 381.959 270.837 376.33C271.008 373.429 271.519 368.312 269.472 366.606Z" fill="#F4905D"/>
<path d="M454.059 288.984C451.33 312.185 441.776 335.045 427.446 353.64C427.275 353.981 427.617 354.323 427.787 353.981C436.999 346.475 442.459 336.239 447.065 325.662C452.012 314.062 454.912 301.608 454.4 288.984C454.23 288.813 454.059 288.813 454.059 288.984Z" fill="#F5F5F5"/>
<path d="M170.867 270.9C167.455 284.548 168.99 299.39 171.379 313.038C171.379 313.379 171.72 313.208 171.89 313.038C172.914 299.049 171.208 284.889 171.208 270.9C171.208 270.73 170.867 270.73 170.867 270.9Z" fill="#F5F5F5"/>
<path d="M248.659 436.209C266.743 453.44 295.232 472.206 320.822 460.264C321.163 460.093 320.993 459.581 320.652 459.752C293.697 467.599 269.984 450.71 248.83 435.868C248.659 435.868 248.489 436.039 248.659 436.209Z" fill="#F5F5F5"/>
<path d="M318.093 465.382C322.869 466.746 327.134 465.723 330.717 462.14C330.887 461.97 330.717 461.629 330.376 461.629C326.793 463.505 322.187 464.87 318.263 465.04C317.922 465.04 317.922 465.382 318.093 465.382Z" fill="#F5F5F5"/>
<path d="M414.651 60.5531C394.52 52.0232 328.67 54.5822 293.356 58.3353C278.855 59.8707 269.131 63.112 263.672 69.083C262.648 70.2771 261.625 72.1537 260.942 74.5421C265.719 71.6419 271.008 69.2536 276.637 67.7182C288.579 64.4768 301.545 63.6238 313.828 62.7708C338.394 61.2355 363.472 61.0649 388.038 62.0884C400.662 62.6002 417.722 63.112 422.328 77.4423C425.057 85.8015 424.887 95.355 424.716 104.056C424.546 113.95 423.522 124.015 420.451 133.398C419.94 135.104 419.257 136.81 418.404 138.175C426.934 134.422 430.175 128.28 430.858 110.026C431.37 98.0846 430.687 81.5366 428.469 74.7127C426.422 68.7418 422.328 63.7944 414.651 60.5531Z" fill="#103E82"/>
<path d="M267.254 156.77C297.962 162.229 369.272 162.059 411.921 156.6C419.769 155.576 426.934 150.97 431.54 144.828C424.716 150.458 414.651 151.993 410.898 152.846C402.027 154.552 392.473 154.894 383.943 155.405C354.6 157.623 325.428 157.964 296.085 156.429C283.461 155.747 268.96 154.894 257.53 148.752C247.124 143.122 244.053 131.351 242.347 120.433C240.641 109.856 240.641 98.5963 241.324 87.8486C241.665 81.8777 242.688 75.2244 245.247 69.4241C243.03 71.983 241.324 75.0538 240.3 78.6363C236.717 91.943 237.57 114.632 240.3 129.986C243.883 150.629 257.019 155.064 267.254 156.77Z" fill="#1B4C9B"/>
<path d="M243.371 43.4934C244.053 52.1939 236.206 60.5532 231.6 67.2065C225.799 75.3952 222.387 84.6075 220.511 94.5022C218.805 103.544 219.828 112.074 222.046 120.945C223.07 125.551 224.093 130.328 223.411 135.104C222.728 140.222 219.146 143.464 214.71 144.317C216.416 145.681 219.146 145.681 221.875 145.17C225.117 144.658 228.188 143.464 228.358 139.54C228.699 135.446 228.017 130.669 227.676 127.257C226.993 119.409 223.07 112.927 223.07 104.738C223.24 76.5894 235.864 61.2356 246.271 49.2937C247.636 48.4407 245.93 45.1994 243.371 43.4934Z" fill="#C37A87"/>
<path d="M566.312 127.598C569.724 132.033 567.507 131.692 563.753 131.863C528.44 133.398 492.955 133.398 457.471 133.569C457.13 133.569 447.235 134.592 456.959 130.839C483.231 120.433 510.015 110.538 537.14 103.202C542.77 101.667 542.429 102.008 545.67 104.908C548.911 107.809 551.812 111.05 554.712 114.121C558.636 118.386 562.73 122.821 566.312 127.598ZM184.856 157.452C157.048 151.311 128.9 146.364 100.922 140.905C92.5623 139.199 96.1449 143.463 97.5097 146.705C100.41 153.699 103.31 160.523 106.722 167.177C109.281 172.124 109.622 171.783 115.081 171.1C138.624 168.371 161.996 164.788 185.197 160.694C194.239 159.158 188.609 158.135 184.856 157.452ZM498.244 81.1953C493.297 79.4893 488.008 78.2951 482.72 77.1009C479.649 76.4186 477.09 77.1009 475.384 79.3187C467.707 89.2134 460.542 99.7904 453.377 110.197C448.941 116.509 451.5 114.632 455.253 112.415C469.754 103.714 484.937 95.8667 499.097 86.4838C503.362 83.5837 502.509 82.7307 498.244 81.1953ZM166.261 100.814C162.507 102.349 158.584 103.885 154.831 105.25C149.03 107.467 150.224 108.15 154.148 110.368C164.555 115.997 175.302 121.115 186.05 126.404C190.997 128.792 191.168 128.28 188.268 124.015C183.662 116.85 178.714 109.856 173.426 103.032C171.037 99.6199 169.843 99.2787 166.261 100.814ZM476.749 172.124C469.925 166.494 462.93 161.206 455.765 156.088C453.206 154.211 452.012 154.723 453.377 157.794C458.324 168.712 463.101 179.801 468.389 190.548C471.119 196.178 471.631 195.666 473.848 190.378C475.384 186.795 476.919 183.383 478.455 179.971C481.014 174.001 480.161 174.853 476.749 172.124ZM193.386 172.636C183.832 179.971 174.449 187.648 165.408 195.666C161.484 199.078 162.166 200.102 166.261 199.761C169.331 199.59 172.232 199.42 175.302 198.908C179.567 198.225 181.103 197.372 184.685 192.254C188.78 186.284 192.703 180.483 196.456 174.171C200.551 166.835 195.262 171.1 193.386 172.636Z" fill="#EB8382"/>
<path d="M476.237 184.577C475.896 184.748 475.384 184.748 475.043 184.919C470.266 185.942 467.195 179.63 464.977 176.389C461.565 171.271 458.153 165.982 454.912 160.694C454.4 159.67 453.718 158.817 453.206 157.794C458.153 168.712 462.93 179.801 468.048 190.548C470.778 196.178 471.289 195.666 473.507 190.378C474.701 188.501 475.554 186.625 476.237 184.577Z" fill="#C37A87"/>
<path d="M554.712 113.95C553.688 112.756 552.665 111.732 551.641 110.538C552.665 112.756 553.517 115.144 554.541 117.362C556.076 120.603 558.977 126.915 553.688 127.939C547.717 129.133 541.234 129.133 535.264 129.645C513.598 131.01 491.761 131.863 470.095 132.886C464.465 133.057 459.006 133.398 453.377 133.739C454.571 134.08 457.3 133.739 457.642 133.739C492.955 133.398 528.44 133.569 563.924 132.033C567.677 131.863 569.895 132.204 566.483 127.768C562.73 122.821 558.635 118.385 554.712 113.95Z" fill="#C37A87"/>
<path d="M485.62 90.2368C481.696 93.1369 477.772 96.2077 473.848 99.1079C469.413 102.349 465.148 105.761 460.883 109.003C473.678 101.496 486.814 94.6723 499.097 86.313C503.362 83.4129 502.509 82.5599 498.244 81.1951C494.832 80.0009 491.42 79.1479 488.008 78.2949C489.543 79.6597 490.567 81.1951 490.738 83.2423C491.079 86.4836 487.837 88.5308 485.62 90.2368Z" fill="#C37A87"/>
<path d="M193.386 172.636C193.215 172.806 193.045 172.977 192.874 173.147C190.656 179.118 181.785 189.525 180.42 190.89C177.179 194.302 173.596 197.202 169.673 199.59C171.72 199.419 173.596 199.249 175.473 198.908C179.738 198.225 181.273 197.372 184.856 192.254C188.95 186.283 192.874 180.483 196.627 174.171C200.551 166.835 195.262 171.1 193.386 172.636Z" fill="#C37A87"/>
<path d="M178.032 120.774C173.084 117.703 167.967 114.462 163.36 110.879C161.313 109.344 159.437 107.297 159.095 104.738C159.095 104.396 159.095 103.885 159.095 103.543C157.56 104.055 156.195 104.738 154.66 105.249C148.86 107.467 150.054 108.15 153.978 110.367C164.384 115.997 175.132 121.115 185.879 126.404C187.756 127.257 188.779 127.768 189.462 127.939C185.879 125.551 181.956 123.162 178.032 120.774Z" fill="#C37A87"/>
<path d="M188.609 160.011C172.743 161.717 156.707 162.57 140.671 163.594C135.724 163.935 130.776 164.106 125.829 163.935C120.711 163.765 115.081 163.423 110.475 161.206C105.698 158.988 102.798 154.894 99.5569 151.14C101.775 156.6 104.163 162.059 106.893 167.347C109.452 172.295 109.793 171.953 115.252 171.271C138.794 168.541 162.166 164.959 185.368 160.864C186.732 160.523 187.756 160.182 188.609 160.011Z" fill="#C37A87"/>
<defs>
<linearGradient id="paint0_linear_39_2251" x1="304.492" y1="116.999" x2="304.492" y2="582.829" gradientUnits="userSpaceOnUse">
<stop stop-color="#826F8C"/>
<stop offset="1" stop-color="#446381"/>
</linearGradient>
</defs>
</svg>
