<svg width="557" height="572" viewBox="0 0 557 572" fill="none" xmlns="http://www.w3.org/2000/svg">
<path d="M320.61 565.59C396.11 564.253 512.909 535.659 546.528 462.159C558.272 436.49 557.474 398.752 555.88 323.276C555.413 301.094 554.636 268.761 549.191 228.64C537.895 145.299 530.195 88.5754 501.068 55.5256C428.095 -27.254 164.477 -24.8518 51.897 124.163C-9.50653 205.451 -18.9562 321.106 37.1974 416.672C99.0287 521.923 219.541 567.372 320.61 565.59Z" fill="url(#paint0_linear_42_3521)" fill-opacity="0.17"/>
<path opacity="0.5" d="M193.794 559.207C236.944 536.828 308.762 496.781 361.96 462.622C415.159 428.464 440.576 401.668 409.839 383.706C374.669 363.388 308.466 386.945 249.357 425.814C184.632 468.512 155.964 492.069 125.523 515.037C106.017 529.761 116.361 542.128 135.276 553.907C154.487 565.98 169.855 571.575 193.794 559.207Z" fill="url(#paint1_linear_42_3521)"/>
<path d="M230.103 225.379C236.186 225.379 240.916 228.41 240.916 231.776C240.916 235.48 236.186 238.173 230.103 238.173C224.021 238.173 219.29 235.143 219.29 231.776C219.29 228.41 224.359 225.379 230.103 225.379Z" fill="#002F68"/>
<path d="M230.441 225.379C234.834 225.379 238.551 227.399 238.551 229.756C238.551 232.113 234.834 234.133 230.441 234.133C226.048 234.133 222.331 232.113 222.331 229.756C222.331 227.399 226.048 225.379 230.441 225.379Z" fill="#DF8083"/>
<path d="M230.103 236.49C230.103 236.49 228.076 242.214 228.076 249.284C227.738 256.354 228.414 267.801 224.021 272.851C219.628 278.238 215.573 271.505 215.573 264.098C215.235 256.691 219.628 232.113 219.628 232.113L230.103 236.49Z" fill="#002F68"/>
<path d="M229.09 249.284C229.09 249.284 227.738 247.601 225.711 248.274C224.359 248.611 221.656 250.294 220.642 250.294C219.628 250.294 217.263 248.274 217.263 248.274L218.277 242.214C218.277 242.214 212.194 244.571 211.18 249.958C209.829 255.344 207.463 256.354 202.057 258.375C196.65 260.395 190.906 264.098 190.906 264.098L199.353 277.565C199.353 277.565 212.87 265.445 214.222 264.098C215.573 262.751 220.304 258.038 221.318 257.028C221.994 256.018 224.697 253.324 225.711 252.651C226.387 251.304 229.09 249.284 229.09 249.284Z" fill="#FFC5B3"/>
<path d="M227.738 458.362C227.738 458.362 211.18 489.336 207.463 502.467C205.436 509.537 200.705 535.798 200.705 535.798C200.705 535.798 203.746 531.758 208.477 530.411C211.518 529.738 215.911 529.065 218.614 532.768C223.345 538.828 224.021 543.205 216.587 549.939C213.546 552.969 207.801 557.683 203.07 562.059C197.326 567.11 190.567 572.16 184.823 571.823C178.74 571.486 174.685 568.456 175.023 561.386C175.361 557.346 178.402 550.949 178.402 548.592C179.078 542.195 180.43 502.467 183.133 477.889C184.485 465.432 187.864 458.362 187.864 458.362H227.738Z" fill="#FFC5B3"/>
<path d="M158.466 419.307C158.466 419.307 141.908 450.282 138.191 463.412C136.163 470.483 129.067 500.11 129.067 500.11C129.067 500.11 138.528 492.367 147.652 495.734C156.1 498.764 151.707 504.824 144.611 511.221C141.57 514.251 137.177 517.281 132.446 521.321C126.701 526.372 125.012 528.055 121.633 529.065C115.888 530.748 108.792 530.075 109.13 523.005C109.468 518.965 109.806 511.894 110.144 509.538C110.819 503.141 112.171 463.412 114.874 438.835C116.226 426.378 119.605 419.307 119.605 419.307H158.466Z" fill="#FFC5B3"/>
<path d="M188.202 383.956C188.202 383.956 212.87 418.297 220.304 432.774C222.669 437.488 229.09 447.925 229.09 452.975C229.09 458.699 227.062 465.432 227.062 465.432C227.062 465.432 212.194 477.553 200.029 475.533C185.836 473.176 181.443 465.096 181.443 465.096C181.443 465.096 161.506 440.855 153.059 432.774C144.611 424.694 130.418 407.86 125.687 395.74C121.97 386.649 119.267 363.418 125.687 356.011C132.108 348.604 188.202 383.956 188.202 383.956Z" fill="url(#paint2_linear_42_3521)"/>
<path d="M157.452 367.459L155.762 416.951C155.762 416.951 154.072 434.795 153.059 441.528C147.314 447.252 140.894 449.945 134.811 449.272C121.632 447.252 112.171 438.498 112.171 438.498C112.171 438.498 98.6541 386.986 101.357 375.539C104.061 364.092 113.185 351.298 113.185 351.298L157.452 367.459Z" fill="url(#paint3_linear_42_3521)"/>
<path d="M184.485 256.354C184.485 256.354 196.988 259.721 201.043 267.464C205.773 276.218 210.504 291.032 206.111 305.846C201.718 320.66 191.243 345.574 189.215 350.288C187.526 355.001 195.298 363.082 193.608 366.448C191.581 369.815 187.526 374.192 189.891 375.539C192.257 376.886 193.608 384.293 193.608 384.293C193.608 384.293 161.506 398.77 140.893 390.689C120.619 382.609 103.723 366.112 103.723 366.112C103.723 366.112 106.088 356.348 110.143 350.961C114.198 345.574 110.819 336.147 114.536 333.454C118.253 330.76 125.349 329.414 124.674 325.037C123.998 320.66 120.956 278.238 131.094 264.771C141.231 251.304 159.817 249.62 159.817 249.62L184.485 256.354Z" fill="#446381"/>
<path d="M167.927 190.364C156.438 192.048 147.652 198.108 147.652 205.178C147.652 205.515 147.652 205.515 147.652 205.852C147.652 207.198 148.328 208.545 149.004 209.892C150.017 208.208 151.369 206.525 153.397 205.178C157.114 202.485 162.182 200.465 167.927 199.455V190.364Z" fill="#0E58C4"/>
<path d="M167.927 190.701C156.438 192.385 147.99 198.445 147.99 205.515C147.99 205.852 147.99 205.852 147.99 206.189C147.99 207.535 148.666 208.882 149.341 210.229C150.355 208.545 151.707 206.862 153.734 205.515C157.114 202.822 162.182 200.802 167.927 200.128V190.701Z" fill="#37A0F5"/>
<path d="M186.174 195.415L216.587 212.922C218.276 213.932 219.966 212.922 219.966 210.566V198.445C219.966 196.088 218.614 193.395 216.587 192.385L186.174 174.878C184.485 173.868 182.795 174.878 182.795 177.234V189.355C183.133 191.712 184.485 194.405 186.174 195.415Z" fill="#786D8A"/>
<path d="M215.235 214.942L218.614 212.922L217.6 210.566L213.545 212.249C213.545 212.586 215.235 214.942 215.235 214.942Z" fill="#7A6D8B"/>
<path d="M180.768 176.561L184.147 174.541L185.498 175.888L182.457 178.918L180.768 176.561Z" fill="#806E8B"/>
<path d="M182.795 197.435L213.208 214.942C214.897 215.952 216.587 214.942 216.587 212.586V200.465C216.587 198.108 215.235 195.415 213.208 194.405L182.795 176.897C181.106 175.887 179.416 176.897 179.416 179.254V191.375C179.754 193.731 181.106 196.425 182.795 197.435Z" fill="url(#paint4_linear_42_3521)"/>
<path d="M180.768 176.561L168.941 183.294L203.408 221.676L215.235 214.942L180.768 176.561Z" fill="#A676D4"/>
<path d="M213.208 213.933L208.477 216.626C207.463 216.963 206.787 216.626 206.787 215.28V209.219C206.787 208.209 207.463 206.526 208.477 206.189L213.208 203.496C214.221 203.159 214.897 203.496 214.897 204.843V210.903C214.897 212.25 214.221 213.596 213.208 213.933Z" fill="#41A0E2"/>
<path d="M214.221 203.496L213.883 203.159L213.545 203.496L214.221 203.834V203.496Z" fill="#41A0E2"/>
<path d="M207.125 216.627H207.801L207.125 216.289V216.627Z" fill="#41A0E2"/>
<path d="M212.869 213.933L208.139 216.626C207.125 216.963 206.449 216.626 206.449 215.28V209.219C206.449 208.209 207.125 206.526 208.139 206.189L212.869 203.496C213.883 203.159 214.559 203.496 214.559 204.843V210.903C214.559 211.913 213.883 213.26 212.869 213.933Z" fill="white"/>
<path d="M212.532 208.883C212.532 210.229 211.518 211.913 210.504 212.586C209.491 213.259 208.477 212.586 208.477 211.239C208.477 209.893 209.491 208.209 210.504 207.536C211.856 206.526 212.532 207.199 212.532 208.883Z" fill="#786D8A"/>
<path d="M171.306 204.169L201.719 221.676C203.408 222.686 205.098 221.676 205.098 219.319V207.199C205.098 204.842 203.746 202.149 201.719 201.138L171.306 183.631C169.617 182.621 167.927 183.631 167.927 185.988V198.108C167.927 200.465 169.279 203.159 171.306 204.169Z" fill="#002F68"/>
<path d="M198.339 224.706L203.746 221.676C203.746 221.676 201.718 218.309 201.381 218.309L196.988 219.319L198.339 224.706Z" fill="#002F68"/>
<path d="M163.872 185.988L168.941 183.295L170.968 185.315L168.603 188.682L163.872 185.988Z" fill="#002F68"/>
<path d="M167.927 198.108V187.671C166.913 187.335 165.899 187.335 165.224 187.335C164.21 187.335 163.534 188.345 163.534 190.028V201.475C163.534 203.495 164.21 205.515 165.9 206.862C166.237 206.862 166.913 207.535 167.589 207.535C169.954 208.545 176.375 210.902 181.444 213.932C184.823 215.952 191.919 221.339 195.636 224.033C196.988 225.043 198.339 224.033 198.339 222.013V220.666L170.968 204.842C169.279 203.159 167.927 200.465 167.927 198.108Z" fill="#002F68"/>
<path d="M196.312 205.179C194.285 202.485 189.216 197.098 181.782 193.058C177.051 190.365 171.307 188.681 167.927 187.671V198.108C167.927 200.465 169.279 203.158 171.307 204.169L198.678 219.992V210.229C198.678 207.872 197.326 206.525 196.312 205.179Z" fill="#002F68"/>
<path d="M176.375 193.732C176.375 193.059 176.375 192.385 176.713 192.049C174.347 191.038 172.658 192.722 172.658 195.752C172.658 199.119 174.685 203.159 177.388 204.506C179.416 205.852 181.105 204.842 181.781 202.822C181.443 202.822 181.443 202.486 181.105 202.486C178.402 201.139 176.375 197.099 176.375 193.732Z" fill="#002F68"/>
<path d="M177.05 192.048C176.712 192.048 176.712 191.711 176.374 191.711C176.374 192.385 176.037 192.721 176.037 193.395C176.037 196.762 178.064 200.802 180.767 202.149C181.105 202.149 181.105 202.485 181.443 202.485C181.443 201.812 181.781 201.475 181.781 200.802C181.781 197.435 179.754 193.395 177.05 192.048Z" fill="#41A0E2"/>
<path d="M190.567 201.812C190.567 201.139 190.567 200.466 190.905 200.129C188.54 199.119 186.85 200.802 186.85 203.833C186.85 207.199 188.878 211.24 191.581 212.586C193.609 213.933 195.298 212.923 195.974 210.903C195.636 210.903 195.636 210.566 195.298 210.566C192.595 209.219 190.567 205.179 190.567 201.812Z" fill="#002F68"/>
<path d="M191.243 200.129C190.905 200.129 190.905 199.792 190.567 199.792C190.567 200.465 190.229 200.802 190.229 201.476C190.229 204.842 192.257 208.882 194.96 210.229C195.298 210.229 195.298 210.566 195.636 210.566C195.636 209.893 195.974 209.556 195.974 208.882C195.974 205.852 193.947 201.812 191.243 200.129Z" fill="#41A0E2"/>
<path d="M193.271 195.078L182.12 188.345L183.471 187.671L194.622 194.068L193.271 195.078Z" fill="#002F68"/>
<path d="M184.485 193.394C178.064 188.681 165.224 190.364 159.817 201.811C156.776 208.208 161.169 225.379 161.844 237.5C162.52 247.263 159.141 252.987 159.141 252.987C159.141 252.987 159.141 252.987 167.589 256.354C176.037 259.721 184.823 256.354 184.823 256.354L184.485 241.54C184.485 241.54 193.609 240.193 194.96 238.846C198.677 235.479 200.705 225.042 199.015 211.575C196.312 191.711 186.85 195.078 184.485 193.394Z" fill="#FFC5B3"/>
<path d="M228.752 242.55C228.752 242.55 229.428 243.223 230.103 244.233C230.779 245.243 230.441 246.253 229.765 246.253C229.428 246.59 229.09 246.59 229.09 246.59C229.09 246.59 229.765 247.937 230.441 248.947C230.779 249.957 229.427 250.63 229.09 250.63C228.752 250.63 230.103 251.64 230.103 252.65C230.103 253.66 228.076 253.324 228.076 253.324C228.076 253.324 227.4 245.243 228.752 242.55Z" fill="#FFC5B3"/>
<path d="M267.612 245.917C273.694 245.917 278.425 248.947 278.425 252.314C278.425 256.017 273.694 258.711 267.612 258.711C261.529 258.711 256.799 255.681 256.799 252.314C256.799 248.61 261.529 245.917 267.612 245.917Z" fill="#002F68"/>
<path d="M267.949 245.917C272.342 245.917 276.059 247.937 276.059 250.294C276.059 252.65 272.342 254.671 267.949 254.671C263.557 254.671 259.839 252.65 259.839 250.294C259.839 247.6 263.557 245.917 267.949 245.917Z" fill="#DD8084"/>
<path d="M267.611 256.691C267.611 256.691 265.584 262.414 265.584 269.485C265.246 276.555 265.922 288.002 261.529 293.052C257.136 298.439 253.081 291.706 253.081 284.299C252.743 276.892 257.136 252.314 257.136 252.314L267.611 256.691Z" fill="#002F68"/>
<path d="M195.298 263.761C202.394 264.434 216.249 291.705 222.669 305.173C227.4 300.796 236.862 292.715 247.675 285.645C250.716 283.625 248.351 270.495 254.433 266.791C254.771 270.495 258.15 270.495 260.178 270.158C264.233 269.821 265.585 268.811 265.585 266.118C266.598 265.781 267.95 265.781 269.302 267.128C270.653 266.791 273.357 268.811 272.681 270.831C275.384 272.851 274.708 277.902 273.019 280.258C269.302 285.308 261.867 290.695 257.475 296.419C253.42 301.806 232.469 329.75 217.938 334.127C216.925 333.79 212.87 333.79 210.166 331.097C200.705 321.67 186.512 297.766 185.836 283.625C185.161 272.178 190.229 263.088 195.298 263.761Z" fill="#FFC5B3"/>
<path d="M192.595 216.963C193.608 213.596 195.974 205.852 196.312 202.822C196.987 199.119 197.325 193.732 192.257 188.682C187.188 183.631 169.954 181.948 163.872 185.315C157.789 189.018 144.273 195.415 149.003 216.963C152.721 234.133 156.438 236.153 161.506 240.194C166.237 243.897 174.009 244.57 174.009 244.57C174.009 244.57 178.402 241.204 179.416 234.807C179.754 232.787 179.416 226.39 179.416 226.39C179.416 226.39 174.685 217.299 178.402 214.269C182.119 210.902 186.174 216.289 186.85 218.646C189.891 226.39 188.54 240.867 188.54 240.867C188.54 240.867 193.27 243.897 197.663 242.55C200.029 241.877 198.001 232.113 198.001 232.113C198.001 232.113 193.27 229.756 192.595 216.963Z" fill="#002F68"/>
<path d="M202.732 208.882L200.704 209.892V222.013L202.732 221.003V208.882Z" fill="#EB8382"/>
<path d="M200.705 209.892L200.367 209.556V221.34L200.705 222.013V209.892Z" fill="#C37A87"/>
<path d="M200.367 209.556L200.705 209.893L202.732 208.883L202.056 208.546L200.367 209.556Z" fill="white"/>
<path d="M201.719 210.229C200.705 210.902 198.678 212.922 198.002 213.596C193.271 217.636 184.823 220.329 175.699 220.329C166.238 220.329 158.128 217.636 153.397 213.596C152.045 212.249 150.694 210.902 150.018 209.555C149.342 208.209 149.004 205.852 148.666 204.505L148.328 206.862L148.666 213.596C148.666 213.932 148.666 213.932 148.666 214.269C148.666 222.686 160.831 229.42 175.699 229.42C186.513 229.42 195.974 225.716 200.367 220.666L202.395 210.229H201.719Z" fill="#C37A87"/>
<path d="M202.056 210.229C201.381 210.902 199.015 213.259 198.001 213.932C192.933 217.972 184.823 220.666 175.023 220.666C165.562 220.666 157.114 217.972 152.045 213.932C150.355 212.585 149.342 211.239 148.328 209.892C147.652 208.545 147.314 207.199 146.976 205.852V213.932C146.976 214.269 146.976 214.269 146.976 214.605C146.976 223.022 159.479 230.093 174.685 230.093C184.147 230.093 192.595 227.399 197.664 223.359C198.339 222.686 200.705 220.666 201.381 219.992V210.229H202.056Z" fill="url(#paint5_linear_42_3521)"/>
<path d="M179.078 181.275C175.699 178.918 171.306 178.918 166.575 181.949C158.803 186.325 150.693 198.109 149.003 210.566C150.693 215.28 156.775 217.3 157.789 216.627C159.141 204.506 166.237 193.059 175.023 187.672C175.023 187.672 175.361 187.672 175.361 187.335C177.726 185.989 180.092 185.315 182.119 185.315C183.133 185.315 184.147 185.315 184.822 185.315C185.836 185.315 186.512 185.652 186.512 185.652L179.078 181.275Z" fill="#C37A87"/>
<path d="M179.416 180.937C175.361 178.917 171.306 178.581 166.237 181.274C158.465 185.651 150.355 197.435 148.666 209.892C150.017 214.942 155.762 216.626 157.114 217.299C158.803 204.168 166.237 192.385 175.023 186.998C175.023 186.998 175.361 186.998 175.361 186.661C177.726 185.314 180.092 184.641 182.119 184.641C183.809 184.641 185.499 184.978 186.85 185.651L179.416 180.937Z" fill="url(#paint6_linear_42_3521)"/>
<path d="M162.52 399.443C163.872 402.81 166.237 409.88 168.603 412.91C171.982 417.287 163.872 418.297 158.465 419.307C152.721 419.98 143.259 413.247 139.88 407.523C136.838 401.8 135.825 393.383 135.825 393.046C144.273 398.433 152.721 401.8 162.52 399.443Z" fill="url(#paint7_linear_42_3521)"/>
<path d="M121.97 391.026C122.308 393.046 122.984 396.749 123.998 400.453C125.687 406.176 122.308 410.553 117.239 406.513C112.171 402.81 107.102 396.413 105.75 391.026C104.736 387.322 104.061 380.252 103.723 377.559C108.454 383.282 114.536 387.659 121.97 391.026Z" fill="url(#paint8_linear_42_3521)"/>
<defs>
<linearGradient id="paint0_linear_42_3521" x1="278.392" y1="565.64" x2="278.392" y2="0.851807" gradientUnits="userSpaceOnUse">
<stop stop-color="#EB8382"/>
<stop offset="1" stop-color="#EB8382" stop-opacity="0"/>
</linearGradient>
<linearGradient id="paint1_linear_42_3521" x1="340.602" y1="343.811" x2="198.641" y2="590.599" gradientUnits="userSpaceOnUse">
<stop stop-color="#DFB8BF"/>
<stop offset="0.9617" stop-color="#EB8382"/>
</linearGradient>
<linearGradient id="paint2_linear_42_3521" x1="133.739" y1="381.561" x2="205.365" y2="384.68" gradientUnits="userSpaceOnUse">
<stop stop-color="#4499D9"/>
<stop offset="1" stop-color="#6E6CC1"/>
</linearGradient>
<linearGradient id="paint3_linear_42_3521" x1="107.272" y1="372.875" x2="145.008" y2="373.94" gradientUnits="userSpaceOnUse">
<stop stop-color="#4499D9"/>
<stop offset="1" stop-color="#6E6CC1"/>
</linearGradient>
<linearGradient id="paint4_linear_42_3521" x1="198.002" y1="176.507" x2="198.002" y2="215.332" gradientUnits="userSpaceOnUse">
<stop stop-color="#6379E3"/>
<stop offset="1" stop-color="#D574C9"/>
</linearGradient>
<linearGradient id="paint5_linear_42_3521" x1="174.516" y1="205.852" x2="174.516" y2="230.093" gradientUnits="userSpaceOnUse">
<stop stop-color="#EB8382"/>
<stop offset="1" stop-color="#EB8382" stop-opacity="0"/>
</linearGradient>
<linearGradient id="paint6_linear_42_3521" x1="167.758" y1="179.338" x2="167.758" y2="217.299" gradientUnits="userSpaceOnUse">
<stop stop-color="#EB8382"/>
<stop offset="1" stop-color="#EB8382" stop-opacity="0"/>
</linearGradient>
<linearGradient id="paint7_linear_42_3521" x1="139.555" y1="398.834" x2="161.93" y2="400.234" gradientUnits="userSpaceOnUse">
<stop stop-color="#4499D9"/>
<stop offset="1" stop-color="#6E6CC1"/>
</linearGradient>
<linearGradient id="paint8_linear_42_3521" x1="106.024" y1="384.274" x2="119.867" y2="384.735" gradientUnits="userSpaceOnUse">
<stop stop-color="#4499D9"/>
<stop offset="1" stop-color="#6E6CC1"/>
</linearGradient>
</defs>
</svg>
