<?xml version="1.0" encoding="utf-8"?><svg viewBox="0 0 20 20" xmlns="http://www.w3.org/2000/svg" xmlns:xlink="http://www.w3.org/1999/xlink"><style>:root>svg{display:none}:root>svg:target{display:block}</style><svg viewBox="0 0 12 20" id="facebook" xmlns="http://www.w3.org/2000/svg"><path d="M10.652 11.256l.555-3.617H7.736V5.283a1.81 1.81 0 012.038-1.955h1.579V.257A19.242 19.242 0 008.552.013a4.416 4.416 0 00-4.727 4.87v2.756H.647v3.617h3.178V20h3.91v-8.744h2.917z"/></svg><svg viewBox="0 0 20 20" id="instagram" xmlns="http://www.w3.org/2000/svg"><path d="M10.012 4.877a5.127 5.127 0 104.733 3.165 5.12 5.12 0 00-4.732-3.165zm0 8.459a3.332 3.332 0 113.325-3.332 3.34 3.34 0 01-3.325 3.332zm6.525-8.677a1.195 1.195 0 11-2.39 0 1.195 1.195 0 012.39 0zm3.395 1.215a5.92 5.92 0 00-1.615-4.19A5.957 5.957 0 0014.127.07c-1.65-.092-6.6-.092-8.25 0a5.95 5.95 0 00-4.192 1.615 5.937 5.937 0 00-1.614 4.19c-.093 1.65-.093 6.6 0 8.25a5.92 5.92 0 001.614 4.192 5.965 5.965 0 004.19 1.615c1.65.092 6.6.092 8.25 0a5.92 5.92 0 004.19-1.615 5.958 5.958 0 001.614-4.19c.093-1.65.093-6.595 0-8.25l.003-.002zm-2.133 10.034a3.374 3.374 0 01-1.9 1.9 22.044 22.044 0 01-5.886.393 22.211 22.211 0 01-5.895-.403 3.374 3.374 0 01-1.9-1.9 22.041 22.041 0 01-.413-5.894 22.211 22.211 0 01.403-5.895 3.375 3.375 0 011.9-1.9c1.94-.4 3.927-.536 5.904-.405a22.21 22.21 0 015.895.403 3.375 3.375 0 011.9 1.9 22 22 0 01.402 5.894 22.028 22.028 0 01-.41 5.907z"/></svg><svg viewBox="0 0 20 18" id="twitter" xmlns="http://www.w3.org/2000/svg"><path d="M17.947 4.926c.013.178.013.355.013.533A11.583 11.583 0 016.297 17.122 11.586 11.586 0 010 15.277c.329.037.66.054.99.052a8.21 8.21 0 005.09-1.751 4.106 4.106 0 01-3.834-2.84 4.34 4.34 0 001.845-.075A4.1 4.1 0 01.812 6.638v-.05a4.128 4.128 0 001.854.522 4.106 4.106 0 01-1.27-5.485 11.652 11.652 0 008.452 4.287 4.626 4.626 0 01-.1-.94 4.104 4.104 0 017.095-2.8 8.071 8.071 0 002.602-.99 4.089 4.089 0 01-1.803 2.258A8.219 8.219 0 0020 2.797a8.812 8.812 0 01-2.053 2.129z"/></svg></svg>