<svg width="557" height="567" viewBox="0 0 557 567" fill="none" xmlns="http://www.w3.org/2000/svg">
<path d="M320.778 566.949C396.278 565.608 513.077 536.909 546.695 463.139C558.439 437.376 557.642 399.5 556.048 323.746C555.581 301.483 554.803 269.032 549.359 228.764C538.062 145.116 530.362 88.1849 501.236 55.0138C428.263 -28.0695 164.644 -25.6585 52.0646 123.903C-9.33893 205.489 -18.7886 321.569 37.3651 417.485C99.1963 523.123 219.709 568.738 320.778 566.949Z" fill="url(#paint0_linear_39_3287)" fill-opacity="0.17"/>
<path d="M217.734 310.474C220.553 310.96 227.106 309.502 228.661 308.432C238.986 301.238 259.208 289.028 262.338 276.097C262.863 273.881 253.783 268.923 253.044 266.512C248.027 261.942 246.005 260.659 243.361 253.97C235.583 234.196 273.518 213.119 243.186 192.392C220.962 177.206 197.649 179.326 211.92 142.013C226.212 104.681 217.17 25.9725 168.794 40.2831C141.028 48.4884 154.581 88.0759 135.39 108.375C117.151 127.663 121.079 149.304 141.067 170.323C161.055 191.342 144.956 197.875 131.345 217.338C114.993 240.71 153.511 257.49 171.944 263.712C186.76 268.689 221.195 291.477 217.734 310.474Z" fill="url(#paint1_linear_39_3287)"/>
<path d="M244.819 293.247L245.228 292.8C176.727 229.024 153.472 131.494 183.066 31.9417L182.483 31.7667C168.464 78.9568 166.286 127.527 176.163 172.248C186.566 219.263 210.287 261.106 244.819 293.247Z" fill="#FCFDFE"/>
<path d="M123.412 226.224C149 225.699 187.985 237.365 210.307 252.24L210.637 251.734C188.238 236.802 149.097 225.077 123.393 225.621L123.412 226.224Z" fill="#FCFDFE"/>
<path d="M231.5 280.569L232.025 280.258C224.851 268.3 223.995 253.173 229.498 235.324C233.522 222.219 240.814 207.986 251.139 192.975L250.633 192.625C240.269 207.675 232.959 221.966 228.914 235.129C223.373 253.173 224.248 268.456 231.5 280.569Z" fill="#FCFDFE"/>
<path d="M174.997 165.851L175.541 165.559C163.175 142.324 138.598 129.627 120.165 123.055L119.971 123.619C138.306 130.172 162.728 142.791 174.997 165.851Z" fill="#FCFDFE"/>
<path d="M170.136 105.809L170.719 105.945C177.291 77.0513 201.168 57.0825 214.818 47.7689L214.468 47.2634C200.76 56.6353 176.766 76.7013 170.136 105.809Z" fill="#FCFDFE"/>
<path d="M231.889 296.261C234.592 295.366 239.706 291.011 240.561 289.319C246.297 278.12 258.411 257.84 255.086 244.949C254.522 242.751 244.158 242.615 242.369 240.846C235.778 239.174 233.406 238.999 227.923 234.313C211.765 220.527 235.35 184.089 198.835 180.026C172.08 177.051 152.5 189.903 147.562 150.238C142.623 110.572 97.6687 45.3386 61.6783 80.7068C41.029 101.006 71.5946 129.569 64.1866 156.499C57.1479 182.087 70.778 199.353 98.291 208.511C125.804 217.669 114.663 231.007 111.804 254.593C108.363 282.903 150.225 279.617 169.436 276.467C184.913 273.92 226.017 277.867 231.889 296.261Z" fill="url(#paint2_linear_39_3287)"/>
<path d="M247.697 268.32L247.852 267.737C157.4 243.626 91.0577 168.457 70.3889 66.6879L69.7862 66.8045C79.5859 115.045 100.488 158.949 130.237 193.792C161.522 230.385 202.121 256.168 247.697 268.32Z" fill="#FCFDFE"/>
<path d="M109.043 266.201C131.384 253.698 171.283 245.687 197.979 248.332L198.037 247.729C171.244 245.065 131.19 253.115 108.752 265.676L109.043 266.201Z" fill="#FCFDFE"/>
<path d="M229.984 263.381L230.295 262.856C218.356 255.682 210.482 242.732 206.943 224.377C204.337 210.922 204.065 194.92 206.146 176.837L205.543 176.759C203.462 194.92 203.735 210.961 206.34 224.494C209.937 243.024 217.89 256.109 229.984 263.381Z" fill="#FCFDFE"/>
<path d="M126.212 188.659L126.543 188.153C104.727 173.454 77.0581 173.784 57.6921 176.662L57.7893 177.265C77.0387 174.406 104.552 174.076 126.212 188.659Z" fill="#FCFDFE"/>
<path d="M93.7021 137.949L94.2854 137.794C86.5079 109.192 98.213 80.3568 105.874 65.7157L105.329 65.424C97.6297 80.1624 85.8663 109.153 93.7021 137.949Z" fill="#FCFDFE"/>
<path d="M377.601 381.094C374.782 381.58 368.229 380.122 366.673 379.052C356.349 371.858 336.127 359.647 332.997 346.717C332.472 344.501 341.552 339.543 342.291 337.132C347.307 332.562 349.33 331.279 351.974 324.59C359.751 304.816 321.817 283.739 352.149 263.012C374.373 247.826 397.686 249.946 383.415 212.633C369.123 175.301 378.165 96.5924 426.541 110.903C454.307 119.108 440.754 158.696 459.945 178.995C478.184 198.283 474.256 219.924 454.268 240.943C434.28 261.962 450.379 268.495 463.99 287.958C480.342 311.33 441.824 328.11 423.391 334.332C408.575 339.309 374.14 362.097 377.601 381.094Z" fill="url(#paint3_linear_39_3287)"/>
<path d="M350.516 363.847L350.107 363.4C418.608 299.624 441.863 202.094 412.269 102.542L412.852 102.367C426.871 149.557 429.049 198.128 419.172 242.849C408.769 289.883 385.028 331.726 350.516 363.847Z" fill="#FCFDFE"/>
<path d="M471.923 296.844C446.335 296.319 407.35 307.985 385.028 322.86L384.698 322.354C407.097 307.421 446.237 295.697 471.942 296.241L471.923 296.844Z" fill="#FCFDFE"/>
<path d="M363.835 351.189L363.31 350.878C370.485 338.92 371.34 323.793 365.837 305.944C361.813 292.839 354.521 278.606 344.197 263.595L344.702 263.245C355.066 278.295 362.376 292.586 366.421 305.749C371.962 323.793 371.087 339.076 363.835 351.189Z" fill="#FCFDFE"/>
<path d="M420.338 236.452L419.794 236.16C432.16 212.925 456.737 200.228 475.17 193.656L475.364 194.22C457.029 200.772 432.588 213.411 420.338 236.452Z" fill="#FCFDFE"/>
<path d="M425.199 176.429L424.616 176.565C418.044 147.671 394.167 127.702 380.517 118.389L380.867 117.883C394.575 127.255 418.569 147.321 425.199 176.429Z" fill="#FCFDFE"/>
<path d="M363.446 366.861C360.743 365.967 355.629 361.611 354.774 359.92C349.038 348.72 336.924 328.44 340.249 315.549C340.813 313.352 351.177 313.216 352.965 311.446C359.557 309.774 361.929 309.599 367.412 304.913C383.57 291.128 359.985 254.69 396.5 250.626C423.255 247.651 442.835 260.504 447.773 220.838C452.712 181.173 497.666 115.939 533.657 151.307C554.306 171.607 523.74 200.169 531.148 227.099C538.187 252.687 524.557 269.953 497.044 279.111C469.531 288.269 480.672 301.608 483.531 325.193C486.972 353.503 445.11 350.217 425.899 347.067C410.422 344.52 369.318 348.467 363.446 366.861Z" fill="url(#paint4_linear_39_3287)"/>
<path d="M347.638 338.921L347.482 338.337C437.935 314.227 504.277 239.057 524.946 137.288L525.549 137.405C515.749 185.645 494.847 229.549 465.098 264.392C433.813 301.005 393.214 326.788 347.638 338.921Z" fill="#FCFDFE"/>
<path d="M486.292 336.821C463.951 324.318 424.052 316.307 397.356 318.952L397.297 318.349C424.091 315.685 464.145 323.735 486.583 336.296L486.292 336.821Z" fill="#FCFDFE"/>
<path d="M365.332 334.001L365.021 333.476C376.959 326.302 384.834 313.352 388.373 294.997C390.978 281.542 391.25 265.54 389.17 247.457L389.773 247.379C391.853 265.54 391.581 281.581 388.975 295.114C385.398 313.624 377.445 326.71 365.332 334.001Z" fill="#FCFDFE"/>
<path d="M469.123 259.279L468.792 258.773C490.608 244.074 518.277 244.404 537.643 247.282L537.545 247.885C518.296 245.026 490.783 244.676 469.123 259.279Z" fill="#FCFDFE"/>
<path d="M501.633 208.569L501.049 208.414C508.827 179.812 497.122 150.977 489.461 136.336L490.005 136.044C497.705 150.763 509.449 179.754 501.633 208.569Z" fill="#FCFDFE"/>
<path opacity="0.2" d="M101.266 167.757C128.332 157.51 157.867 162.837 181.608 179.442C190.474 135.985 218.259 99.295 259.499 83.6622C327.047 58.0741 405.075 98.7505 433.794 174.523C441.202 194.045 444.585 213.994 444.41 233.302C447.89 231.143 451.624 229.277 455.571 227.78C492.475 213.799 535.115 236.024 550.806 277.42C566.497 318.815 549.834 365.228 512.385 377.711C492.378 384.38 460.782 384.38 460.782 384.38C460.782 384.38 153.511 360.27 144.023 360.308C106.166 360.464 68.9503 334.429 53.2592 293.052C33.6598 241.332 55.1452 185.237 101.266 167.757Z" fill="#EB8382"/>
<path d="M92.1271 167.757C119.193 157.51 148.728 162.837 172.469 179.442C181.335 135.985 209.12 99.2949 250.361 83.6621C317.908 58.0741 395.936 98.7505 424.655 174.523C432.063 194.045 435.446 213.994 435.271 233.302C438.752 231.143 442.485 229.277 446.432 227.779C483.336 213.799 525.977 236.024 541.668 277.42C557.359 318.815 540.151 363.731 503.247 377.711C495.43 380.666 451.643 384.38 451.643 384.38C451.643 384.38 144.373 360.27 134.884 360.308C97.027 360.464 59.8116 334.429 44.1205 293.052C24.5211 241.332 46.0065 185.236 92.1271 167.757Z" fill="#C9CAD6"/>
<defs>
<linearGradient id="paint0_linear_39_3287" x1="278.559" y1="567" x2="278.559" y2="0.139404" gradientUnits="userSpaceOnUse">
<stop stop-color="#746C89"/>
<stop offset="1" stop-color="#EB8382" stop-opacity="0"/>
</linearGradient>
<linearGradient id="paint1_linear_39_3287" x1="216.838" y1="51.6628" x2="139.311" y2="547.283" gradientUnits="userSpaceOnUse">
<stop offset="0.00359712" stop-color="#C37A87"/>
<stop offset="1" stop-color="#9571F6"/>
</linearGradient>
<linearGradient id="paint2_linear_39_3287" x1="168.263" y1="89.2604" x2="109.208" y2="466.791" gradientUnits="userSpaceOnUse">
<stop stop-color="#FF9085"/>
<stop offset="1" stop-color="#FB6FBB"/>
</linearGradient>
<linearGradient id="paint3_linear_39_3287" x1="430.832" y1="119.212" x2="349.696" y2="637.91" gradientUnits="userSpaceOnUse">
<stop offset="0.00359712" stop-color="#C37A87"/>
<stop offset="1" stop-color="#9571F6"/>
</linearGradient>
<linearGradient id="paint4_linear_39_3287" x1="458.366" y1="139.791" x2="385.86" y2="603.313" gradientUnits="userSpaceOnUse">
<stop stop-color="#FF9085"/>
<stop offset="1" stop-color="#FB6FBB"/>
</linearGradient>
</defs>
</svg>
