<svg width="497" height="317" viewBox="0 0 497 317" fill="none" xmlns="http://www.w3.org/2000/svg">
<path d="M1.55222 215.739L36.1233 47.4335C42.9869 14.0291 74.9331 -6.523 106.588 2.65447L120.898 6.79601C126.031 8.29318 131.359 9.05149 136.706 9.05149L168.652 9.12927L300.073 9.42092L334.683 9.49868C340.594 9.51812 346.505 8.74039 352.221 7.18489L368.34 2.81003C404.894 -7.08686 443.062 15.429 451.443 52.45L494.55 243.174C501.763 275.062 483.622 305.55 452.493 314.3C417.863 324.041 380.453 302.381 370.926 267.654L356.129 213.717C353.057 202.537 342.966 194.429 331.513 193.884L139.584 185.057C129.201 184.571 120.159 191.376 117.418 201.681L104.332 250.874C95.9907 282.198 63.9668 297.345 35.2677 284.026C10.1852 272.359 -4.08649 243.291 1.55222 215.739Z" fill="url(#paint0_linear_39_3340)"/>
<path opacity="0.3" d="M169.761 97.8513L276.662 100.826C286.171 101.098 293.929 92.3099 293.929 81.188V9.44042L153.642 9.09042V78.0381C153.642 88.7322 160.836 97.5986 169.761 97.8513Z" fill="url(#paint1_linear_39_3340)"/>
<path opacity="0.3" d="M82.1078 241.541C82.4384 228.98 76.4691 222.525 77.733 203.334C78.3357 194.37 80.0273 168.86 96.8462 155.833C112.946 143.35 135.209 148.327 164.005 154.744C201.104 163.007 199.665 171.893 225.7 175.49C263.655 180.721 277.187 163.28 304.856 172.224C318.642 176.676 329.18 185.504 337.094 194.779C335.285 194.293 333.419 193.981 331.513 193.884L139.584 185.057C129.201 184.571 120.159 191.376 117.418 201.681L104.332 250.874C97.5656 276.287 75.2053 291.064 51.6783 288.614C75.7497 269.54 81.7773 253.499 82.1078 241.541Z" fill="url(#paint2_linear_39_3340)"/>
<path d="M312.983 80.7407C312.983 111.929 338.494 138.022 370.401 139.072C402.794 140.122 429.413 115.02 429.413 82.9768C429.413 50.9334 402.794 24.801 370.401 24.626C338.494 24.4315 312.983 49.5723 312.983 80.7407Z" fill="url(#paint3_linear_39_3340)"/>
<path d="M247.866 154.958C247.866 180.157 268.146 201.565 293.423 202.79C319.011 204.034 339.991 184.162 339.991 158.399C339.991 132.636 319.011 111.19 293.423 110.529C268.127 109.848 247.866 129.739 247.866 154.958Z" fill="url(#paint4_linear_39_3340)"/>
<path d="M256.635 155.288C256.635 175.626 273.026 192.893 293.423 193.826C314.014 194.779 330.852 178.776 330.852 158.049C330.852 137.342 314.014 120.076 293.423 119.492C273.026 118.909 256.635 134.931 256.635 155.288Z" fill="url(#paint5_linear_39_3340)"/>
<path d="M263.927 155.697C263.927 169.871 275.321 181.907 289.554 182.587C303.942 183.287 315.744 172.107 315.744 157.622C315.744 143.136 303.942 131.081 289.554 130.692C275.321 130.322 263.927 141.522 263.927 155.697Z" fill="url(#paint6_linear_39_3340)"/>
<path d="M268.865 155.872C268.865 167.304 278.082 177.007 289.554 177.551C301.142 178.096 310.611 169.093 310.611 157.447C310.611 145.8 301.142 136.097 289.554 135.767C278.082 135.417 268.865 144.439 268.865 155.872Z" fill="url(#paint7_linear_39_3340)"/>
<path d="M112.168 149.319C112.168 173.604 130.99 194.195 154.458 195.343C178.199 196.49 197.643 177.318 197.643 152.527C197.643 127.717 178.199 107.107 154.458 106.484C130.99 105.843 112.168 125.034 112.168 149.319Z" fill="url(#paint8_linear_39_3340)"/>
<path d="M120.315 149.63C120.315 169.23 135.52 185.835 154.439 186.71C173.532 187.585 189.165 172.146 189.165 152.216C189.165 132.286 173.552 115.662 154.439 115.117C135.52 114.573 120.315 130.031 120.315 149.63Z" fill="url(#paint9_linear_39_3340)"/>
<path d="M123.27 149.941C123.27 164.116 134.664 176.151 148.897 176.832C163.286 177.532 175.088 166.352 175.088 151.866C175.088 137.381 163.286 125.325 148.897 124.937C134.664 124.587 123.27 135.786 123.27 149.941Z" fill="url(#paint10_linear_39_3340)"/>
<path d="M128.209 150.136C128.209 161.569 137.425 171.271 148.897 171.816C160.486 172.36 169.955 163.358 169.955 151.711C169.955 140.064 160.486 130.361 148.897 130.031C137.425 129.681 128.209 138.703 128.209 150.136Z" fill="url(#paint11_linear_39_3340)"/>
<path d="M312.964 46.6364C316.892 46.6752 320.08 43.5448 320.08 39.6172V27.1537C320.08 23.2455 316.892 20.0373 312.964 20.0373C309.056 20.0178 305.867 23.1677 305.867 27.0759V39.5005C305.886 43.4087 309.056 46.5975 312.964 46.6364Z" fill="url(#paint12_linear_39_3340)"/>
<path d="M140.459 44.5559C144.036 44.5948 146.933 41.6005 146.933 37.8478V25.9482C146.933 22.215 144.036 19.1624 140.459 19.1429C136.881 19.1235 134.003 22.1373 134.003 25.8705V37.7312C134.003 41.4644 136.9 44.5171 140.459 44.5559Z" fill="url(#paint13_linear_39_3340)"/>
<path d="M364.295 40.3755L376.525 40.4921C380.123 40.531 383.059 43.4281 383.059 46.9669V60.8887C383.059 62.1525 382.67 63.3775 381.97 64.4274L376.448 72.5161C375.242 74.2854 373.201 75.316 371.023 75.2771L369.817 75.2576C367.64 75.2187 365.618 74.1104 364.412 72.3022L358.929 64.0775C358.229 63.0275 357.859 61.7831 357.859 60.5387V46.7141C357.821 43.1754 360.718 40.356 364.295 40.3755Z" fill="url(#paint14_linear_39_3340)"/>
<path d="M364.295 123.07L376.525 123.42C380.123 123.517 383.059 120.737 383.059 117.198V103.276C383.059 102.012 382.67 100.768 381.97 99.6985L376.448 91.396C375.242 89.5878 373.201 88.46 371.023 88.4211L369.817 88.4017C367.64 88.3628 365.618 89.3933 364.412 91.1433L358.929 99.1541C358.229 100.185 357.859 101.39 357.859 102.654V116.479C357.821 120.017 360.718 122.973 364.295 123.07Z" fill="url(#paint15_linear_39_3340)"/>
<path d="M412.944 76.5799V88.7128C412.944 92.271 409.969 95.1098 406.314 95.032L392.003 94.7209C390.72 94.7015 389.456 94.2932 388.367 93.5738L380.025 87.974C378.198 86.749 377.109 84.7268 377.109 82.588V81.4019C377.109 79.2631 378.198 77.2799 380.025 76.1132L388.367 70.8245C389.436 70.144 390.7 69.794 392.003 69.8135L406.314 70.0468C409.969 70.0857 412.944 73.0217 412.944 76.5799Z" fill="url(#paint16_linear_39_3340)"/>
<path d="M328.713 75.0827V86.9823C328.713 90.4822 331.571 93.3793 335.091 93.4571L349.013 93.7682C350.276 93.7876 351.521 93.4571 352.571 92.7766L360.815 87.5462C362.623 86.399 363.712 84.4352 363.712 82.2963V81.1103C363.712 78.9715 362.623 76.9493 360.815 75.7438L352.571 70.2023C351.521 69.4829 350.276 69.094 349.013 69.0746L335.091 68.8413C331.571 68.8024 328.713 71.6023 328.713 75.0827Z" fill="url(#paint17_linear_39_3340)"/>
<path d="M361.573 40.9783L373.804 41.095C377.401 41.1339 380.337 44.031 380.337 47.5698V61.4915C380.337 62.7554 379.948 63.9803 379.248 65.0303L373.726 73.1189C372.52 74.8883 370.479 75.9188 368.301 75.8799L367.095 75.8605C364.918 75.8216 362.896 74.7133 361.69 72.905L356.207 64.6803C355.507 63.6303 355.138 62.3859 355.138 61.1415V47.317C355.099 43.7782 357.996 40.9589 361.573 40.9783Z" fill="url(#paint18_linear_39_3340)"/>
<path d="M361.573 123.673L373.804 124.023C377.401 124.12 380.337 121.339 380.337 117.801V103.879C380.337 102.615 379.948 101.371 379.248 100.301L373.726 91.9987C372.52 90.1904 370.479 89.0627 368.301 89.0238L367.095 89.0044C364.918 88.9655 362.896 89.996 361.69 91.7459L356.207 99.7568C355.507 100.787 355.138 101.993 355.138 103.257V117.081C355.099 120.639 357.996 123.575 361.573 123.673Z" fill="url(#paint19_linear_39_3340)"/>
<path d="M410.202 77.1826V89.3155C410.202 92.8737 407.227 95.7125 403.572 95.6347L389.261 95.3236C387.978 95.3042 386.714 94.8958 385.625 94.1764L377.284 88.5766C375.456 87.3517 374.367 85.3295 374.367 83.1907V82.0046C374.367 79.8658 375.456 77.8825 377.284 76.7159L385.625 71.4272C386.695 70.7466 387.959 70.3967 389.261 70.4161L403.572 70.6494C407.247 70.6883 410.202 73.6243 410.202 77.1826Z" fill="url(#paint20_linear_39_3340)"/>
<path d="M325.972 75.7049V87.6045C325.972 91.1044 328.83 94.0015 332.349 94.0793L346.271 94.3904C347.535 94.4099 348.779 94.0793 349.829 93.3988L358.073 88.1684C359.882 87.0212 360.971 85.0574 360.971 82.9186V81.7325C360.971 79.5937 359.882 77.5715 358.073 76.366L349.829 70.8245C348.779 70.1051 347.535 69.7162 346.271 69.6968L332.349 69.4635C328.83 69.4051 325.972 72.205 325.972 75.7049Z" fill="url(#paint21_linear_39_3340)"/>
<path d="M135.189 77.0271C135.189 106.757 112.246 130.128 84.3048 129.214C56.753 128.32 34.7037 104.093 34.7037 75.1022C34.7037 46.1115 56.753 22.7206 84.3048 22.8761C112.246 23.0511 135.189 47.2975 135.189 77.0271Z" fill="url(#paint22_linear_39_3340)"/>
<path d="M71.5498 42.5337C71.5498 49.9806 77.2468 56.1054 84.3049 56.2221C91.3825 56.3193 97.1378 50.3112 97.1378 42.8059C97.1378 35.3006 91.3825 29.1758 84.3049 29.1174C77.2663 29.0785 71.5498 35.0672 71.5498 42.5337Z" fill="url(#paint23_linear_39_3340)"/>
<path d="M71.5498 109.109C71.5498 116.556 77.2468 122.778 84.3049 123.011C91.3825 123.225 97.1378 117.334 97.1378 109.829C97.1378 102.323 91.3825 96.1013 84.3049 95.9263C77.2663 95.7513 71.5498 101.643 71.5498 109.109Z" fill="url(#paint24_linear_39_3340)"/>
<path d="M116.115 63.008C108.94 62.8913 103.146 68.8995 103.146 76.4048C103.146 83.9295 108.94 90.1515 116.115 90.3071C123.309 90.4626 129.162 84.4739 129.162 76.9103C129.162 69.3467 123.309 63.1247 116.115 63.008Z" fill="url(#paint25_linear_39_3340)"/>
<path d="M53.0004 62.0359C46.059 61.9192 40.4398 67.8301 40.4398 75.2382C40.4398 82.6463 46.059 88.7516 53.0004 88.9072C59.9613 89.0627 65.6389 83.1518 65.6389 75.7049C65.6389 68.2579 59.9808 62.1331 53.0004 62.0359Z" fill="url(#paint26_linear_39_3340)"/>
<path d="M68.8278 43.1364C68.8278 50.5834 74.5248 56.7082 81.5829 56.8249C88.6604 56.9221 94.4158 50.914 94.4158 43.4087C94.4158 35.9034 88.6604 29.7786 81.5829 29.7202C74.5248 29.6813 68.8278 35.6895 68.8278 43.1364Z" fill="url(#paint27_linear_39_3340)"/>
<path d="M68.8278 109.712C68.8278 117.159 74.5248 123.381 81.5829 123.614C88.6604 123.828 94.4158 117.937 94.4158 110.431C94.4158 102.926 88.6604 96.7041 81.5829 96.5291C74.5248 96.3541 68.8278 102.246 68.8278 109.712Z" fill="url(#paint28_linear_39_3340)"/>
<path d="M113.393 63.6302C106.218 63.5136 100.424 69.5217 100.424 77.027C100.424 84.5518 106.218 90.7738 113.393 90.9293C120.587 91.0849 126.44 85.0962 126.44 77.5326C126.44 69.9689 120.587 63.7275 113.393 63.6302Z" fill="url(#paint29_linear_39_3340)"/>
<path d="M50.2783 62.6385C43.3368 62.5218 37.7176 68.4328 37.7176 75.8408C37.7176 83.2295 43.3368 89.3543 50.2783 89.5098C57.2392 89.6654 62.9167 83.7545 62.9167 76.3075C62.9167 68.8605 57.2392 62.7357 50.2783 62.6385Z" fill="url(#paint30_linear_39_3340)"/>
<path opacity="0.3" d="M435.868 292.873C434.779 279.048 416.172 277.006 412.4 259.565C407.228 235.669 438.707 223.555 435.868 197.87C433.088 172.749 400.539 162.366 405.303 147.102C407.655 139.519 416.133 140.667 427.682 130.186C443.918 115.448 447.612 94.6431 448.429 88.6933C453.465 51.6334 423.774 23.8482 418.408 18.8123C409.308 10.2959 399.567 4.54055 390.506 0.651794C419.147 2.63506 444.774 22.9149 451.443 52.4306L494.55 243.155C501.763 275.043 483.622 305.53 452.493 314.28C442.615 317.061 432.524 317.275 422.899 315.369C433.807 305.958 436.315 298.511 435.868 292.873Z" fill="url(#paint31_linear_39_3340)"/>
<path opacity="0.3" d="M192.393 73.391C207.89 64.8357 217.067 75.0243 228.306 67.2857C241.411 58.2443 233.264 41.3865 246.447 31.3535C257.53 22.9149 268.146 31.198 284.168 24.8982C287.279 23.6732 290.584 21.9038 293.929 19.3178V81.188C293.929 92.2904 286.171 101.098 276.662 100.826L169.761 97.8513C167.505 97.793 165.366 97.1708 163.441 96.1208C165.95 95.2264 168.497 94.0598 171.024 92.5626C182.321 85.8739 181.952 79.1464 192.393 73.391Z" fill="#5488D0"/>
<defs>
<linearGradient id="paint0_linear_39_3340" x1="353.268" y1="-4.76366" x2="158.379" y2="357.173" gradientUnits="userSpaceOnUse">
<stop stop-color="#446381"/>
<stop offset="0.9964" stop-color="#826F8C"/>
</linearGradient>
<linearGradient id="paint1_linear_39_3340" x1="293.928" y1="54.9683" x2="153.646" y2="54.9683" gradientUnits="userSpaceOnUse">
<stop stop-color="#40447E"/>
<stop offset="0.9964" stop-color="#3C3B6B"/>
</linearGradient>
<linearGradient id="paint2_linear_39_3340" x1="133.631" y1="179.056" x2="37.5467" y2="80.2419" gradientUnits="userSpaceOnUse">
<stop stop-color="#446381"/>
<stop offset="0.9964" stop-color="#826F8C"/>
</linearGradient>
<linearGradient id="paint3_linear_39_3340" x1="338.476" y1="135.139" x2="418.546" y2="4.84275" gradientUnits="userSpaceOnUse">
<stop stop-color="#444B8C"/>
<stop offset="0.9964" stop-color="#26264F"/>
</linearGradient>
<linearGradient id="paint4_linear_39_3340" x1="339.997" y1="156.672" x2="247.86" y2="156.672" gradientUnits="userSpaceOnUse">
<stop stop-color="#444B8C"/>
<stop offset="0.9964" stop-color="#26264F"/>
</linearGradient>
<linearGradient id="paint5_linear_39_3340" x1="302.04" y1="79.6944" x2="296.945" y2="127.009" gradientUnits="userSpaceOnUse">
<stop stop-color="#444B8C"/>
<stop offset="0.9964" stop-color="#26264F"/>
</linearGradient>
<linearGradient id="paint6_linear_39_3340" x1="287.68" y1="136.845" x2="296.324" y2="216.603" gradientUnits="userSpaceOnUse">
<stop stop-color="#444B8C"/>
<stop offset="0.9964" stop-color="#26264F"/>
</linearGradient>
<linearGradient id="paint7_linear_39_3340" x1="289.388" y1="127.194" x2="290.173" y2="195.557" gradientUnits="userSpaceOnUse">
<stop stop-color="#444B8C"/>
<stop offset="0.9964" stop-color="#26264F"/>
</linearGradient>
<linearGradient id="paint8_linear_39_3340" x1="197.642" y1="150.918" x2="112.168" y2="150.918" gradientUnits="userSpaceOnUse">
<stop stop-color="#444B8C"/>
<stop offset="0.9964" stop-color="#26264F"/>
</linearGradient>
<linearGradient id="paint9_linear_39_3340" x1="164.016" y1="64.8305" x2="158.921" y2="112.145" gradientUnits="userSpaceOnUse">
<stop stop-color="#444B8C"/>
<stop offset="0.9964" stop-color="#26264F"/>
</linearGradient>
<linearGradient id="paint10_linear_39_3340" x1="147.024" y1="131.105" x2="155.668" y2="210.862" gradientUnits="userSpaceOnUse">
<stop stop-color="#444B8C"/>
<stop offset="0.9964" stop-color="#26264F"/>
</linearGradient>
<linearGradient id="paint11_linear_39_3340" x1="148.732" y1="121.453" x2="149.518" y2="189.816" gradientUnits="userSpaceOnUse">
<stop stop-color="#444B8C"/>
<stop offset="0.9964" stop-color="#26264F"/>
</linearGradient>
<linearGradient id="paint12_linear_39_3340" x1="322.838" y1="4.70712" x2="305.368" y2="55.4791" gradientUnits="userSpaceOnUse">
<stop stop-color="#AA80F9"/>
<stop offset="0.9964" stop-color="#6165D7"/>
</linearGradient>
<linearGradient id="paint13_linear_39_3340" x1="168.135" y1="-48.5234" x2="150.666" y2="2.24849" gradientUnits="userSpaceOnUse">
<stop stop-color="#AA80F9"/>
<stop offset="0.9964" stop-color="#6165D7"/>
</linearGradient>
<linearGradient id="paint14_linear_39_3340" x1="311.967" y1="111.37" x2="325.979" y2="97.9033" gradientUnits="userSpaceOnUse">
<stop stop-color="#AA80F9"/>
<stop offset="0.9964" stop-color="#6165D7"/>
</linearGradient>
<linearGradient id="paint15_linear_39_3340" x1="338.639" y1="139.123" x2="352.651" y2="125.656" gradientUnits="userSpaceOnUse">
<stop stop-color="#AA80F9"/>
<stop offset="0.9964" stop-color="#6165D7"/>
</linearGradient>
<linearGradient id="paint16_linear_39_3340" x1="338.696" y1="139.182" x2="352.708" y2="125.716" gradientUnits="userSpaceOnUse">
<stop stop-color="#AA80F9"/>
<stop offset="0.9964" stop-color="#6165D7"/>
</linearGradient>
<linearGradient id="paint17_linear_39_3340" x1="312.088" y1="111.495" x2="326.1" y2="98.029" gradientUnits="userSpaceOnUse">
<stop stop-color="#AA80F9"/>
<stop offset="0.9964" stop-color="#6165D7"/>
</linearGradient>
<linearGradient id="paint18_linear_39_3340" x1="377.537" y1="48.657" x2="360.7" y2="49.2531" gradientUnits="userSpaceOnUse">
<stop stop-color="#4499D9"/>
<stop offset="1" stop-color="#6E6CC1"/>
</linearGradient>
<linearGradient id="paint19_linear_39_3340" x1="377.537" y1="96.7083" x2="360.699" y2="97.3023" gradientUnits="userSpaceOnUse">
<stop stop-color="#4499D9"/>
<stop offset="1" stop-color="#6E6CC1"/>
</linearGradient>
<linearGradient id="paint20_linear_39_3340" x1="406.221" y1="75.9641" x2="382.363" y2="77.6263" gradientUnits="userSpaceOnUse">
<stop stop-color="#4499D9"/>
<stop offset="1" stop-color="#6E6CC1"/>
</linearGradient>
<linearGradient id="paint21_linear_39_3340" x1="357.082" y1="74.947" x2="333.778" y2="76.5513" gradientUnits="userSpaceOnUse">
<stop stop-color="#4499D9"/>
<stop offset="1" stop-color="#6E6CC1"/>
</linearGradient>
<linearGradient id="paint22_linear_39_3340" x1="54.288" y1="126.157" x2="139.454" y2="-12.8747" gradientUnits="userSpaceOnUse">
<stop stop-color="#444B8C"/>
<stop offset="0.9964" stop-color="#26264F"/>
</linearGradient>
<linearGradient id="paint23_linear_39_3340" x1="15.1831" y1="111.841" x2="34.2908" y2="92.733" gradientUnits="userSpaceOnUse">
<stop stop-color="#AA80F9"/>
<stop offset="0.9964" stop-color="#6165D7"/>
</linearGradient>
<linearGradient id="paint24_linear_39_3340" x1="48.5773" y1="145.235" x2="67.6851" y2="126.127" gradientUnits="userSpaceOnUse">
<stop stop-color="#AA80F9"/>
<stop offset="0.9964" stop-color="#6165D7"/>
</linearGradient>
<linearGradient id="paint25_linear_39_3340" x1="48.0881" y1="144.746" x2="67.1958" y2="125.638" gradientUnits="userSpaceOnUse">
<stop stop-color="#AA80F9"/>
<stop offset="0.9964" stop-color="#6165D7"/>
</linearGradient>
<linearGradient id="paint26_linear_39_3340" x1="15.9287" y1="112.587" x2="35.0364" y2="93.479" gradientUnits="userSpaceOnUse">
<stop stop-color="#AA80F9"/>
<stop offset="0.9964" stop-color="#6165D7"/>
</linearGradient>
<linearGradient id="paint27_linear_39_3340" x1="91.5727" y1="35.6835" x2="74.4911" y2="36.4742" gradientUnits="userSpaceOnUse">
<stop stop-color="#4499D9"/>
<stop offset="1" stop-color="#6E6CC1"/>
</linearGradient>
<linearGradient id="paint28_linear_39_3340" x1="91.5727" y1="102.486" x2="74.4911" y2="103.277" gradientUnits="userSpaceOnUse">
<stop stop-color="#4499D9"/>
<stop offset="1" stop-color="#6E6CC1"/>
</linearGradient>
<linearGradient id="paint29_linear_39_3340" x1="123.549" y1="69.6355" x2="106.183" y2="70.4469" gradientUnits="userSpaceOnUse">
<stop stop-color="#4499D9"/>
<stop offset="1" stop-color="#6E6CC1"/>
</linearGradient>
<linearGradient id="paint30_linear_39_3340" x1="60.1168" y1="68.5497" x2="43.2944" y2="69.3231" gradientUnits="userSpaceOnUse">
<stop stop-color="#4499D9"/>
<stop offset="1" stop-color="#6E6CC1"/>
</linearGradient>
<linearGradient id="paint31_linear_39_3340" x1="482.019" y1="64.5642" x2="287.129" y2="426.501" gradientUnits="userSpaceOnUse">
<stop stop-color="#444B8C"/>
<stop offset="0.9964" stop-color="#26264F"/>
</linearGradient>
</defs>
</svg>
